<svg width="375" height="86" viewBox="0 0 375 86" fill="none" xmlns="http://www.w3.org/2000/svg">
<path fill-rule="evenodd" clip-rule="evenodd" d="M79.4405 0C49.7157 12.378 30.2877 17.1207 0 17.1207L0 8.56034C21.5397 8.56034 37.3178 6.10198 55.6853 0L79.4405 0ZM290.17 0C319.645 12.6968 339.384 17.1207 375 17.1207V8.56034C349.341 8.56034 332.304 6.23967 313.515 0L290.17 0ZM0 59.9224C31.6519 59.9224 51.4437 54.7429 83.5215 41.0825C84.8799 40.504 89.5145 38.5215 90.1496 38.2505C126.149 22.8885 148.676 17.1207 187.5 17.1207C226.017 17.1207 245.107 22.3501 279.857 38.2154C315.419 54.4514 335.392 59.9224 375 59.9224V51.3621C336.483 51.3621 317.393 46.1327 282.643 30.2673C247.081 14.0314 227.108 8.56034 187.5 8.56034C147.653 8.56034 124.293 14.5414 87.5232 30.2322C86.8832 30.5053 82.2519 32.4863 80.8997 33.0622C49.5882 46.3963 30.6132 51.3621 0 51.3621L0 59.9224Z" fill="#EBF3FF"/>
</svg>
