<svg width="1217" height="232" viewBox="0 0 1217 232" fill="none" xmlns="http://www.w3.org/2000/svg">
<path fill-rule="evenodd" clip-rule="evenodd" d="M178.17 0C63.2341 47.8617 -11.8874 66.2 -129 66.2L-129 33.1C-45.7132 33.1 15.2953 23.5943 86.3165 0L178.17 0ZM992.992 0C1106.96 49.0945 1183.28 66.2 1321 66.2V33.1C1221.79 33.1 1155.91 24.1267 1083.26 0L992.992 0ZM-129 231.7C-6.61275 231.7 69.9158 211.673 193.95 158.852C199.202 156.615 217.123 148.95 219.579 147.902C358.776 88.502 445.881 66.2 596 66.2C744.931 66.2 818.747 86.4203 953.115 147.766C1090.62 210.545 1167.85 231.7 1321 231.7V198.6C1172.07 198.6 1098.25 178.38 963.885 117.034C826.378 54.2547 749.152 33.1 596 33.1C441.925 33.1 351.6 56.2267 209.423 116.898C206.949 117.954 189.041 125.614 183.812 127.841C62.7411 179.399 -10.6291 198.6 -129 198.6L-129 231.7Z" fill="#EBF3FF"/>
</svg>
