<svg width="64" height="64" viewBox="0 0 64 64" fill="none" xmlns="http://www.w3.org/2000/svg">
<rect width="64" height="64" rx="32" fill="#D6E7FF"/>
<path fill-rule="evenodd" clip-rule="evenodd" d="M31.2929 20.6249C31.6834 20.2344 32.3166 20.2344 32.7071 20.6249L40.7071 28.6249C41.0976 29.0154 41.0976 29.6486 40.7071 30.0391C40.3166 30.4297 39.6834 30.4297 39.2929 30.0391L33 23.7462V35.332C33 35.8843 32.5523 36.332 32 36.332C31.4477 36.332 31 35.8843 31 35.332L31 23.7462L24.7071 30.0391C24.3166 30.4297 23.6834 30.4297 23.2929 30.0391C22.9024 29.6486 22.9024 29.0154 23.2929 28.6249L31.2929 20.6249ZM32 38.332C32.5523 38.332 33 38.7797 33 39.332V42.6654C33 43.2176 32.5523 43.6654 32 43.6654C31.4477 43.6654 31 43.2176 31 42.6654V39.332C31 38.7797 31.4477 38.332 32 38.332Z" fill="black"/>
</svg>
