<svg width="43" height="44" viewBox="0 0 43 44" fill="none" xmlns="http://www.w3.org/2000/svg">
<rect y="0.851562" width="43" height="43" rx="21.5" fill="#D6E7FF"/>
<path fill-rule="evenodd" clip-rule="evenodd" d="M20.9697 13.8212C21.2626 13.5283 21.7374 13.5283 22.0303 13.8212L28.0303 19.8212C28.3232 20.1141 28.3232 20.589 28.0303 20.8819C27.7374 21.1748 27.2626 21.1748 26.9697 20.8819L22.25 16.1622L22.25 24.8516C22.25 25.2658 21.9142 25.6016 21.5 25.6016C21.0858 25.6016 20.75 25.2658 20.75 24.8516L20.75 16.1622L16.0303 20.8819C15.7374 21.1748 15.2626 21.1748 14.9697 20.8819C14.6768 20.589 14.6768 20.1141 14.9697 19.8212L20.9697 13.8212ZM21.5 27.1016C21.9142 27.1016 22.25 27.4373 22.25 27.8516V30.3516C22.25 30.7658 21.9142 31.1016 21.5 31.1016C21.0858 31.1016 20.75 30.7658 20.75 30.3516V27.8516C20.75 27.4373 21.0858 27.1016 21.5 27.1016Z" fill="black"/>
</svg>
