<svg width="55" height="43" viewBox="0 0 55 43" fill="none" xmlns="http://www.w3.org/2000/svg">
<g clip-path="url(#clip0_747_4393)">
<path d="M8.20508 24.6618C8.52738 24.4199 8.91403 24.2167 9.30887 24.0259C9.71957 23.8346 10.1403 23.6649 10.5692 23.5174C11.4741 23.2115 12.4021 22.9761 13.3445 22.8133C15.2744 22.4747 17.3042 22.3946 19.2975 22.501C21.2599 22.6163 23.2084 22.899 25.1213 23.346C25.5876 23.4562 26.056 23.5658 26.5097 23.6948C26.7384 23.7561 26.9666 23.8188 27.1942 23.8829C27.4205 23.9485 27.6419 24.0195 27.866 24.0872L28.5346 24.2941L29.1891 24.5183L30.4199 24.9483C31.9765 25.4949 33.5635 25.9532 35.1732 26.321C35.3766 26.3662 35.5816 26.406 35.7862 26.449C35.9907 26.492 36.1935 26.5393 36.4008 26.5726L37.0203 26.6844C37.2264 26.7252 37.4353 26.75 37.6436 26.7838C38.0592 26.8542 38.4796 26.9005 38.8979 26.9564C39.1084 26.9816 39.32 26.9994 39.5322 27.0219L39.8506 27.0542L40.1702 27.0784C41.0231 27.1483 41.8846 27.1823 42.7546 27.1805C43.6239 27.1805 44.4997 27.1493 45.3832 27.073C47.1469 26.9263 48.928 26.6505 50.6933 26.1593C50.0863 26.665 49.325 27.0821 48.5223 27.4568C47.6831 27.837 46.8159 28.1538 45.928 28.4044C44.9937 28.6701 44.0433 28.8771 43.0824 29.0241C42.5916 29.1021 42.0969 29.1531 41.5979 29.2058L40.847 29.2596C40.5956 29.2811 40.3442 29.2832 40.0917 29.295L39.7132 29.3095C39.5867 29.3122 39.4607 29.3095 39.3347 29.3122C39.0822 29.3122 38.8287 29.3122 38.5762 29.3122C38.0728 29.295 37.5645 29.2848 37.0639 29.2429C36.0556 29.18 35.0641 29.0489 34.083 28.8935C32.1823 28.5707 30.3132 28.0875 28.4965 27.4493L27.252 27.0058L26.6706 26.7908L26.0811 26.5914C25.8848 26.5248 25.6901 26.4549 25.4927 26.3904C25.2953 26.3259 25.0957 26.2657 24.8977 26.2017C24.5045 26.069 24.1009 25.9582 23.7023 25.8362C22.0835 25.36 20.4386 24.9745 18.7756 24.6817C17.0926 24.4006 15.3661 24.2054 13.5948 24.1796C11.8235 24.1538 10.0151 24.2597 8.20508 24.6618Z" fill="#FF321B"/>
<path d="M3.53711 28.5577C3.85156 28.2752 4.19289 28.0232 4.55637 27.8052C4.93831 27.5697 5.3332 27.3553 5.73923 27.1629C6.60379 26.7571 7.50291 26.4271 8.42617 26.1766L8.78447 26.0799C8.90499 26.0487 9.02715 26.0213 9.14821 25.9922C9.39144 25.9335 9.63776 25.8812 9.88716 25.8353C10.1358 25.7885 10.384 25.7364 10.6387 25.7041C10.8933 25.6719 11.1447 25.6257 11.4021 25.6004C11.6596 25.5751 11.9148 25.5418 12.1733 25.5241L12.9498 25.4736C13.21 25.465 13.4701 25.4612 13.7302 25.4553C13.8606 25.4504 13.9904 25.4553 14.1207 25.4553L14.5112 25.4628C15.5429 25.49 16.5711 25.5924 17.5875 25.7692L17.9632 25.8342L18.3325 25.9121C18.5789 25.9659 18.8233 26.0164 19.0659 26.0734C19.5431 26.2035 20.0252 26.3217 20.4789 26.4819C20.7091 26.5561 20.936 26.6356 21.1617 26.7141C21.3875 26.7926 21.6018 26.8856 21.8161 26.9753C22.2568 27.1441 22.6614 27.3516 23.0704 27.5483C23.275 27.6467 23.4669 27.7579 23.6594 27.867C23.8519 27.9762 24.0412 28.0858 24.2277 28.1992C24.592 28.432 24.9394 28.677 25.2688 28.9307C24.7867 28.8232 24.3318 28.6969 23.8776 28.576C23.6447 28.5223 23.4184 28.4626 23.191 28.4061C22.9636 28.3497 22.7449 28.2841 22.5131 28.2368L21.8358 28.0756C21.6138 28.0186 21.387 27.9719 21.1606 27.9251C20.9343 27.8783 20.7118 27.8278 20.4893 27.7783C20.2668 27.7289 20.0356 27.6972 19.8125 27.652L19.4777 27.5908C19.3686 27.5687 19.2514 27.5548 19.139 27.537L18.4666 27.4241C18.2414 27.3914 18.014 27.3666 17.7909 27.3322L17.455 27.2844L17.1163 27.2495C16.8895 27.2296 16.667 27.1957 16.4412 27.1764L15.7644 27.1226L15.5953 27.1081L15.4263 27.0995L15.0871 27.0828L14.749 27.0635C14.6361 27.0592 14.5226 27.0586 14.4097 27.0554C14.184 27.0517 13.9577 27.0382 13.7319 27.042H13.0546L12.3756 27.0603C12.1487 27.0662 11.924 27.0866 11.6966 27.0941C11.4692 27.1016 11.244 27.1253 11.0171 27.1414C10.7903 27.1575 10.5645 27.1796 10.3376 27.2021C10.2247 27.214 10.1102 27.2226 9.99787 27.2366C9.88553 27.2505 9.77264 27.2661 9.65921 27.2785C9.54577 27.2908 9.43125 27.3032 9.31836 27.3183L8.9797 27.3672C8.07369 27.4947 7.16823 27.658 6.26331 27.8568C5.35694 28.0579 4.45439 28.2847 3.53711 28.5577Z" fill="#025ACC"/>
<path d="M22.0664 21.1435C22.7129 21.0192 23.3669 20.9362 24.0242 20.8952C24.689 20.849 25.3614 20.8377 26.0327 20.856C27.3667 20.8988 28.6958 21.0369 30.0094 21.2693C30.6573 21.3849 31.297 21.5085 31.9405 21.6649C32.584 21.8213 33.1948 21.9874 33.7898 22.1643L35.5409 22.6824C36.1108 22.848 36.6769 23.0114 37.2315 23.1398C39.4096 23.6714 41.7612 23.823 44.1645 23.6451C46.5679 23.4672 48.9925 22.9737 51.4651 22.3637C50.9974 22.7011 50.5024 23 49.985 23.2575C49.7227 23.3951 49.4539 23.5263 49.1763 23.6521C49.0383 23.7166 48.8982 23.7768 48.758 23.8391L48.3272 24.0133C47.1192 24.4906 45.8673 24.8519 44.5888 25.092C43.2243 25.3486 41.8363 25.4641 40.4474 25.4366C39.0436 25.4116 37.6469 25.2329 36.2831 24.9039C35.6184 24.7464 35.0026 24.5594 34.4 24.3664C33.7974 24.1734 33.2199 23.9697 32.6549 23.7698C32.0899 23.5698 31.5364 23.3715 30.9861 23.1887C30.7102 23.0952 30.4408 23.0097 30.1539 22.92C29.8671 22.8302 29.5879 22.7442 29.3027 22.6604C28.1634 22.3196 27.0013 22.0202 25.8037 21.7606C24.6061 21.501 23.3692 21.3043 22.0664 21.1435Z" fill="#025ACC"/>
<path d="M5.73977 32.4511C5.20915 32.4737 5.10608 32.628 5.10608 33.1929V37.7934H4.92611L1.64147 32.7882V36.8576C1.64147 37.4219 1.74454 37.5762 2.35042 37.5988V37.7536C2.16337 37.738 1.81925 37.731 1.55203 37.731C1.28481 37.731 0.997957 37.738 0.826172 37.7536V37.5988C1.35734 37.5762 1.46041 37.4219 1.46041 36.8576V33.1139C1.46041 32.5527 1.35734 32.4737 0.826172 32.4511V32.2969C0.997957 32.3119 1.28863 32.3195 1.55203 32.3195C1.78108 32.3195 1.99104 32.3119 2.16337 32.2969L4.92448 36.4894V33.1929C4.92448 32.628 4.82522 32.4737 4.21552 32.4511V32.2969C4.40258 32.3119 4.74615 32.3195 5.01337 32.3195C5.28059 32.3195 5.56744 32.3119 5.73923 32.2969L5.73977 32.4511Z" fill="black"/>
<path d="M8.29805 32.4511C7.76742 32.4737 7.66435 32.5527 7.66435 33.1139V35.9374C7.66435 36.577 7.65672 37.4316 7.53074 37.9476C7.35841 38.6587 6.77434 39.2048 5.88051 39.2048C5.65439 39.2089 5.43038 39.1613 5.22609 39.0656C4.97032 38.9339 4.85198 38.7496 4.85198 38.5346C4.84946 38.4804 4.85836 38.4262 4.87814 38.3756C4.89791 38.325 4.92813 38.2789 4.96687 38.2404C5.00562 38.2019 5.05205 38.1717 5.10324 38.1517C5.15442 38.1317 5.20926 38.1225 5.26427 38.1245C5.50913 38.1245 5.69618 38.2787 5.69618 38.5421C5.70109 38.6359 5.67024 38.7281 5.6097 38.8006C5.54915 38.8731 5.46329 38.9206 5.36897 38.9339C5.47259 39.0355 5.73599 39.0581 5.8696 39.0581C6.32388 39.0581 6.668 38.8135 6.80924 38.4029C6.91831 38.0804 6.94285 37.7041 6.94285 36.6372V33.1139C6.94285 32.5527 6.83978 32.4737 6.30861 32.4511V32.2969C6.52675 32.3119 6.90086 32.3195 7.30933 32.3195C7.66871 32.3195 8.05809 32.3119 8.30241 32.2969L8.29805 32.4511Z" fill="black"/>
<path d="M13.8951 34.9786C13.8951 36.7024 12.8638 37.8623 11.4088 37.8623C9.92277 37.8623 8.92969 36.8346 8.92969 35.0673C8.92969 33.343 9.96094 32.1836 11.4165 32.1836C12.902 32.1852 13.8951 33.2156 13.8951 34.9786ZM9.70899 35.0388C9.70899 36.6798 10.4768 37.7225 11.4394 37.7225C12.4554 37.7225 13.112 36.6045 13.112 35.0087C13.112 33.3672 12.3485 32.3244 11.3859 32.3244C10.3661 32.3244 9.70899 33.4424 9.70899 35.0388Z" fill="black"/>
<path d="M19.4151 37.3714C19.1937 37.6875 18.999 37.8648 18.5786 37.8648C18.1854 37.8648 17.8876 37.6875 17.7387 37.029L17.5697 36.2609C17.4203 35.6057 17.3057 35.1655 16.6873 35.1655H15.9396V36.9393C15.9396 37.4999 16.0427 37.5789 16.5739 37.6015V37.7563C16.3328 37.7407 15.9396 37.7337 15.5808 37.7337C15.1756 37.7337 14.7977 37.7407 14.5801 37.7563V37.6015C15.1107 37.5789 15.2138 37.4999 15.2138 36.9393V33.1139C15.2138 32.5527 15.1107 32.4737 14.5801 32.4511V32.2969C14.7982 32.3119 15.1909 32.3195 15.5344 32.3195C16.0253 32.3195 16.5275 32.3044 16.7151 32.3044C17.9754 32.3044 18.602 32.8919 18.602 33.6444C18.602 34.1819 18.2617 34.9473 17.0816 35.1279L17.177 35.1429C17.8724 35.2558 18.1243 35.5192 18.2732 36.1594L18.4679 36.9463C18.5633 37.394 18.6517 37.5784 18.8693 37.5784C19.0601 37.5784 19.1517 37.4655 19.2968 37.2849L19.4151 37.3714ZM16.4664 35.0113C17.574 35.0113 17.8189 34.4388 17.8189 33.7309C17.8189 32.9247 17.4672 32.4511 16.5199 32.4511C16.0427 32.4511 15.9396 32.5828 15.9396 33.1139V35.0113H16.4664Z" fill="black"/>
<path d="M19.649 32.2969C19.8284 32.3082 20.1229 32.3232 20.4125 32.3232C20.4774 32.3232 20.5384 32.3195 20.6033 32.3195C20.9622 32.3119 21.4857 32.2969 21.7835 32.2969C23.6475 32.2969 24.5451 33.2456 24.5451 34.9661C24.5451 36.6447 23.5139 37.7557 21.7148 37.7557C21.4781 37.7557 20.9551 37.7331 20.6186 37.7331C20.2521 37.7331 19.866 37.7401 19.6484 37.7557V37.6009C20.1796 37.5783 20.2827 37.4993 20.2827 36.9387V33.1139C20.2827 32.5527 20.1796 32.4737 19.6484 32.4511L19.649 32.2969ZM21.0091 36.9538C21.0091 37.4913 21.1122 37.616 21.597 37.616C23.3006 37.616 23.7626 36.6748 23.7626 34.9962C23.7626 33.2681 23.209 32.4361 21.5893 32.4361C21.1122 32.4361 21.0091 32.5678 21.0091 33.0988V36.9538Z" fill="black"/>
<path d="M31.393 32.4511C30.8624 32.4737 30.7593 32.5527 30.7593 33.1139V36.9387C30.7593 37.4993 30.8624 37.5784 31.393 37.6009V37.7557C31.1487 37.7401 30.7593 37.7332 30.3999 37.7332C29.9915 37.7332 29.6174 37.7401 29.3992 37.7557V37.6009C29.9304 37.5784 30.0296 37.4993 30.0296 36.9387V32.8129L28.1487 37.7934H28.0227L26.0497 32.7882V36.8576C26.0497 37.4219 26.1527 37.5762 26.7586 37.5988V37.7536C26.5716 37.738 26.2275 37.731 25.9602 37.731C25.693 37.731 25.4062 37.738 25.2344 37.7536V37.5988C25.7655 37.5762 25.8686 37.4219 25.8686 36.8576V33.1139C25.8686 32.5527 25.7655 32.4737 25.2344 32.4511V32.2969C25.4062 32.3119 25.6968 32.3195 25.9602 32.3195C26.1893 32.3195 26.457 32.3119 26.6288 32.2969L28.3472 36.7694L30.028 32.3195H30.3983C30.7577 32.3195 31.1471 32.3119 31.3914 32.2969L31.393 32.4511Z" fill="black"/>
<path d="M36.1576 37.1084C36.3141 37.4997 36.5355 37.5921 36.7002 37.6012V37.756C36.4859 37.7405 36.1576 37.7335 35.8598 37.7335C35.4547 37.7335 35.0805 37.7405 34.8591 37.756V37.6012C35.2371 37.5862 35.4127 37.5298 35.4127 37.3153C35.404 37.1905 35.373 37.0682 35.321 36.9541L34.84 35.691H32.9531L32.6325 36.508C32.5234 36.7767 32.4754 36.9826 32.4754 37.1406C32.4754 37.4755 32.7088 37.5921 33.1555 37.6034V37.7582C32.8577 37.7426 32.5288 37.7356 32.254 37.7356C32.059 37.7331 31.8641 37.7406 31.6699 37.7582V37.6034C31.8722 37.5582 32.1062 37.3965 32.2845 36.9337L34.1256 32.2617H34.2516L36.1576 37.1084ZM33.908 33.2346L33.0104 35.5346H34.7828L33.908 33.2346Z" fill="black"/>
<path d="M41.6582 37.3714C41.4368 37.6875 41.2421 37.8648 40.8216 37.8648C40.4284 37.8648 40.1301 37.6875 39.9813 37.029L39.8095 36.2609C39.6606 35.6057 39.5461 35.1655 38.9271 35.1655H38.1843V36.9393C38.1843 37.4999 38.2874 37.5789 38.818 37.6015V37.7563C38.5775 37.7407 38.1843 37.7337 37.8249 37.7337C37.4203 37.7337 37.0418 37.7407 36.8242 37.7563V37.6015C37.3554 37.5789 37.4585 37.4999 37.4585 36.9393V33.1139C37.4585 32.5527 37.3554 32.4737 36.8242 32.4511V32.2969C37.0424 32.3119 37.4356 32.3195 37.7791 32.3195C38.2699 32.3195 38.7722 32.3044 38.9593 32.3044C40.2201 32.3044 40.8462 32.8919 40.8462 33.6444C40.8462 34.1819 40.5064 34.9473 39.3263 35.1279L39.4217 35.1429C40.1165 35.2558 40.369 35.5192 40.5179 36.1593L40.7126 36.9462C40.808 37.394 40.8958 37.5783 41.1134 37.5783C41.3048 37.5783 41.3964 37.4655 41.5415 37.2849L41.6582 37.3714ZM38.7095 35.0112C39.8171 35.0112 40.0614 34.4388 40.0614 33.7309C40.0614 32.9247 39.7102 32.4511 38.7629 32.4511C38.2858 32.4511 38.1827 32.5828 38.1827 33.1139V35.0112H38.7095Z" fill="black"/>
<path d="M43.8844 32.4511C43.3533 32.4737 43.2502 32.5527 43.2502 33.1139V36.9387C43.2502 37.4993 43.3533 37.5784 43.8844 37.6009V37.7557C43.6439 37.7401 43.2502 37.7332 42.8913 37.7332C42.4861 37.7332 42.1082 37.7401 41.8906 37.7557V37.6009C42.4213 37.5784 42.5243 37.4993 42.5243 36.9387V33.1139C42.5243 32.5527 42.4213 32.4737 41.8906 32.4511V32.2969C42.1088 32.3119 42.4861 32.3195 42.8913 32.3195C43.2502 32.3195 43.6439 32.3119 43.8844 32.2969V32.4511Z" fill="black"/>
<path d="M49.4541 32.4511C48.9229 32.4737 48.8198 32.628 48.8198 33.1929V37.7934H48.6404L45.3558 32.7882V36.8576C45.3558 37.4219 45.4588 37.5762 46.0647 37.5988V37.7536C45.8777 37.738 45.5341 37.731 45.2663 37.731C44.9986 37.731 44.7128 37.738 44.541 37.7536V37.5988C45.0716 37.5762 45.1747 37.4219 45.1747 36.8576V33.1139C45.1747 32.5527 45.0716 32.4737 44.541 32.4511V32.2969C44.7128 32.3119 45.0029 32.3195 45.2663 32.3195C45.4959 32.3195 45.7059 32.3119 45.8777 32.2969L48.6393 36.4894V33.1929C48.6393 32.628 48.5401 32.4737 47.9304 32.4511V32.2969C48.1174 32.3119 48.4615 32.3195 48.7288 32.3195C48.996 32.3195 49.2823 32.3119 49.4546 32.2969L49.4541 32.4511Z" fill="black"/>
<path d="M54.0949 36.212C54.0796 36.3512 54.072 36.5544 54.072 36.7694C54.072 36.9613 54.0873 37.3639 54.1265 37.7557C53.5954 37.7332 52.8586 37.7332 52.3351 37.7332C51.8655 37.7332 50.8343 37.7332 50.0664 37.7557V37.6009C50.597 37.5784 50.7001 37.4993 50.7001 36.9387V33.1139C50.7001 32.5527 50.597 32.4737 50.0664 32.4511V32.2969C50.8343 32.3195 51.8661 32.3195 52.3351 32.3195C52.8041 32.3195 53.4847 32.3195 53.9711 32.2969C53.9329 32.6581 53.9166 33.0311 53.9166 33.2079C53.9149 33.3675 53.9225 33.5271 53.9395 33.6858H53.759C53.6554 32.772 53.537 32.4737 52.7081 32.4737H52.0591C51.5279 32.4737 51.4249 32.5527 51.4249 33.1139V34.9322H51.9446C52.6241 34.9322 52.6088 34.2872 52.6699 33.9158H52.8499C52.827 34.2432 52.8231 34.4652 52.8231 34.642C52.8231 34.7855 52.827 34.8984 52.827 35.0113C52.827 35.2633 52.8346 35.5192 52.8728 36.1067H52.6928C52.6317 35.6133 52.6241 35.0854 51.9446 35.0854H51.4249V36.9377C51.4249 37.4983 51.5279 37.5773 52.0591 37.5773H52.6317C53.6095 37.5773 53.8048 37.2311 53.9155 36.211L54.0949 36.212Z" fill="black"/>
<path d="M39.5115 5.52249V5.15968C38.94 5.19516 38.0287 5.21343 37.1888 5.21343H36.3223L32.3914 15.6221L28.3673 5.07422H26.9772C26.5752 5.10916 25.8957 5.12797 25.2795 5.12797C24.654 5.12797 23.8501 5.11023 23.4122 5.07422V5.43542C24.8416 5.48917 25.0739 5.84876 25.0739 7.16993V14.8831L18.6148 5.07422C18.2129 5.10916 17.7215 5.12797 17.1854 5.12797C16.5692 5.12797 15.8902 5.11023 15.4883 5.07422V5.43542C16.73 5.48917 16.9711 5.67299 16.9711 6.98503V15.7484C16.9711 17.0691 16.73 17.4297 15.4883 17.4829V17.8436C15.8902 17.8087 16.5692 17.7899 17.1854 17.7899C17.8109 17.7899 18.6148 17.8076 19.0527 17.8436V17.4829C17.6321 17.4292 17.391 17.0691 17.391 15.7484V6.22769L25.0739 17.9296H25.4938C25.8783 17.9113 26.3587 17.8759 26.8076 17.8759C27.4331 17.8759 28.2364 17.8877 28.6738 17.9232V17.5679C27.2531 17.5141 27.0121 17.154 27.0121 15.8328V6.31477L31.623 18.0172H31.918L36.3223 6.36798V16.0172C36.3223 17.3292 36.09 17.5141 34.8498 17.5673V17.928C35.3592 17.8931 36.2345 17.8742 37.1905 17.8742C38.0303 17.8742 38.9416 17.892 39.5131 17.928V17.5673C38.2714 17.5136 38.0303 17.3292 38.0303 16.0172V7.07211C38.0287 5.76007 38.2697 5.57517 39.5115 5.52249ZM26.5932 15.8334C26.5932 17.0046 26.4018 17.4201 25.4938 17.5367V7.16993C25.4938 6.31907 25.5958 5.86811 25.9988 5.63967C26.4782 5.79823 26.5932 6.16696 26.5932 7.07211V15.8334Z" fill="black"/>
</g>
<defs>
<clipPath id="clip0_747_4393">
<rect width="54" height="43" fill="white" transform="translate(0.5)"/>
</clipPath>
</defs>
</svg>
