<svg width="60" height="48" viewBox="0 0 60 48" fill="none" xmlns="http://www.w3.org/2000/svg">
<path d="M8.46875 27.5314C8.82309 27.2614 9.24819 27.0346 9.68227 26.8216C10.1338 26.6081 10.5963 26.4186 11.0679 26.254C12.0628 25.9125 13.083 25.6497 14.1191 25.468C16.2409 25.09 18.4725 25.0006 20.6639 25.1194C22.8214 25.2481 24.9637 25.5637 27.0667 26.0626C27.5793 26.1856 28.0943 26.308 28.5932 26.452C28.8446 26.5204 29.0954 26.5904 29.3456 26.662C29.5945 26.7352 29.8379 26.8144 30.0843 26.89L30.8194 27.121L31.5388 27.3712L32.8921 27.8512C34.6034 28.4614 36.3481 28.973 38.1179 29.3836C38.3415 29.434 38.567 29.4784 38.7918 29.5264C39.0166 29.5744 39.2397 29.6272 39.4675 29.6644L40.1486 29.7892C40.3752 29.8348 40.6049 29.8624 40.8339 29.9002C41.2908 29.9788 41.7531 30.0304 42.2129 30.0928C42.4444 30.121 42.677 30.1408 42.9102 30.166L43.2604 30.202L43.6117 30.229C44.5494 30.307 45.4965 30.345 46.453 30.343C47.4088 30.343 48.3717 30.3082 49.343 30.223C51.2819 30.0592 53.2401 29.7514 55.1809 29.203C54.5136 29.7676 53.6766 30.2332 52.7941 30.6514C51.8715 31.0758 50.918 31.4295 49.9419 31.7092C48.9148 32.0058 47.8698 32.2369 46.8134 32.401C46.2738 32.488 45.73 32.545 45.1814 32.6038L44.3558 32.6638C44.0794 32.6878 43.803 32.6902 43.5254 32.7034L43.1093 32.7196C42.9702 32.7226 42.8317 32.7196 42.6932 32.7226C42.4156 32.7226 42.1368 32.7226 41.8592 32.7226C41.3058 32.7034 40.747 32.692 40.1966 32.6452C39.088 32.575 37.998 32.4286 36.9193 32.2552C34.8297 31.8948 32.7748 31.3554 30.7774 30.643L29.4092 30.148L28.7701 29.908L28.1219 29.6854C27.9061 29.611 27.692 29.533 27.475 29.461C27.2579 29.389 27.0385 29.3218 26.8209 29.2504C26.3886 29.1022 25.9449 28.9786 25.5066 28.8424C23.7269 28.3108 21.9185 27.8805 20.0901 27.5536C18.2399 27.2398 16.3416 27.022 14.3943 26.9932C12.4469 26.9644 10.4587 27.0826 8.46875 27.5314Z" fill="#FF321B"/>
<path d="M3.33984 31.8797C3.68555 31.5643 4.06082 31.283 4.46043 31.0397C4.88034 30.7768 5.31449 30.5374 5.76089 30.3227C6.7114 29.8697 7.6999 29.5012 8.71495 29.2217L9.10887 29.1137C9.24137 29.0789 9.37567 29.0483 9.50878 29.0159C9.77618 28.9503 10.047 28.8919 10.3212 28.8407C10.5946 28.7885 10.8674 28.7303 11.1474 28.6943C11.4274 28.6583 11.7038 28.6067 11.9868 28.5785C12.2698 28.5503 12.5504 28.5131 12.8346 28.4933L13.6884 28.4369C13.9743 28.4273 14.2603 28.4231 14.5463 28.4165C14.6896 28.4111 14.8323 28.4165 14.9756 28.4165L15.4049 28.4249C16.5392 28.4552 17.6697 28.5695 18.7871 28.7669L19.2002 28.8395L19.6061 28.9265C19.8771 28.9865 20.1457 29.0429 20.4125 29.1065C20.9371 29.2517 21.4671 29.3837 21.966 29.5625C22.219 29.6453 22.4684 29.7341 22.7166 29.8217C22.9648 29.9093 23.2005 30.0131 23.4361 30.1133C23.9205 30.3017 24.3654 30.5333 24.8151 30.7529C25.0399 30.8627 25.251 30.9869 25.4626 31.1087C25.6743 31.2305 25.8823 31.3529 26.0874 31.4795C26.4879 31.7393 26.8698 32.0129 27.2319 32.2961C26.7019 32.1761 26.2019 32.0351 25.7025 31.9001C25.4464 31.8401 25.1976 31.7735 24.9476 31.7105C24.6976 31.6475 24.4572 31.5743 24.2023 31.5215L23.4577 31.3415C23.2137 31.2779 22.9642 31.2257 22.7154 31.1735C22.4666 31.1213 22.222 31.0649 21.9773 31.0097C21.7327 30.9545 21.4785 30.9191 21.2333 30.8687L20.8652 30.8003C20.7452 30.7757 20.6163 30.7601 20.4928 30.7403L19.7536 30.6143C19.5059 30.5777 19.2559 30.5501 19.0107 30.5117L18.6414 30.4583L18.269 30.4193C18.0196 30.3971 17.775 30.3593 17.5268 30.3377L16.7827 30.2777L16.5968 30.2615L16.411 30.2519L16.038 30.2333L15.6663 30.2117C15.5422 30.2069 15.4175 30.2063 15.2934 30.2027C15.0452 30.1985 14.7963 30.1835 14.5481 30.1877H13.8035L13.057 30.2081C12.8076 30.2147 12.5606 30.2375 12.3105 30.2459C12.0605 30.2543 11.8129 30.2807 11.5635 30.2987C11.3141 30.3167 11.0658 30.3413 10.8164 30.3665C10.6923 30.3797 10.5664 30.3893 10.4429 30.4049C10.3194 30.4205 10.1953 30.4379 10.0706 30.4517C9.94586 30.4655 9.81995 30.4793 9.69584 30.4961L9.32351 30.5507C8.32743 30.6931 7.33195 30.8753 6.33707 31.0973C5.3406 31.3217 4.34831 31.5749 3.33984 31.8797Z" fill="#025ACC"/>
<path d="M23.7109 23.6037C24.4217 23.4649 25.1407 23.3723 25.8634 23.3265C26.5942 23.2749 27.3335 23.2623 28.0716 23.2827C29.5382 23.3305 30.9993 23.4847 32.4436 23.7441C33.1559 23.8731 33.8592 24.0111 34.5667 24.1857C35.2742 24.3603 35.9457 24.5457 36.5998 24.7431L38.525 25.3215C39.1516 25.5063 39.7739 25.6887 40.3837 25.8321C42.7783 26.4255 45.3637 26.5947 48.0059 26.3961C50.6482 26.1975 53.3139 25.6467 56.0323 24.9657C55.5182 25.3424 54.9739 25.6761 54.4051 25.9635C54.1167 26.1171 53.8211 26.2635 53.516 26.4039C53.3643 26.4759 53.2102 26.5431 53.0561 26.6127L52.5824 26.8071C51.2544 27.34 49.878 27.7433 48.4724 28.0113C46.9722 28.2977 45.4462 28.4266 43.9193 28.3959C42.3759 28.368 40.8404 28.1686 39.341 27.8013C38.6102 27.6255 37.9332 27.4167 37.2707 27.2013C36.6082 26.9859 35.9733 26.7585 35.3521 26.5353C34.731 26.3121 34.1224 26.0907 33.5174 25.8867C33.2141 25.7823 32.9179 25.6869 32.6025 25.5867C32.2871 25.4865 31.9802 25.3905 31.6666 25.2969C30.4141 24.9165 29.1364 24.5823 27.8198 24.2925C26.5031 24.0027 25.1433 23.7831 23.7109 23.6037Z" fill="#025ACC"/>
<path d="M5.76146 36.223C5.17809 36.2482 5.06477 36.4204 5.06477 37.051V42.1864H4.86691L1.25573 36.5992V41.1418C1.25573 41.7718 1.36904 41.944 2.03516 41.9692V42.142C1.82951 42.1246 1.45118 42.1168 1.1574 42.1168C0.86361 42.1168 0.548238 42.1246 0.359375 42.142V41.9692C0.943352 41.944 1.05667 41.7718 1.05667 41.1418V36.9628C1.05667 36.3364 0.943352 36.2482 0.359375 36.223V36.0508C0.548238 36.0676 0.867807 36.076 1.1574 36.076C1.40921 36.076 1.64005 36.0676 1.82951 36.0508L4.86511 40.7308V37.051C4.86511 36.4204 4.75599 36.2482 4.08568 36.223V36.0508C4.29133 36.0676 4.66905 36.076 4.96284 36.076C5.25663 36.076 5.572 36.0676 5.76086 36.0508L5.76146 36.223Z" fill="white"/>
<path d="M8.57427 36.223C7.9909 36.2482 7.87758 36.3364 7.87758 36.9628V40.1146C7.87758 40.8286 7.86918 41.7826 7.73068 42.3586C7.54122 43.1524 6.89909 43.762 5.9164 43.762C5.66779 43.7665 5.42151 43.7133 5.19692 43.6066C4.91572 43.4596 4.78562 43.2538 4.78562 43.0138C4.78284 42.9533 4.79263 42.8929 4.81437 42.8363C4.83611 42.7798 4.86933 42.7284 4.91193 42.6854C4.95452 42.6424 5.00557 42.6087 5.06185 42.5864C5.11813 42.5641 5.17841 42.5538 5.23889 42.556C5.50809 42.556 5.71375 42.7282 5.71375 43.0222C5.71914 43.1269 5.68522 43.2298 5.61866 43.3107C5.5521 43.3916 5.4577 43.4447 5.35401 43.4596C5.46792 43.573 5.75751 43.5982 5.90441 43.5982C6.40385 43.5982 6.78217 43.3252 6.93746 42.8668C7.05737 42.5068 7.08435 42.0868 7.08435 40.8958V36.9628C7.08435 36.3364 6.97104 36.2482 6.38706 36.223V36.0508C6.62688 36.0676 7.03819 36.076 7.48726 36.076C7.88238 36.076 8.31047 36.0676 8.57907 36.0508L8.57427 36.223Z" fill="white"/>
<path d="M14.7286 39.0497C14.7286 40.9739 13.5948 42.2687 11.9952 42.2687C10.3613 42.2687 9.26953 41.1215 9.26953 39.1487C9.26953 37.2239 10.4033 35.9297 12.0036 35.9297C13.6368 35.9315 14.7286 37.0817 14.7286 39.0497ZM10.1263 39.1169C10.1263 40.9487 10.9705 42.1127 12.0287 42.1127C13.1457 42.1127 13.8676 40.8647 13.8676 39.0833C13.8676 37.2509 13.0282 36.0869 11.97 36.0869C10.8488 36.0869 10.1263 37.3349 10.1263 39.1169Z" fill="white"/>
<path d="M20.7962 41.7154C20.5528 42.0682 20.3388 42.2662 19.8765 42.2662C19.4442 42.2662 19.1168 42.0682 18.9532 41.3332L18.7673 40.4758C18.603 39.7444 18.4771 39.253 17.7972 39.253H16.9752V41.233C16.9752 41.8588 17.0885 41.947 17.6725 41.9722V42.145C17.4075 42.1276 16.9752 42.1198 16.5807 42.1198C16.1352 42.1198 15.7197 42.1276 15.4805 42.145V41.9722C16.0638 41.947 16.1772 41.8588 16.1772 41.233V36.9628C16.1772 36.3364 16.0638 36.2482 15.4805 36.223V36.0508C15.7203 36.0676 16.152 36.076 16.5297 36.076C17.0693 36.076 17.6215 36.0592 17.8278 36.0592C19.2134 36.0592 19.9023 36.715 19.9023 37.555C19.9023 38.155 19.5281 39.0094 18.2307 39.211L18.3356 39.2278C19.1 39.3538 19.377 39.6478 19.5407 40.3624L19.7548 41.2408C19.8597 41.7406 19.9568 41.9464 20.1961 41.9464C20.4059 41.9464 20.5066 41.8204 20.6661 41.6188L20.7962 41.7154ZM17.5544 39.0808C18.7721 39.0808 19.0413 38.4418 19.0413 37.6516C19.0413 36.7516 18.6546 36.223 17.6131 36.223C17.0885 36.223 16.9752 36.37 16.9752 36.9628V39.0808H17.5544Z" fill="white"/>
<path d="M21.0514 36.0508C21.2486 36.0634 21.5724 36.0802 21.8908 36.0802C21.9621 36.0802 22.0293 36.076 22.1006 36.076C22.4951 36.0676 23.0707 36.0508 23.3981 36.0508C25.4474 36.0508 26.4343 37.1098 26.4343 39.0304C26.4343 40.9042 25.3005 42.1444 23.3225 42.1444C23.0623 42.1444 22.4873 42.1192 22.1174 42.1192C21.7145 42.1192 21.29 42.127 21.0508 42.1444V41.9716C21.6348 41.9464 21.7481 41.8582 21.7481 41.2324V36.9628C21.7481 36.3364 21.6348 36.2482 21.0508 36.223L21.0514 36.0508ZM22.5467 41.2492C22.5467 41.8492 22.66 41.9884 23.193 41.9884C25.0661 41.9884 25.5739 40.9378 25.5739 39.064C25.5739 37.135 24.9653 36.2062 23.1846 36.2062C22.66 36.2062 22.5467 36.3532 22.5467 36.946V41.2492Z" fill="white"/>
<path d="M33.9662 36.223C33.3828 36.2482 33.2695 36.3364 33.2695 36.9628V41.2324C33.2695 41.8582 33.3828 41.9464 33.9662 41.9716V42.1444C33.6976 42.127 33.2695 42.1192 32.8744 42.1192C32.4253 42.1192 32.014 42.127 31.7742 42.1444V41.9716C32.3582 41.9464 32.4673 41.8582 32.4673 41.2324V36.6268L30.3994 42.1864H30.2609L28.0917 36.5992V41.1418C28.0917 41.7718 28.205 41.944 28.8711 41.9692V42.142C28.6654 42.1246 28.2871 42.1168 27.9933 42.1168C27.6995 42.1168 27.3842 42.1246 27.1953 42.142V41.9692C27.7793 41.944 27.8926 41.7718 27.8926 41.1418V36.9628C27.8926 36.3364 27.7793 36.2482 27.1953 36.223V36.0508C27.3842 36.0676 27.7037 36.076 27.9933 36.076C28.2452 36.076 28.5395 36.0676 28.7284 36.0508L30.6176 41.0434L32.4655 36.076H32.8726C33.2677 36.076 33.6958 36.0676 33.9644 36.0508L33.9662 36.223Z" fill="white"/>
<path d="M39.2034 41.4219C39.3754 41.8587 39.6189 41.9619 39.7999 41.9721V42.1449C39.5643 42.1275 39.2034 42.1197 38.876 42.1197C38.4305 42.1197 38.0192 42.1275 37.7758 42.1449V41.9721C38.1913 41.9553 38.3844 41.8923 38.3844 41.6529C38.3748 41.5136 38.3407 41.3771 38.2836 41.2497L37.7548 39.8397H35.6803L35.3278 40.7517C35.2079 41.0517 35.1551 41.2815 35.1551 41.4579C35.1551 41.8317 35.4117 41.9619 35.9027 41.9745V42.1473C35.5754 42.1299 35.2138 42.1221 34.9117 42.1221C34.6973 42.1193 34.483 42.1277 34.2695 42.1473V41.9745C34.492 41.9241 34.7492 41.7435 34.9452 41.2269L36.9694 36.0117H37.1079L39.2034 41.4219ZM36.7302 37.0977L35.7433 39.6651H37.6919L36.7302 37.0977Z" fill="white"/>
<path d="M45.2481 41.7154C45.0047 42.0682 44.7907 42.2662 44.3284 42.2662C43.8961 42.2662 43.5682 42.0682 43.4045 41.3332L43.2156 40.4758C43.0519 39.7444 42.926 39.253 42.2455 39.253H41.4289V41.233C41.4289 41.8588 41.5422 41.947 42.1256 41.9722V42.145C41.8612 42.1276 41.4289 42.1198 41.0338 42.1198C40.5889 42.1198 40.1728 42.1276 39.9336 42.145V41.9722C40.5176 41.947 40.6309 41.8588 40.6309 41.233V36.9628C40.6309 36.3364 40.5176 36.2482 39.9336 36.223V36.0508C40.1734 36.0676 40.6057 36.076 40.9834 36.076C41.523 36.076 42.0752 36.0592 42.2809 36.0592C43.6671 36.0592 44.3554 36.715 44.3554 37.555C44.3554 38.155 43.9819 39.0094 42.6844 39.211L42.7893 39.2278C43.5532 39.3538 43.8308 39.6478 43.9945 40.3624L44.2085 41.2408C44.3134 41.7406 44.41 41.9464 44.6492 41.9464C44.8596 41.9464 44.9604 41.8204 45.1198 41.6188L45.2481 41.7154ZM42.0063 39.0808C43.224 39.0808 43.4926 38.4418 43.4926 37.6516C43.4926 36.7516 43.1065 36.223 42.0651 36.223C41.5404 36.223 41.4271 36.37 41.4271 36.9628V39.0808H42.0063Z" fill="white"/>
<path d="M47.6998 36.223C47.1158 36.2482 47.0025 36.3364 47.0025 36.9628V41.2324C47.0025 41.8582 47.1158 41.9464 47.6998 41.9716V42.1444C47.4354 42.127 47.0025 42.1192 46.608 42.1192C46.1625 42.1192 45.747 42.127 45.5078 42.1444V41.9716C46.0912 41.9464 46.2045 41.8582 46.2045 41.2324V36.9628C46.2045 36.3364 46.0912 36.2482 45.5078 36.223V36.0508C45.7476 36.0676 46.1625 36.076 46.608 36.076C47.0025 36.076 47.4354 36.0676 47.6998 36.0508V36.223Z" fill="white"/>
<path d="M53.8195 36.223C53.2355 36.2482 53.1222 36.4204 53.1222 37.051V42.1864H52.9249L49.3137 36.5992V41.1418C49.3137 41.7718 49.427 41.944 50.0932 41.9692V42.142C49.8875 42.1246 49.5098 42.1168 49.2154 42.1168C48.921 42.1168 48.6068 42.1246 48.418 42.142V41.9692C49.0013 41.944 49.1147 41.7718 49.1147 41.1418V36.9628C49.1147 36.3364 49.0013 36.2482 48.418 36.223V36.0508C48.6068 36.0676 48.9258 36.076 49.2154 36.076C49.4678 36.076 49.6986 36.0676 49.8875 36.0508L52.9237 40.7308V37.051C52.9237 36.4204 52.8146 36.2482 52.1443 36.223V36.0508C52.3499 36.0676 52.7282 36.076 53.022 36.076C53.3158 36.076 53.6306 36.0676 53.8201 36.0508L53.8195 36.223Z" fill="white"/>
<path d="M58.9251 40.4212C58.9083 40.5766 58.8999 40.8034 58.8999 41.0434C58.8999 41.2576 58.9167 41.707 58.9599 42.1444C58.3759 42.1192 57.5659 42.1192 56.9903 42.1192C56.4741 42.1192 55.3403 42.1192 54.4961 42.1444V41.9716C55.0795 41.9464 55.1928 41.8582 55.1928 41.2324V36.9628C55.1928 36.3364 55.0795 36.2482 54.4961 36.223V36.0508C55.3403 36.076 56.4747 36.076 56.9903 36.076C57.5059 36.076 58.2542 36.076 58.789 36.0508C58.747 36.454 58.729 36.8704 58.729 37.0678C58.7271 37.2459 58.7356 37.424 58.7542 37.6012H58.5558C58.4418 36.5812 58.3117 36.2482 57.4004 36.2482H56.6869C56.1029 36.2482 55.9896 36.3364 55.9896 36.9628V38.9926H56.561C57.3081 38.9926 57.2913 38.2726 57.3584 37.858H57.5563C57.5311 38.2234 57.5269 38.4712 57.5269 38.6686C57.5269 38.8288 57.5311 38.9548 57.5311 39.0808C57.5311 39.3622 57.5395 39.6478 57.5815 40.3036H57.3836C57.3165 39.7528 57.3081 39.1636 56.561 39.1636H55.9896V41.2312C55.9896 41.857 56.1029 41.9452 56.6869 41.9452H57.3165C58.3915 41.9452 58.6061 41.5588 58.7278 40.42L58.9251 40.4212Z" fill="white"/>
<path d="M42.888 6.16446V5.75946C42.2597 5.79906 41.2578 5.81946 40.3345 5.81946H39.3818L35.0601 17.4385L30.6359 5.66406H29.1076C28.6657 5.70306 27.9187 5.72406 27.2412 5.72406C26.5535 5.72406 25.6697 5.70426 25.1883 5.66406V6.06726C26.7597 6.12726 27.0151 6.52866 27.0151 8.00346V16.6135L19.9139 5.66406C19.472 5.70306 18.9318 5.72406 18.3424 5.72406C17.6649 5.72406 16.9184 5.70426 16.4766 5.66406V6.06726C17.8418 6.12726 18.1068 6.33246 18.1068 7.79706V17.5795C18.1068 19.0537 17.8418 19.4563 16.4766 19.5157V19.9183C16.9184 19.8793 17.6649 19.8583 18.3424 19.8583C19.0301 19.8583 19.9139 19.8781 20.3953 19.9183V19.5157C18.8335 19.4557 18.5684 19.0537 18.5684 17.5795V6.95166L27.0151 20.0143H27.4768C27.8995 19.9939 28.4277 19.9543 28.9212 19.9543C29.6089 19.9543 30.492 19.9675 30.9729 20.0071V19.6105C29.411 19.5505 29.146 19.1485 29.146 17.6737V7.04886L34.2153 20.1121H34.5397L39.3818 7.10826V17.8795C39.3818 19.3441 39.1264 19.5505 37.763 19.6099V20.0125C38.3229 19.9735 39.2852 19.9525 40.3363 19.9525C41.2596 19.9525 42.2615 19.9723 42.8898 20.0125V19.6099C41.5246 19.5499 41.2596 19.3441 41.2596 17.8795V7.89426C41.2578 6.42966 41.5228 6.22326 42.888 6.16446ZM28.6855 17.6743C28.6855 18.9817 28.4751 19.4455 27.4768 19.5757V8.00346C27.4768 7.05366 27.5889 6.55026 28.032 6.29526C28.559 6.47226 28.6855 6.88386 28.6855 7.89426V17.6743Z" fill="white"/>
</svg>
