<svg width="175" height="100" viewBox="0 0 175 100" fill="none" xmlns="http://www.w3.org/2000/svg">
<g clip-path="url(#clip0_411_7899)">
<path d="M58.9141 54.7578C59.3915 54.394 59.9644 54.0884 60.5493 53.8013C61.1577 53.5136 61.781 53.2583 62.4164 53.0365C63.7571 52.5763 65.1319 52.2222 66.528 51.9773C69.3872 51.468 72.3943 51.3475 75.3473 51.5076C78.2545 51.681 81.1413 52.1062 83.9751 52.7786C84.6659 52.9443 85.3599 53.1092 86.0321 53.3033C86.3709 53.3955 86.7089 53.4898 87.046 53.5863C87.3813 53.6849 87.7093 53.7916 88.0414 53.8935L89.0319 54.2048L90.0014 54.5419L91.8249 55.1887C94.1309 56.011 96.4821 56.7004 98.8668 57.2537C99.1682 57.3216 99.4719 57.3814 99.7749 57.4461C100.078 57.5108 100.378 57.5819 100.685 57.6321L101.603 57.8002C101.909 57.8617 102.218 57.8989 102.527 57.9498C103.142 58.0557 103.765 58.1252 104.385 58.2093C104.697 58.2473 105.01 58.274 105.325 58.308L105.796 58.3565L106.27 58.3929C107.533 58.498 108.81 58.5492 110.099 58.5465C111.386 58.5465 112.684 58.4996 113.993 58.3848C116.606 58.1641 119.244 57.7493 121.86 57.0103C120.96 57.7711 119.832 58.3985 118.643 58.9621C117.4 59.534 116.115 60.0105 114.8 60.3875C113.416 60.7872 112.008 61.0985 110.584 61.3197C109.857 61.4369 109.124 61.5137 108.385 61.5929L107.272 61.6738C106.9 61.7061 106.528 61.7094 106.153 61.7272L105.593 61.749C105.405 61.753 105.219 61.749 105.032 61.753C104.658 61.753 104.282 61.753 103.908 61.753C103.163 61.7272 102.41 61.7118 101.668 61.6487C100.174 61.5541 98.7052 61.3569 97.2518 61.1232C94.4359 60.6376 91.6669 59.9107 88.9754 58.9507L87.1317 58.2837L86.2704 57.9603L85.3971 57.6604C85.1062 57.5601 84.8178 57.455 84.5253 57.358C84.2328 57.2609 83.9371 57.1704 83.6439 57.0742C83.0613 56.8745 82.4635 56.7079 81.8729 56.5244C79.4747 55.808 77.0378 55.2282 74.5741 54.7877C72.0808 54.3649 69.5229 54.0714 66.8988 54.0326C64.2747 53.9938 61.5956 54.153 58.9141 54.7578Z" fill="#FF321B"/>
<path d="M52 60.6153C52.4659 60.1903 52.9715 59.8113 53.51 59.4834C54.0758 59.1291 54.6609 58.8066 55.2624 58.5172C56.5432 57.9068 57.8753 57.4103 59.2431 57.0336L59.7739 56.888C59.9524 56.8411 60.1334 56.7999 60.3127 56.7563C60.6731 56.6679 61.038 56.5892 61.4075 56.5202C61.7759 56.4498 62.1435 56.3714 62.5208 56.3229C62.8981 56.2744 63.2706 56.2048 63.6519 56.1668C64.0332 56.1288 64.4114 56.0787 64.7943 56.052L65.9448 55.976C66.3302 55.9631 66.7156 55.9574 67.1009 55.9485C67.294 55.9413 67.4863 55.9485 67.6794 55.9485L68.2579 55.9599C69.7863 56.0008 71.3097 56.1548 72.8154 56.4207L73.3721 56.5185L73.919 56.6358C74.2842 56.7166 74.6462 56.7926 75.0057 56.8783C75.7126 57.074 76.4268 57.2519 77.099 57.4928C77.44 57.6044 77.7761 57.724 78.1105 57.8421C78.445 57.9601 78.7625 58.1 79.0801 58.235C79.7329 58.4889 80.3323 58.801 80.9383 59.0969C81.2413 59.2448 81.5256 59.4122 81.8108 59.5763C82.096 59.7405 82.3764 59.9054 82.6527 60.076C83.1924 60.4261 83.707 60.7948 84.195 61.1764C83.4808 61.0147 82.807 60.8247 82.134 60.6428C81.789 60.5619 81.4537 60.4722 81.1168 60.3873C80.7799 60.3024 80.456 60.2037 80.1126 60.1326L79.1091 59.89C78.7803 59.8043 78.4442 59.734 78.1089 59.6637C77.7736 59.5933 77.444 59.5173 77.1144 59.4429C76.7847 59.3685 76.4422 59.3208 76.1117 59.2529L75.6157 59.1608C75.4541 59.1276 75.2804 59.1066 75.1139 59.0799L74.1178 58.9101C73.7841 58.8608 73.4472 58.8236 73.1168 58.7719L72.6191 58.6999L72.1174 58.6474C71.7813 58.6174 71.4516 58.5665 71.1171 58.5374L70.1145 58.4565L69.864 58.4347L69.6136 58.4218L69.1111 58.3967L68.6101 58.3676C68.4429 58.3611 68.2749 58.3603 68.1076 58.3555C67.7731 58.3498 67.4378 58.3296 67.1034 58.3353H66.0999L65.0941 58.3628C64.758 58.3717 64.4251 58.4024 64.0882 58.4137C63.7513 58.425 63.4176 58.4606 63.0815 58.4848C62.7454 58.5091 62.4109 58.5422 62.0748 58.5762C61.9076 58.594 61.7379 58.6069 61.5715 58.628C61.4051 58.649 61.2378 58.6724 61.0698 58.691C60.9017 58.7096 60.7321 58.7282 60.5648 58.7508L60.0631 58.8244C58.7209 59.0163 57.3794 59.2618 56.0388 59.561C54.696 59.8634 53.3589 60.2045 52 60.6153Z" fill="#025ACC"/>
<path d="M79.4492 49.4646C80.407 49.2775 81.3758 49.1527 82.3497 49.0911C83.3345 49.0215 84.3307 49.0046 85.3253 49.032C87.3015 49.0964 89.2705 49.3042 91.2167 49.6538C92.1765 49.8276 93.1242 50.0136 94.0775 50.2489C95.0309 50.4841 95.9358 50.734 96.8172 51L99.4114 51.7794C100.256 52.0284 101.094 52.2742 101.916 52.4674C105.143 53.267 108.627 53.495 112.187 53.2274C115.748 52.9598 119.34 52.2176 123.003 51.2999C122.31 51.8075 121.577 52.2572 120.81 52.6445C120.422 52.8515 120.023 53.0487 119.612 53.2379C119.408 53.3349 119.2 53.4255 118.992 53.5193L118.354 53.7812C116.564 54.4993 114.71 55.0427 112.816 55.4039C110.794 55.7899 108.738 55.9636 106.68 55.9222C104.601 55.8846 102.531 55.6159 100.511 55.1209C99.5262 54.884 98.614 54.6027 97.7213 54.3124C96.8285 54.0222 95.9729 53.7158 95.1359 53.415C94.2989 53.1142 93.4789 52.8159 92.6637 52.541C92.2548 52.4003 91.8557 52.2718 91.4308 52.1367C91.0058 52.0017 90.5921 51.8723 90.1696 51.7462C88.4818 51.2336 86.7601 50.7833 84.9859 50.3928C83.2117 50.0023 81.3794 49.7063 79.4492 49.4646Z" fill="#025ACC"/>
<path d="M55.2638 66.4742C54.4777 66.5082 54.325 66.7402 54.325 67.59V74.51H54.0584L49.1922 66.9812V73.1024C49.1922 73.9513 49.3449 74.1834 50.2425 74.2173V74.4502C49.9654 74.4267 49.4556 74.4162 49.0597 74.4162C48.6638 74.4162 48.2389 74.4267 47.9844 74.4502V74.2173C48.7713 74.1834 48.924 73.9513 48.924 73.1024V67.4711C48.924 66.627 48.7713 66.5082 47.9844 66.4742V66.2422C48.2389 66.2648 48.6695 66.2761 49.0597 66.2761C49.3991 66.2761 49.7101 66.2648 49.9654 66.2422L54.0559 72.5486V67.59C54.0559 66.7402 53.9089 66.5082 53.0056 66.4742V66.2422C53.2828 66.2648 53.7917 66.2761 54.1876 66.2761C54.5835 66.2761 55.0085 66.2648 55.263 66.2422L55.2638 66.4742Z" fill="white"/>
<path d="M59.0532 66.4742C58.2671 66.5082 58.1144 66.627 58.1144 67.4711V71.7182C58.1144 72.6804 58.103 73.9659 57.9164 74.7421C57.6611 75.8117 56.7958 76.6332 55.4716 76.6332C55.1366 76.6393 54.8048 76.5676 54.5021 76.4238C54.1232 76.2257 53.9479 75.9484 53.9479 75.625C53.9441 75.5434 53.9573 75.462 53.9866 75.3859C54.0159 75.3097 54.0607 75.2404 54.1181 75.1825C54.1755 75.1245 54.2443 75.0791 54.3201 75.049C54.396 75.019 54.4772 75.0051 54.5587 75.0081C54.9214 75.0081 55.1986 75.2401 55.1986 75.6363C55.2058 75.7773 55.1601 75.916 55.0704 76.0251C54.9807 76.1341 54.8535 76.2057 54.7138 76.2257C54.8673 76.3785 55.2575 76.4124 55.4555 76.4124C56.1285 76.4124 56.6383 76.0446 56.8475 75.4269C57.0091 74.9418 57.0455 74.3758 57.0455 72.7709V67.4711C57.0455 66.627 56.8928 66.5082 56.1059 66.4742V66.2422C56.429 66.2648 56.9833 66.2761 57.5884 66.2761C58.1208 66.2761 58.6977 66.2648 59.0596 66.2422L59.0532 66.4742Z" fill="white"/>
<path d="M67.3444 70.2785C67.3444 72.8714 65.8167 74.6161 63.6611 74.6161C61.4595 74.6161 59.9883 73.0703 59.9883 70.4119C59.9883 67.8182 61.5161 66.0742 63.6724 66.0742C65.8732 66.0766 67.3444 67.6266 67.3444 70.2785ZM61.1428 70.369C61.1428 72.8374 62.2804 74.4059 63.7064 74.4059C65.2115 74.4059 66.1843 72.7242 66.1843 70.3238C66.1843 67.8546 65.0532 66.286 63.6272 66.286C62.1164 66.286 61.1428 67.9678 61.1428 70.369Z" fill="white"/>
<path d="M75.5224 73.8753C75.1944 74.3507 74.906 74.6176 74.2831 74.6176C73.7006 74.6176 73.2594 74.3507 73.0389 73.3603L72.7884 72.205C72.5671 71.2194 72.3974 70.5572 71.4812 70.5572H70.3735V73.2253C70.3735 74.0686 70.5262 74.1874 71.3132 74.2214V74.4542C70.956 74.4308 70.3735 74.4203 69.8419 74.4203C69.2416 74.4203 68.6817 74.4308 68.3594 74.4542V74.2214C69.1455 74.1874 69.2982 74.0686 69.2982 73.2253V67.4711C69.2982 66.627 69.1455 66.5082 68.3594 66.4742V66.2422C68.6825 66.2648 69.2643 66.2761 69.7732 66.2761C70.5004 66.2761 71.2445 66.2535 71.5224 66.2535C73.3895 66.2535 74.3178 67.1372 74.3178 68.2691C74.3178 69.0776 73.8137 70.229 72.0653 70.5006L72.2067 70.5233C73.2368 70.693 73.6101 71.0892 73.8306 72.0521L74.1191 73.2358C74.2605 73.9093 74.3913 74.1866 74.7137 74.1866C74.9965 74.1866 75.1322 74.0168 75.3471 73.7452L75.5224 73.8753ZM71.154 70.3252C72.7949 70.3252 73.1576 69.4641 73.1576 68.3993C73.1576 67.1865 72.6365 66.4742 71.2332 66.4742C70.5262 66.4742 70.3735 66.6723 70.3735 67.4711V70.3252H71.154Z" fill="white"/>
<path d="M75.868 66.2422C76.1338 66.2592 76.5701 66.2818 76.9991 66.2818C77.0952 66.2818 77.1857 66.2761 77.2819 66.2761C77.8135 66.2648 78.5891 66.2422 79.0302 66.2422C81.7917 66.2422 83.1216 67.6692 83.1216 70.2573C83.1216 72.7822 81.5938 74.4534 78.9284 74.4534C78.5778 74.4534 77.803 74.4195 77.3045 74.4195C76.7616 74.4195 76.1895 74.43 75.8672 74.4534V74.2206C76.6541 74.1866 76.8068 74.0678 76.8068 73.2245V67.4711C76.8068 66.627 76.6541 66.5082 75.8672 66.4742L75.868 66.2422ZM77.883 73.2471C77.883 74.0556 78.0357 74.2432 78.7539 74.2432C81.2779 74.2432 81.9622 72.8275 81.9622 70.3025C81.9622 67.7032 81.1421 66.4516 78.7426 66.4516C78.0357 66.4516 77.883 66.6497 77.883 67.4485V73.2471Z" fill="white"/>
<path d="M93.2684 66.4742C92.4823 66.5082 92.3296 66.627 92.3296 67.4711V73.2245C92.3296 74.0678 92.4823 74.1866 93.2684 74.2206V74.4534C92.9065 74.43 92.3296 74.4195 91.7972 74.4195C91.1921 74.4195 90.6378 74.43 90.3147 74.4534V74.2206C91.1016 74.1866 91.2486 74.0678 91.2486 73.2245V67.0184L88.4621 74.51H88.2755L85.3524 66.9812V73.1024C85.3524 73.9513 85.5051 74.1834 86.4027 74.2173V74.4502C86.1256 74.4267 85.6158 74.4162 85.2199 74.4162C84.824 74.4162 84.399 74.4267 84.1445 74.4502V74.2173C84.9315 74.1834 85.0841 73.9513 85.0841 73.1024V67.4711C85.0841 66.627 84.9315 66.5082 84.1445 66.4742V66.2422C84.399 66.2648 84.8297 66.2761 85.2199 66.2761C85.5592 66.2761 85.9559 66.2648 86.2104 66.2422L88.7562 72.9698L91.2462 66.2761H91.7948C92.3272 66.2761 92.9041 66.2648 93.266 66.2422L93.2684 66.4742Z" fill="white"/>
<path d="M100.326 73.4778C100.558 74.0664 100.886 74.2055 101.13 74.2192V74.4521C100.813 74.4286 100.326 74.4181 99.885 74.4181C99.2847 74.4181 98.7305 74.4286 98.4025 74.4521V74.2192C98.9624 74.1966 99.2225 74.1117 99.2225 73.7891C99.2097 73.6014 99.1637 73.4175 99.0868 73.2458L98.3742 71.3458H95.5788L95.1037 72.5747C94.9421 72.979 94.871 73.2886 94.871 73.5263C94.871 74.03 95.2168 74.2055 95.8785 74.2225V74.4553C95.4374 74.4319 94.9502 74.4214 94.543 74.4214C94.2542 74.4176 93.9654 74.4289 93.6777 74.4553V74.2225C93.9775 74.1546 94.3241 73.9112 94.5883 73.2151L97.3158 66.1875H97.5025L100.326 73.4778ZM96.9935 67.6509L95.6636 71.1105H98.2894L96.9935 67.6509Z" fill="white"/>
<path d="M108.474 73.8753C108.146 74.3507 107.858 74.6175 107.235 74.6175C106.652 74.6175 106.21 74.3507 105.99 73.3603L105.735 72.205C105.515 71.2194 105.345 70.5572 104.428 70.5572H103.327V73.2253C103.327 74.0686 103.48 74.1874 104.266 74.2214V74.4542C103.91 74.4308 103.327 74.4203 102.795 74.4203C102.196 74.4203 101.635 74.4308 101.312 74.4542V74.2214C102.099 74.1874 102.252 74.0686 102.252 73.2253V67.4711C102.252 66.627 102.099 66.5082 101.312 66.4742V66.2422C101.636 66.2648 102.218 66.2761 102.727 66.2761C103.454 66.2761 104.198 66.2535 104.476 66.2535C106.343 66.2535 107.271 67.1372 107.271 68.2691C107.271 69.0776 106.768 70.229 105.019 70.5006L105.161 70.5233C106.19 70.693 106.564 71.0892 106.785 72.0521L107.073 73.2358C107.214 73.9093 107.344 74.1866 107.667 74.1866C107.95 74.1866 108.086 74.0168 108.301 73.7452L108.474 73.8753ZM104.106 70.3252C105.746 70.3252 106.108 69.4641 106.108 68.3993C106.108 67.1865 105.588 66.4742 104.185 66.4742C103.478 66.4742 103.325 66.6723 103.325 67.4711V70.3252H104.106Z" fill="white"/>
<path d="M111.774 66.4742C110.987 66.5082 110.834 66.627 110.834 67.4711V73.2245C110.834 74.0678 110.987 74.1866 111.774 74.2206V74.4534C111.418 74.43 110.834 74.4195 110.303 74.4195C109.703 74.4195 109.143 74.43 108.82 74.4534V74.2206C109.606 74.1866 109.759 74.0678 109.759 73.2245V67.4711C109.759 66.627 109.606 66.5082 108.82 66.4742V66.2422C109.143 66.2648 109.703 66.2761 110.303 66.2761C110.834 66.2761 111.418 66.2648 111.774 66.2422V66.4742Z" fill="white"/>
<path d="M120.025 66.4742C119.238 66.5082 119.085 66.7402 119.085 67.59V74.51H118.819L113.953 66.9812V73.1024C113.953 73.9513 114.106 74.1834 115.003 74.2173V74.4502C114.726 74.4267 114.217 74.4162 113.821 74.4162C113.424 74.4162 113.001 74.4267 112.746 74.4502V74.2173C113.532 74.1834 113.685 73.9513 113.685 73.1024V67.4711C113.685 66.627 113.532 66.5082 112.746 66.4742V66.2422C113.001 66.2648 113.43 66.2761 113.821 66.2761C114.161 66.2761 114.472 66.2648 114.726 66.2422L118.818 72.5486V67.59C118.818 66.7402 118.671 66.5082 117.767 66.4742V66.2422C118.044 66.2648 118.554 66.2761 118.95 66.2761C119.346 66.2761 119.77 66.2648 120.026 66.2422L120.025 66.4742Z" fill="white"/>
<path d="M126.9 72.1314C126.877 72.3408 126.866 72.6464 126.866 72.9698C126.866 73.2584 126.888 73.864 126.947 74.4534C126.16 74.4195 125.068 74.4195 124.293 74.4195C123.597 74.4195 122.069 74.4195 120.932 74.4534V74.2206C121.718 74.1866 121.87 74.0678 121.87 73.2245V67.4711C121.87 66.627 121.718 66.5082 120.932 66.4742V66.2422C122.069 66.2761 123.598 66.2761 124.293 66.2761C124.987 66.2761 125.996 66.2761 126.716 66.2422C126.66 66.7855 126.636 67.3466 126.636 67.6126C126.633 67.8527 126.644 68.0926 126.67 68.3314H126.402C126.249 66.9569 126.073 66.5082 124.845 66.5082H123.884C123.097 66.5082 122.944 66.627 122.944 67.4711V70.2063H123.714C124.721 70.2063 124.698 69.2361 124.789 68.6774H125.055C125.021 69.1698 125.016 69.5037 125.016 69.7697C125.016 69.9856 125.021 70.1554 125.021 70.3252C125.021 70.7044 125.033 71.0892 125.089 71.9729H124.823C124.732 71.2307 124.721 70.4367 123.714 70.4367H122.944V73.2229C122.944 74.0661 123.097 74.185 123.884 74.185H124.732C126.181 74.185 126.47 73.6643 126.634 72.1298L126.9 72.1314Z" fill="white"/>
<path d="M105.295 25.9673V25.4215C104.448 25.4749 103.098 25.5024 101.854 25.5024H100.57L94.7467 41.1592L88.7851 25.293H86.7257C86.1302 25.3455 85.1235 25.3738 84.2106 25.3738C83.2839 25.3738 82.093 25.3471 81.4442 25.293V25.8363C83.5618 25.9171 83.906 26.458 83.906 28.4454V40.0475L74.3369 25.293C73.7415 25.3455 73.0135 25.3738 72.2193 25.3738C71.3064 25.3738 70.3005 25.3471 69.7051 25.293V25.8363C71.5447 25.9171 71.9018 26.1936 71.9018 28.1672V41.3492C71.9018 43.3357 71.5447 43.8782 69.7051 43.9582V44.5008C70.3005 44.4482 71.3064 44.4199 72.2193 44.4199C73.146 44.4199 74.3369 44.4466 74.9857 44.5008V43.9582C72.881 43.8774 72.5239 43.3357 72.5239 41.3492V27.028L83.906 44.6301H84.5281C85.0977 44.6026 85.8095 44.5493 86.4744 44.5493C87.4011 44.5493 88.5912 44.5671 89.2391 44.6204V44.086C87.1345 44.0051 86.7774 43.4634 86.7774 41.4761V27.159L93.6084 44.7619H94.0455L100.57 27.2391V41.7534C100.57 43.727 100.226 44.0051 98.3889 44.0852V44.6277C99.1435 44.5751 100.44 44.5468 101.856 44.5468C103.101 44.5468 104.451 44.5735 105.297 44.6277V44.0852C103.458 44.0043 103.101 43.727 103.101 41.7534V28.2982C103.098 26.3246 103.455 26.0465 105.295 25.9673ZM86.1569 41.4769C86.1569 43.2387 85.8733 43.8636 84.5281 44.0391V28.4454C84.5281 27.1655 84.6792 26.4871 85.2762 26.1435C85.9864 26.382 86.1569 26.9367 86.1569 28.2982V41.4769Z" fill="white"/>
</g>
<defs>
<clipPath id="clip0_411_7899">
<rect width="80" height="64.6809" fill="white" transform="translate(47.5 17.6602)"/>
</clipPath>
</defs>
</svg>
