<svg width="28" height="28" viewBox="0 0 28 28" fill="none" xmlns="http://www.w3.org/2000/svg">
<rect width="28" height="28" rx="14" fill="#D6E7FF"/>
<path d="M22.3327 13.9987C22.3327 17.1414 22.3327 18.7127 21.3564 19.6891C20.3801 20.6654 18.8087 20.6654 15.666 20.6654H12.3327C9.18999 20.6654 7.61864 20.6654 6.64233 19.6891C5.66602 18.7127 5.66602 17.1414 5.66602 13.9987C5.66602 10.856 5.66602 9.28465 6.64233 8.30834C7.61864 7.33203 9.18999 7.33203 12.3327 7.33203H15.666C18.8087 7.33203 20.3801 7.33203 21.3564 8.30834C21.9007 8.85266 22.1415 9.58194 22.2481 10.6654" stroke="#FF321B" stroke-width="1.5" stroke-linecap="round"/>
<path d="M19 10.668L17.2009 12.1672C15.6704 13.4426 14.9051 14.0804 14 14.0804C13.4589 14.0804 12.9678 13.8525 12.3333 13.3967M9 10.668L9.75 11.293L10.5 11.918" stroke="#FF321B" stroke-width="1.5" stroke-linecap="round"/>
</svg>
