<svg width="92" height="92" viewBox="0 0 92 92" fill="none" xmlns="http://www.w3.org/2000/svg">
<path fill-rule="evenodd" clip-rule="evenodd" d="M22.802 4.79297L71.065 4.79298C73.6317 4.79291 75.7735 4.79286 77.5074 4.96925C79.3224 5.15388 81.0066 5.55528 82.5246 6.56957C83.6757 7.33867 84.664 8.32696 85.4331 9.47802C86.4473 10.996 86.8487 12.6802 87.0334 14.4952C87.2098 16.2292 87.2097 18.371 87.2096 20.9378V21.2315C87.2097 23.7983 87.2098 25.9401 87.0334 27.6741C86.8487 29.489 86.4473 31.1733 85.433 32.6913C84.664 33.8423 83.6757 34.8306 82.5246 35.5997C81.0066 36.614 79.3224 37.0154 77.5074 37.2C75.7735 37.3764 73.6317 37.3764 71.0649 37.3763L61.3346 37.3763C59.7468 37.3763 58.4596 36.0891 58.4596 34.5013C58.4596 32.9135 59.7468 31.6263 61.3346 31.6263H70.918C73.6697 31.6263 75.5171 31.6228 76.9255 31.4796C78.2858 31.3412 78.9144 31.0966 79.3301 30.8188C79.8533 30.4692 80.3025 30.02 80.6521 29.4968C80.9299 29.081 81.1745 28.4525 81.3129 27.0921C81.4562 25.6838 81.4596 23.8364 81.4596 21.0846C81.4596 18.3329 81.4562 16.4855 81.3129 15.0772C81.1745 13.7168 80.9299 13.0883 80.6521 12.6725C80.3025 12.1493 79.8533 11.7001 79.3301 11.3505C78.9144 11.0727 78.2858 10.8281 76.9255 10.6897C75.5171 10.5465 73.6697 10.543 70.918 10.543H23.0013C19.3059 10.543 16.8236 10.5491 14.972 10.798C13.203 11.0359 12.446 11.4469 11.9464 11.9464C11.4469 12.446 11.0359 13.203 10.798 14.972C10.5491 16.8236 10.543 19.3059 10.543 23.0013V70.918C10.543 73.6697 10.5465 75.5171 10.6897 76.9255C10.8281 78.2858 11.0727 78.9144 11.3505 79.3301C11.7001 79.8533 12.1493 80.3025 12.6725 80.6521C13.0883 80.9299 13.7168 81.1745 15.0772 81.3129C16.4855 81.4562 18.3329 81.4596 21.0846 81.4596C23.8364 81.4596 25.6838 81.4562 27.0921 81.3129C28.4525 81.1745 29.081 80.9299 29.4967 80.6521C30.0199 80.3025 30.4692 79.8533 30.8188 79.3301C31.0966 78.9144 31.3412 78.2858 31.4796 76.9255C31.6228 75.5171 31.6263 73.6697 31.6263 70.918V42.168C31.6263 42.1106 31.6263 42.0535 31.6263 41.9965C31.6261 40.3373 31.6259 38.8161 31.7923 37.5787C31.9755 36.216 32.4065 34.7757 33.5911 33.5911C34.7757 32.4065 36.216 31.9755 37.5787 31.7923C38.8161 31.6259 40.3373 31.6261 41.9965 31.6263C42.0535 31.6263 42.1106 31.6263 42.168 31.6263H46.0013C47.5891 31.6263 48.8763 32.9135 48.8763 34.5013C48.8763 36.0891 47.5891 37.3763 46.0013 37.3763H42.168C40.2796 37.3763 39.1526 37.3824 38.3449 37.491C37.9747 37.5408 37.7893 37.5994 37.7058 37.6338C37.6865 37.6417 37.6738 37.6479 37.6664 37.6518L37.6571 37.6571L37.6518 37.6664C37.6479 37.6738 37.6417 37.6865 37.6338 37.7058C37.5994 37.7893 37.5408 37.9747 37.491 38.3449C37.3824 39.1526 37.3763 40.2796 37.3763 42.168L37.3763 71.0649C37.3764 73.6317 37.3764 75.7735 37.2 77.5074C37.0154 79.3224 36.614 81.0066 35.5997 82.5246C34.8306 83.6757 33.8423 84.664 32.6913 85.4331C31.1733 86.4473 29.489 86.8487 27.6741 87.0334C25.9401 87.2098 23.7983 87.2097 21.2315 87.2096H20.9378C18.371 87.2097 16.2292 87.2098 14.4952 87.0334C12.6802 86.8487 10.996 86.4473 9.47802 85.4331C8.32696 84.664 7.33867 83.6757 6.56957 82.5246C5.55528 81.0066 5.15388 79.3224 4.96925 77.5074C4.79286 75.7735 4.79291 73.6317 4.79298 71.065L4.79297 22.802C4.79286 19.3578 4.79277 16.4858 5.0993 14.2058C5.42286 11.7993 6.13459 9.62653 7.88056 7.88056C9.62653 6.13459 11.7993 5.42286 14.2058 5.0993C16.4858 4.79277 19.3578 4.79286 22.802 4.79297Z" fill="#223E7F"/>
<path fill-rule="evenodd" clip-rule="evenodd" d="M69 4.79297C70.5878 4.79297 71.875 6.08015 71.875 7.66797L71.875 15.3346C71.875 16.9225 70.5878 18.2096 69 18.2096C67.4122 18.2096 66.125 16.9225 66.125 15.3346L66.125 7.66797C66.125 6.08015 67.4122 4.79297 69 4.79297ZM54.625 19.168L54.625 7.66797C54.625 6.08015 55.9122 4.79297 57.5 4.79297C59.0878 4.79297 60.375 6.08015 60.375 7.66797L60.375 19.168C60.375 20.7558 59.0878 22.043 57.5 22.043C55.9122 22.043 54.625 20.7558 54.625 19.168ZM46 4.79297C47.5878 4.79297 48.875 6.08015 48.875 7.66797L48.875 15.3346C48.875 16.9225 47.5878 18.2096 46 18.2096C44.4122 18.2096 43.125 16.9225 43.125 15.3346L43.125 7.66797C43.125 6.08015 44.4122 4.79297 46 4.79297ZM34.5 4.79297C36.0878 4.79297 37.375 6.08015 37.375 7.66797L37.375 19.168C37.375 20.7558 36.0878 22.043 34.5 22.043C32.9122 22.043 31.625 20.7558 31.625 19.168L31.625 7.66797C31.625 6.08015 32.9122 4.79297 34.5 4.79297Z" fill="#223E7F"/>
<path fill-rule="evenodd" clip-rule="evenodd" d="M19.168 37.375L7.66797 37.375C6.08015 37.375 4.79297 36.0878 4.79297 34.5C4.79297 32.9122 6.08015 31.625 7.66797 31.625L19.168 31.625C20.7558 31.625 22.043 32.9122 22.043 34.5C22.043 36.0878 20.7558 37.375 19.168 37.375ZM4.79297 46C4.79297 44.4122 6.08015 43.125 7.66797 43.125H15.3346C16.9225 43.125 18.2096 44.4122 18.2096 46C18.2096 47.5878 16.9225 48.875 15.3346 48.875H7.66797C6.08015 48.875 4.79297 47.5878 4.79297 46ZM4.79297 57.5C4.79297 55.9122 6.08015 54.625 7.66797 54.625L19.168 54.625C20.7558 54.625 22.043 55.9122 22.043 57.5C22.043 59.0878 20.7558 60.375 19.168 60.375L7.66797 60.375C6.08015 60.375 4.79297 59.0878 4.79297 57.5ZM4.79297 69C4.79297 67.4122 6.08015 66.125 7.66797 66.125H15.3346C16.9225 66.125 18.2096 67.4122 18.2096 69C18.2096 70.5878 16.9225 71.875 15.3346 71.875H7.66797C6.08015 71.875 4.79297 70.5878 4.79297 69Z" fill="#223E7F"/>
</svg>
