<svg width="92" height="92" viewBox="0 0 92 92" fill="none" xmlns="http://www.w3.org/2000/svg">
<path fill-rule="evenodd" clip-rule="evenodd" d="M68.885 68.885C70.0078 67.7623 71.8281 67.7623 72.9509 68.885L86.3676 82.3017C87.4903 83.4245 87.4903 85.2448 86.3676 86.3676C85.2448 87.4903 83.4245 87.4903 82.3017 86.3676L68.885 72.9509C67.7623 71.8281 67.7623 70.0078 68.885 68.885Z" fill="#223E7F"/>
<path fill-rule="evenodd" clip-rule="evenodd" d="M44.0846 10.543C37.9705 10.543 32.2465 12.1763 27.3159 15.0285C25.9415 15.8235 24.1827 15.3539 23.3877 13.9795C22.5926 12.605 23.0623 10.8463 24.4367 10.0513C30.2189 6.70643 36.9327 4.79297 44.0846 4.79297C65.7848 4.79297 83.3763 22.3844 83.3763 44.0846C83.3763 65.7848 65.7848 83.3763 44.0846 83.3763C22.3844 83.3763 4.79297 65.7848 4.79297 44.0846C4.79297 36.9327 6.70643 30.2189 10.0513 24.4367C10.8463 23.0623 12.605 22.5926 13.9795 23.3877C15.3539 24.1827 15.8235 25.9415 15.0285 27.3159C12.1763 32.2465 10.543 37.9705 10.543 44.0846C10.543 62.6092 25.5601 77.6263 44.0846 77.6263C62.6092 77.6263 77.6263 62.6092 77.6263 44.0846C77.6263 25.5601 62.6092 10.543 44.0846 10.543Z" fill="#223E7F"/>
</svg>
