<svg width="92" height="92" viewBox="0 0 92 92" fill="none" xmlns="http://www.w3.org/2000/svg">
<path fill-rule="evenodd" clip-rule="evenodd" d="M69.4338 27.0067C73.5 22.9405 80.0926 22.9405 84.1588 27.0067C88.225 31.0729 88.225 37.6655 84.1588 41.7316L66.0499 59.8405C66.0094 59.881 65.9694 59.921 65.93 59.9605C64.9383 60.9524 64.2674 61.6235 63.5159 62.2096C62.6318 62.8992 61.6753 63.4903 60.6632 63.9727C59.8028 64.3827 58.9025 64.6827 57.5718 65.1261L49.5846 67.7885C47.8211 68.3763 45.8769 67.9173 44.5625 66.6029C43.2481 65.2885 42.7892 63.3443 43.377 61.5808L43.8894 60.0435L45.9858 53.7544C46.0039 53.7001 46.0217 53.6466 46.0394 53.5936C46.4827 52.2629 46.7827 51.3626 47.1927 50.5023C47.6751 49.4902 48.2663 48.5336 48.9558 47.6495C49.542 46.898 50.2131 46.2271 51.205 45.2354C51.2445 45.196 51.2844 45.156 51.3249 45.1156L69.4338 27.0067ZM80.0929 31.0725C78.2722 29.2519 75.3203 29.2519 73.4997 31.0725L72.8028 31.7694C72.8406 31.8977 72.884 32.0342 72.9338 32.1777C73.2944 33.217 73.9786 34.5917 75.2762 35.8893C76.5737 37.1868 77.9484 37.8711 78.9877 38.2317C79.1312 38.2814 79.2677 38.3248 79.3961 38.3626L80.0929 37.6658C81.9136 35.8451 81.9136 32.8932 80.0929 31.0725ZM75.0047 42.754C73.7862 42.1139 72.4704 41.2152 71.2103 39.9551C69.9502 38.695 69.0515 37.3793 68.4115 36.1607L55.3908 49.1814C54.2366 50.3356 53.8317 50.7475 53.4898 51.1859C53.0571 51.7407 52.6861 52.3409 52.3834 52.976C52.1442 53.4779 51.9568 54.0243 51.4407 55.5728L49.9062 60.1762L50.9893 61.2592L55.5927 59.7247C57.1411 59.2086 57.6875 59.0212 58.1894 58.782C58.8245 58.4794 59.4248 58.1084 59.9795 57.6757C60.4179 57.3338 60.8299 56.9288 61.984 55.7747L75.0047 42.754Z" fill="#223E7F"/>
<path fill-rule="evenodd" clip-rule="evenodd" d="M27.793 49.832C27.793 48.2442 29.0802 46.957 30.668 46.957H40.2513C41.8391 46.957 43.1263 48.2442 43.1263 49.832C43.1263 51.4198 41.8391 52.707 40.2513 52.707H30.668C29.0802 52.707 27.793 51.4198 27.793 49.832Z" fill="#223E7F"/>
<path fill-rule="evenodd" clip-rule="evenodd" d="M27.793 34.5C27.793 32.9122 29.0802 31.625 30.668 31.625H55.5846C57.1725 31.625 58.4596 32.9122 58.4596 34.5C58.4596 36.0878 57.1725 37.375 55.5846 37.375H30.668C29.0802 37.375 27.793 36.0878 27.793 34.5Z" fill="#223E7F"/>
<path fill-rule="evenodd" clip-rule="evenodd" d="M27.793 65.168C27.793 63.5801 29.0802 62.293 30.668 62.293H36.418C38.0058 62.293 39.293 63.5801 39.293 65.168C39.293 66.7558 38.0058 68.043 36.418 68.043H30.668C29.0802 68.043 27.793 66.7558 27.793 65.168Z" fill="#223E7F"/>
<path fill-rule="evenodd" clip-rule="evenodd" d="M41.9504 4.79297H50.0496C57.0943 4.79291 62.6743 4.79286 67.0413 5.37999C71.5355 5.98423 75.1732 7.25735 78.0419 10.1261C79.1647 11.2488 79.1647 13.0692 78.0419 14.1919C76.9191 15.3147 75.0988 15.3147 73.976 14.1919C72.3537 12.5696 70.1318 11.5972 66.2751 11.0787C62.3357 10.5491 57.1428 10.543 49.8333 10.543H42.1667C34.8572 10.543 29.6643 10.5491 25.7249 11.0787C21.8682 11.5972 19.6463 12.5696 18.024 14.1919C16.4017 15.8142 15.4293 18.0362 14.9107 21.8929C14.3811 25.8323 14.375 31.0252 14.375 38.3346V53.668C14.375 55.2558 13.0878 56.543 11.5 56.543C9.91218 56.543 8.625 55.2558 8.625 53.668L8.625 38.1184C8.62494 31.0736 8.62489 25.4937 9.21202 21.1267C9.81626 16.6324 11.0894 12.9948 13.9581 10.1261C16.8268 7.25735 20.4645 5.98423 24.9587 5.37999C29.3257 4.79286 34.9057 4.79291 41.9504 4.79297ZM80.5 50.793C82.0878 50.793 83.375 52.0802 83.375 53.668V53.8842C83.375 56.9014 83.3751 59.6499 83.3289 62.1495C83.251 66.5133 83.0448 70.2738 82.3321 73.4963C81.604 76.809 80.3309 79.5875 78.0419 81.8765C75.1732 84.7453 71.5355 86.0184 67.0413 86.6226C62.6743 87.2097 57.0943 87.2097 50.0496 87.2096H41.9504C34.9057 87.2097 29.3257 87.2097 24.9587 86.6226C20.4645 86.0184 16.8268 84.7453 13.9581 81.8765C12.8353 80.7538 12.8353 78.9334 13.9581 77.8107C15.0809 76.6879 16.9012 76.6879 18.024 77.8107C19.6463 79.433 21.8682 80.4054 25.7249 80.9239C29.6643 81.4535 34.8572 81.4596 42.1667 81.4596H49.8333C57.1428 81.4596 62.3357 81.4535 66.2751 80.9239C70.1318 80.4054 72.3537 79.433 73.976 77.8107C74.0418 77.7449 74.1064 77.6782 74.17 77.6105C75.3582 76.3446 76.1787 74.7113 76.7164 72.2617C77.2488 69.8163 77.4932 66.5768 77.5785 62.1017C77.6238 59.6459 77.625 56.8586 77.625 53.668C77.625 52.0802 78.9122 50.793 80.5 50.793Z" fill="#223E7F"/>
</svg>
