<svg width="92" height="92" viewBox="0 0 92 92" fill="none" xmlns="http://www.w3.org/2000/svg">
<path fill-rule="evenodd" clip-rule="evenodd" d="M46.0004 1.10156C47.3765 1.10156 48.492 2.21712 48.492 3.59323V5.0013C58.9232 6.10099 67.1599 14.5619 67.9114 25.0931H68.9211C70.2972 25.0931 71.4128 26.2086 71.4128 27.5847C71.4128 28.9609 70.2972 30.0764 68.9211 30.0764H67.3526C67.5389 31.1996 67.6356 32.3516 67.6356 33.5245C67.6356 41.398 63.3012 48.2412 56.8788 51.9222C64.6432 55.0421 70.7888 61.3799 73.7286 69.1754C74.2142 70.463 73.564 71.9004 72.2764 72.386C70.9888 72.8716 69.5514 72.2214 69.0658 70.9338C65.54 61.5844 56.5188 54.8055 46.0004 54.8055C32.3909 54.8055 21.3583 65.8381 21.3583 79.4476V85.9141H73.1343C74.5104 85.9141 75.6259 87.0296 75.6259 88.4057C75.6259 89.7818 74.5104 90.8974 73.1343 90.8974H18.8667C17.4906 90.8974 16.375 89.7818 16.375 88.4057V79.4476C16.375 66.9418 24.1237 56.2459 35.0818 51.8991C28.6819 48.2129 24.3656 41.3823 24.3652 33.5258C24.3642 32.3682 24.4591 31.2145 24.6481 30.0764H23.0796C21.7035 30.0764 20.588 28.9609 20.588 27.5847C20.588 26.2086 21.7035 25.0931 23.0796 25.0931H24.0894C24.8408 14.5619 33.0775 6.10098 43.5087 5.0013V3.59323C43.5087 2.21712 44.6243 1.10156 46.0004 1.10156ZM43.5087 10.0211C35.8334 11.0768 29.8115 17.3162 29.0895 25.0931H43.5087V10.0211ZM48.492 25.0931H62.9113C62.1892 17.3162 56.1674 11.0768 48.492 10.0211V25.0931ZM29.7217 30.0764C29.4729 31.2064 29.3474 32.3617 29.3485 33.5222L29.3485 33.5245C29.3485 42.4818 36.7598 49.8222 46.0004 49.8222C55.241 49.8222 62.6523 42.4818 62.6523 33.5245C62.6523 32.3397 62.5235 31.1864 62.2793 30.0764H29.7217ZM24.3652 33.5258C24.3652 33.5254 24.3652 33.5249 24.3652 33.5245H26.8568L24.3652 33.5268C24.3652 33.5265 24.3652 33.5261 24.3652 33.5258Z" fill="#223E7F"/>
</svg>
