<svg width="92" height="92" viewBox="0 0 92 92" fill="none" xmlns="http://www.w3.org/2000/svg">
<path fill-rule="evenodd" clip-rule="evenodd" d="M61.134 4.79297L69.1994 4.79298C72.6435 4.79286 75.5155 4.79277 77.7955 5.09931C80.2021 5.42286 82.3748 6.13459 84.1208 7.88056C85.8667 9.62653 86.5785 11.7993 86.902 14.2058C87.2086 16.4858 87.2085 19.3578 87.2083 22.8019L87.2083 26.8346C87.2083 28.4225 85.9212 29.7096 84.3333 29.7096C82.7455 29.7096 81.4583 28.4225 81.4583 26.8346V23.0013C81.4583 19.3059 81.4522 16.8236 81.2033 14.972C80.9655 13.203 80.5544 12.446 80.0549 11.9464C79.5554 11.4469 78.7983 11.0359 77.0293 10.798C75.1777 10.5491 72.6954 10.543 69 10.543L61.3333 10.543C57.638 10.543 55.1557 10.5491 53.304 10.798C51.5351 11.0359 50.778 11.4469 50.2785 11.9464C49.7789 12.446 49.3679 13.203 49.1301 14.972C48.8811 16.8236 48.875 19.3059 48.875 23.0013L48.875 69.0013C48.875 72.6967 48.8811 75.179 49.1301 77.0306C49.3679 78.7996 49.7789 79.5566 50.2785 80.0562C50.778 80.5557 51.5351 80.9668 53.304 81.2046C55.1557 81.4535 57.638 81.4596 61.3333 81.4596H69C72.6954 81.4596 75.1777 81.4535 77.0293 81.2046C78.7983 80.9668 79.5554 80.5557 80.0549 80.0562C80.5544 79.5566 80.9655 78.7996 81.2033 77.0306C81.4522 75.179 81.4583 72.6967 81.4583 69.0013V42.168C81.4583 40.5802 82.7455 39.293 84.3333 39.293C85.9212 39.293 87.2083 40.5802 87.2083 42.168L87.2083 69.2007C87.2085 72.6449 87.2086 75.5168 86.902 77.7968C86.5785 80.2033 85.8667 82.3761 84.1208 84.1221C82.3748 85.868 80.2021 86.5798 77.7955 86.9033C75.5155 87.2099 72.6435 87.2098 69.1993 87.2096H61.134C57.6899 87.2098 54.8178 87.2099 52.5378 86.9033C50.1313 86.5798 47.9586 85.868 46.2126 84.1221C44.4666 82.3761 43.7549 80.2033 43.4313 77.7968C43.1248 75.5168 43.1249 72.6448 43.125 69.2006L43.125 22.802C43.1249 19.3578 43.1248 16.4858 43.4313 14.2058C43.7549 11.7993 44.4666 9.62653 46.2126 7.88056C47.9586 6.1346 50.1313 5.42286 52.5378 5.09931C54.8178 4.79277 57.6899 4.79286 61.134 4.79297Z" fill="#223E7F"/>
<path fill-rule="evenodd" clip-rule="evenodd" d="M43.125 23C43.125 21.4122 44.4122 20.125 46 20.125L53.6667 20.125C55.2545 20.125 56.5417 21.4122 56.5417 23C56.5417 24.5878 55.2545 25.875 53.6667 25.875L46 25.875C44.4122 25.875 43.125 24.5878 43.125 23ZM57.5 37.375H46C44.4122 37.375 43.125 36.0878 43.125 34.5C43.125 32.9122 44.4122 31.625 46 31.625L57.5 31.625C59.0878 31.625 60.375 32.9122 60.375 34.5C60.375 36.0878 59.0878 37.375 57.5 37.375ZM43.125 46C43.125 44.4122 44.4122 43.125 46 43.125H53.6667C55.2545 43.125 56.5417 44.4122 56.5417 46C56.5417 47.5878 55.2545 48.875 53.6667 48.875H46C44.4122 48.875 43.125 47.5878 43.125 46ZM43.125 57.5C43.125 55.9122 44.4122 54.625 46 54.625L57.5 54.625C59.0878 54.625 60.375 55.9122 60.375 57.5C60.375 59.0878 59.0878 60.375 57.5 60.375L46 60.375C44.4122 60.375 43.125 59.0878 43.125 57.5ZM43.125 69C43.125 67.4122 44.4122 66.125 46 66.125H53.6667C55.2545 66.125 56.5417 67.4122 56.5417 69C56.5417 70.5878 55.2545 71.875 53.6667 71.875H46C44.4122 71.875 43.125 70.5878 43.125 69Z" fill="#223E7F"/>
<path fill-rule="evenodd" clip-rule="evenodd" d="M4.79298 19.168C4.79298 11.2289 11.2289 4.79297 19.168 4.79297C27.1071 4.79297 33.543 11.2289 33.543 19.168L33.543 58.4334C33.5431 60.6395 33.5432 61.9987 33.3765 63.3473C33.1801 64.9361 32.8112 66.4988 32.2763 68.0077C31.8223 69.2886 31.2143 70.5043 30.2274 72.4778L24.5133 83.9061C23.501 85.9307 21.4316 87.2096 19.168 87.2096C16.9043 87.2096 14.835 85.9307 13.8227 83.9061L8.1084 72.4775C7.12159 70.5042 6.51368 69.2886 6.05964 68.0077C5.52476 66.4988 5.15586 64.9361 4.95947 63.3473C4.79277 61.9987 4.79285 60.6396 4.79298 58.4335L4.79298 54.9037C4.79298 53.3159 6.08017 52.0287 7.66798 52.0287C9.2558 52.0287 10.543 53.3159 10.543 54.9037L10.543 58.2429C10.543 60.6977 10.548 61.6866 10.666 62.6419C10.8112 63.8163 11.0839 64.9713 11.4792 66.0866C11.8008 66.9938 12.2386 67.8806 13.3364 70.0762L17.0653 77.5339H21.2707L24.9995 70.0762C26.0973 67.8806 26.5351 66.9938 26.8568 66.0866C27.2521 64.9713 27.5248 63.8163 27.6699 62.6419C27.788 61.6866 27.793 60.6976 27.793 58.2429V27.99C25.5944 28.9112 22.6759 29.7096 19.168 29.7096C15.6601 29.7096 12.7416 28.9112 10.543 27.99L10.543 40.4286C10.543 42.0164 9.2558 43.3036 7.66798 43.3036C6.08017 43.3036 4.79298 42.0164 4.79298 40.4286L4.79298 19.168ZM10.543 21.5363C10.9205 21.775 11.401 22.0517 11.977 22.331C13.648 23.1412 16.0946 23.9596 19.168 23.9596C22.2414 23.9596 24.688 23.1412 26.359 22.331C26.935 22.0517 27.4154 21.775 27.793 21.5363V19.168C27.793 14.4045 23.9314 10.543 19.168 10.543C14.4045 10.543 10.543 14.4045 10.543 19.168L10.543 21.5363ZM28.7741 20.8383C28.7741 20.8383 28.7714 20.8406 28.7659 20.8452L28.7741 20.8383ZM9.57006 20.8452C9.56352 20.8397 9.56089 20.8374 9.5622 20.8386L9.57006 20.8452Z" fill="#223E7F"/>
</svg>
