<svg width="48" height="48" viewBox="0 0 48 48" fill="none" xmlns="http://www.w3.org/2000/svg">
<rect width="48" height="48" rx="24" fill="#FF321B"/>
<path fill-rule="evenodd" clip-rule="evenodd" d="M22.0417 15.2929C21.6512 14.9024 21.0181 14.9024 20.6275 15.2929L12.6275 23.2929C12.237 23.6834 12.237 24.3166 12.6275 24.7071L20.6275 32.7071C21.0181 33.0976 21.6512 33.0976 22.0417 32.7071C22.4323 32.3166 22.4323 31.6834 22.0417 31.2929L15.7488 25H27.3346C27.8869 25 28.3346 24.5523 28.3346 24C28.3346 23.4477 27.8869 23 27.3346 23H15.7488L22.0417 16.7071C22.4323 16.3166 22.4323 15.6834 22.0417 15.2929ZM35.668 24C35.668 23.4477 35.2203 23 34.668 23H31.3346C30.7824 23 30.3346 23.4477 30.3346 24C30.3346 24.5523 30.7824 25 31.3346 25H34.668C35.2203 25 35.668 24.5523 35.668 24Z" fill="#FCFCFC"/>
</svg>
