<svg width="48" height="48" viewBox="0 0 48 48" fill="none" xmlns="http://www.w3.org/2000/svg">
<rect width="48" height="48" rx="24" fill="#FF321B"/>
<path fill-rule="evenodd" clip-rule="evenodd" d="M25.9583 15.2929C26.3488 14.9024 26.9819 14.9024 27.3725 15.2929L35.3725 23.2929C35.763 23.6834 35.763 24.3166 35.3725 24.7071L27.3725 32.7071C26.9819 33.0976 26.3488 33.0976 25.9583 32.7071C25.5677 32.3166 25.5677 31.6834 25.9583 31.2929L32.2512 25H20.6654C20.1131 25 19.6654 24.5523 19.6654 24C19.6654 23.4477 20.1131 23 20.6654 23H32.2512L25.9583 16.7071C25.5677 16.3166 25.5677 15.6834 25.9583 15.2929ZM12.332 24C12.332 23.4477 12.7797 23 13.332 23H16.6654C17.2176 23 17.6654 23.4477 17.6654 24C17.6654 24.5523 17.2176 25 16.6654 25H13.332C12.7797 25 12.332 24.5523 12.332 24Z" fill="#FCFCFC"/>
</svg>
