<svg width="28" height="28" viewBox="0 0 28 28" fill="none" xmlns="http://www.w3.org/2000/svg">
<rect width="28" height="28" rx="14" fill="#D6E7FF"/>
<path d="M7.33944 10.6096C7.27916 12.1997 7.68159 14.9001 10.3904 17.6089C11.0439 18.2625 11.6969 18.7817 12.334 19.1926M8.61549 8.11306C9.77628 6.95227 11.6283 7.10823 12.3653 8.42884L12.9062 9.39795C13.3942 10.2725 13.1983 11.4198 12.4296 12.1885C12.4296 12.1885 12.4296 12.1885 12.4296 12.1885C12.4295 12.1886 11.4972 13.1211 13.1877 14.8116C14.8776 16.5015 15.81 15.5706 15.8108 15.5698C15.8108 15.5698 15.8108 15.5698 15.8109 15.5697C16.5796 14.801 17.7268 14.6051 18.6014 15.0932L19.5705 15.634C20.8911 16.3711 21.0471 18.2231 19.8863 19.3839C19.1888 20.0814 18.3343 20.6241 17.3897 20.6599C16.7114 20.6856 15.8309 20.6271 14.834 20.3413" stroke="#FF321B" stroke-width="1.5" stroke-linecap="round"/>
</svg>
