<svg width="95" height="82" viewBox="0 0 95 82" fill="none" xmlns="http://www.w3.org/2000/svg">
<path d="M54.8008 65.2C54.2674 65.2 54.0008 64.9333 54.0008 64.4V41.2C54.0008 36.4 55.1341 32.1333 57.4008 28.4C59.6674 24.5333 62.6008 21.5333 66.2008 19.4C69.9341 17.1333 73.9341 16 78.2008 16V28.4C74.8675 28.4 72.0008 29.6667 69.6008 32.2C67.3341 34.7333 66.2008 37.7333 66.2008 41.2H77.4008C77.9341 41.2 78.2008 41.4667 78.2008 42V64.4C78.2008 64.9333 77.9341 65.2 77.4008 65.2H54.8008ZM17.6008 65.2C17.0674 65.2 16.8008 64.9333 16.8008 64.4V41.2C16.8008 36.4 17.9341 32.1333 20.2008 28.4C22.4674 24.5333 25.4008 21.5333 29.0008 19.4C32.7341 17.1333 36.7341 16 41.0008 16V28.4C37.6674 28.4 34.8008 29.6667 32.4008 32.2C30.1341 34.7333 29.0008 37.7333 29.0008 41.2H40.2008C40.7341 41.2 41.0008 41.4667 41.0008 42V64.4C41.0008 64.9333 40.7341 65.2 40.2008 65.2H17.6008Z" fill="#94A3C7"/>
</svg>
