<svg width="135" height="134" viewBox="0 0 135 134" fill="none" xmlns="http://www.w3.org/2000/svg">
<rect x="0.5" width="134" height="134" rx="67" fill="#D6E7FF"/>
<path d="M57.6804 103.422C43.7054 103.422 32.3462 92.0267 32.3104 78.0517C32.3104 76.8692 31.3787 75.9375 30.1962 75.9375C29.0137 75.9375 28.082 76.8692 28.082 78.0517C28.082 94.3558 41.3762 107.614 57.6445 107.65C58.7912 107.65 59.7587 106.718 59.7587 105.536C59.7587 104.353 58.827 103.422 57.6445 103.422H57.6804Z" fill="#223E7F"/>
<path d="M107.273 79.2716L92.6885 64.6516C91.4343 63.3974 89.4277 63.3974 88.1735 64.6516L85.4143 67.4108L84.626 66.6224L93.9785 57.2699C94.8743 56.3741 95.376 55.1558 95.376 53.9016C95.376 52.6474 94.8743 51.4291 93.9785 50.5333L85.3427 41.8974C84.4468 41.0016 83.2643 40.5358 82.0102 40.5358C80.756 40.5358 79.5377 41.0374 78.6777 41.9333L69.2893 51.2858L68.3577 50.3541L71.1168 47.5949C72.371 46.3408 72.371 44.2983 71.1168 43.0799L56.4968 28.4958C55.2785 27.2774 53.1643 27.2774 51.9818 28.4958L42.7727 37.7049C41.5185 38.9591 41.5185 41.0016 42.7727 42.2199L57.3568 56.8041C58.5393 57.9866 60.6893 57.9866 61.8718 56.8041L65.3477 53.3283L66.2793 54.2599L57.5718 62.9674C53.9527 63.1108 50.4768 64.4366 47.6818 66.7658C47.001 67.3391 46.571 68.1991 46.5352 69.0949C46.5352 69.9908 46.8218 70.8508 47.4668 71.4958L65.8493 89.8783C66.4585 90.4874 67.2468 90.8099 68.1068 90.8099H68.2143C69.1102 90.7741 69.9702 90.3441 70.5435 89.6633C73.5177 86.1516 74.8793 81.5291 74.1985 76.9783L81.5802 69.5966L82.3685 70.3849L78.8927 73.8608C78.2835 74.4699 77.961 75.2583 77.961 76.1183C77.961 76.9783 78.2835 77.7666 78.8927 78.3758L93.5127 92.9599C94.1218 93.5691 94.9102 93.8916 95.7702 93.8916C96.6302 93.8916 97.4185 93.5691 98.0277 92.9599L107.237 83.7508C107.846 83.1416 108.168 82.3533 108.168 81.4933C108.168 80.6333 107.846 79.8449 107.237 79.2358L107.273 79.2716ZM67.3543 45.3733L59.5785 53.1491L46.4277 39.9983L54.2035 32.2224L67.3543 45.3733ZM67.9635 86.1158L51.2293 69.3816C55.9593 66.0849 62.481 66.6224 66.6018 70.7433C70.7227 74.8641 71.2602 81.3858 67.9635 86.1158ZM82.2968 44.9433L90.9327 53.5791C90.9327 53.5791 91.076 53.7941 91.076 53.9374C91.076 54.0449 91.0043 54.1883 90.9327 54.2958L72.8368 72.3916C72.0485 70.6716 70.9377 69.0949 69.6118 67.7691C67.7127 65.8699 65.3835 64.4724 62.8393 63.7199L81.616 44.9433C81.7952 44.7641 82.1535 44.7641 82.3327 44.9433H82.2968ZM103.546 81.5649L95.7702 89.3408L82.6193 76.1899L90.3952 68.4141L103.546 81.5649Z" fill="#223E7F"/>
<path d="M57.6805 95.5742C48.0414 95.5742 40.1939 87.7267 40.158 78.0517C40.158 76.8692 39.2264 75.9375 38.0439 75.9375C36.8614 75.9375 35.9297 76.8692 35.9297 78.0517C35.9297 90.02 45.6764 99.7667 57.6805 99.8025C58.8272 99.8025 59.7947 98.8708 59.7947 97.6883C59.7947 96.5058 58.863 95.5742 57.6805 95.5742Z" fill="#223E7F"/>
<path d="M57.6807 87.7267C52.3773 87.7267 48.0415 83.3908 48.0057 78.0517C48.0057 76.8692 47.074 75.9375 45.8915 75.9375C44.709 75.9375 43.7773 76.8692 43.7773 78.0517C43.7773 85.6842 50.0123 91.9192 57.6807 91.955C58.8273 91.955 59.7948 91.0233 59.7948 89.8408C59.7948 88.6583 58.8632 87.7267 57.6807 87.7267Z" fill="#223E7F"/>
</svg>
