<svg width="135" height="134" viewBox="0 0 135 134" fill="none" xmlns="http://www.w3.org/2000/svg">
<rect x="0.5" width="134" height="134" rx="67" fill="#D6E7FF"/>
<path d="M97.5898 55.4381C96.3035 38.8179 81.7872 26.3872 65.1669 27.6735C50.3344 28.8214 38.5502 40.6057 37.4023 55.4381C35.1835 55.9263 33.1493 57.0359 31.5377 58.6372C26.9242 63.259 26.9311 70.7453 31.5528 75.3588C33.3027 77.1055 35.5561 78.2597 37.9961 78.6591C38.179 78.7606 38.3835 78.8169 38.5926 78.8233C38.6759 78.8212 38.7589 78.8124 38.8409 78.7971C38.8754 78.7888 38.909 78.7783 38.942 78.7655C39.2613 78.7905 39.5779 78.8233 39.9063 78.8233H42.5339C42.8823 78.8233 43.2165 78.6849 43.4628 78.4385C43.7092 78.1922 43.8476 77.858 43.8476 77.5096V56.4893C43.8476 56.1409 43.7092 55.8067 43.4628 55.5603C43.2165 55.314 42.8823 55.1756 42.5339 55.1756H40.0627C41.4827 40.0237 54.9166 28.892 70.0684 30.3119C83.2545 31.5476 93.6963 41.9894 94.9321 55.1756H92.457C92.1085 55.1756 91.7744 55.314 91.528 55.5603C91.2816 55.8067 91.1432 56.1409 91.1432 56.4893V77.5096C91.1432 77.858 91.2816 78.1922 91.528 78.4385C91.7744 78.6849 92.1085 78.8233 92.457 78.8233H95.0845V81.4509C95.0845 91.5853 87.1625 99.2879 76.4895 99.795C75.7303 96.9998 72.8488 95.3492 70.0536 96.1086C67.2584 96.8677 65.6079 99.7492 66.3672 102.544C67.1264 105.34 70.0078 106.99 72.803 106.231C73.7062 105.985 74.5272 105.503 75.181 104.833C75.8348 104.164 76.2974 103.331 76.521 102.423C88.6759 101.893 97.712 93.0698 97.712 81.4509V78.5225C99.8817 78.0213 101.869 76.9269 103.453 75.3616C104.551 74.2635 105.421 72.9597 106.014 71.5248C106.607 70.0899 106.911 68.552 106.908 66.9994C106.911 61.4325 103.03 56.6177 97.5898 55.4381ZM41.2201 57.8029V76.1956H39.9063C39.5212 76.1956 39.1365 76.1728 38.7542 76.1273C33.7124 75.5138 30.1226 70.9292 30.7361 65.8873C31.2483 61.6785 34.5715 58.3654 38.7818 57.866C39.155 57.8224 39.5306 57.8013 39.9063 57.8029H41.2201ZM71.4367 103.785C69.9855 103.785 68.8092 102.608 68.8092 101.157C68.8092 99.706 69.9855 98.5297 71.4367 98.5297C72.8879 98.5297 74.0642 99.706 74.0642 101.157C74.0642 102.608 72.8878 103.785 71.4367 103.785ZM96.2406 76.126C95.857 76.1724 95.4709 76.1957 95.0845 76.1956H93.7707V57.8029H95.0845C100.163 57.7881 104.293 61.8933 104.308 66.9723C104.321 71.625 100.858 75.5549 96.2406 76.126Z" fill="#223E7F"/>
<path fill-rule="evenodd" clip-rule="evenodd" d="M31.5384 58.638C33.1501 57.0367 35.1842 55.9272 37.4031 55.439C38.551 40.6066 50.3351 28.8222 65.1677 27.6743C81.788 26.388 96.3043 38.8187 97.5906 55.439C103.031 56.6186 106.912 61.4334 106.909 67.0003C106.912 68.5529 106.608 70.0907 106.015 71.5256C105.422 72.9605 104.552 74.2644 103.454 75.3624C101.87 76.9278 99.8825 78.0221 97.7128 78.5233V81.4517C97.7128 93.0706 88.6767 101.894 76.5218 102.423C76.2982 103.332 75.8355 104.165 75.1818 104.834C74.528 105.504 73.7069 105.986 72.8038 106.232C70.0086 106.991 67.1272 105.34 66.368 102.545C65.6086 99.75 67.2592 96.8686 70.0544 96.1094C72.8496 95.35 75.731 97.0006 76.4902 99.7958C87.1632 99.2887 95.0853 91.5861 95.0853 81.4517V78.8242H92.4577C92.1093 78.8242 91.7751 78.6858 91.5288 78.4394C91.2824 78.193 91.144 77.8588 91.144 77.5104V56.4902C91.144 56.1417 91.2824 55.8076 91.5288 55.5612C91.7751 55.3148 92.1093 55.1764 92.4577 55.1764H94.9329C94.8991 54.816 94.8584 54.4576 94.811 54.1014C93.1242 41.4263 82.8949 31.5147 70.0692 30.3127C55.278 28.9267 42.124 39.5018 40.1851 54.1014C40.1378 54.4574 40.0972 54.8157 40.0634 55.1764H42.5346C42.8831 55.1764 43.2172 55.3148 43.4636 55.5612C43.71 55.8076 43.8484 56.1417 43.8484 56.4902V77.5104C43.8484 77.8588 43.71 78.193 43.4636 78.4394C43.2172 78.6858 42.8831 78.8242 42.5346 78.8242H39.9071C39.6421 78.8242 39.3849 78.8028 39.1277 78.7814C39.0661 78.7763 39.0045 78.7712 38.9428 78.7664C38.9098 78.7792 38.8761 78.7897 38.8416 78.7979C38.7597 78.8132 38.6767 78.822 38.5933 78.8242C38.3843 78.8177 38.1798 78.7614 37.9969 78.66C35.5569 78.2605 33.3035 77.1063 31.5535 75.3596C26.9319 70.7462 26.925 63.2598 31.5384 58.638ZM37.663 79.6936C35.0628 79.2342 32.6648 77.9876 30.7941 76.1204C25.7523 71.0876 25.7447 62.9206 30.7776 57.8785L30.7807 57.8754C32.3486 56.3177 34.2833 55.1869 36.4006 54.5837C37.9315 39.5879 49.9823 27.7713 65.0847 26.6025C82.0378 25.2905 96.877 37.7593 98.5929 54.5814C104.118 56.1396 107.986 61.1944 107.984 66.9991C107.987 68.6929 107.655 70.3707 107.008 71.9361C106.361 73.5018 105.412 74.9244 104.214 76.1224L104.21 76.127C102.689 77.63 100.827 78.7344 98.7878 79.3492V81.4517C98.7878 93.4589 89.6166 102.576 77.3216 103.454C77.0143 104.247 76.549 104.973 75.951 105.585C75.1632 106.392 74.1739 106.973 73.0856 107.269C69.7174 108.184 66.2454 106.195 65.3306 102.827C64.4156 99.4588 66.4045 95.9868 69.7726 95.072C69.7726 95.072 69.7727 95.072 69.7726 95.072M69.7726 95.072C72.8488 94.2363 76.0115 95.8229 77.2337 98.67C86.9883 97.8549 94.0103 90.6994 94.0103 81.4517V79.8992H92.4577C91.8242 79.8992 91.2166 79.6475 90.7686 79.1995C90.3206 78.7515 90.069 78.144 90.069 77.5104V56.4902C90.069 55.8566 90.3206 55.249 90.7686 54.801C91.2166 54.3531 91.8242 54.1014 92.4577 54.1014H93.7261C92.0478 41.989 82.2462 32.5336 69.9689 31.383C55.8028 30.0555 43.1994 40.1449 41.27 54.1014H42.5346C43.1682 54.1014 43.7758 54.3531 44.2237 54.801C44.6717 55.249 44.9234 55.8566 44.9234 56.4902V77.5104C44.9234 78.1439 44.6717 78.7515 44.2237 79.1995C43.7758 79.6475 43.1682 79.8992 42.5346 79.8992H39.9071C39.6026 79.8992 39.2994 79.8746 39.0455 79.8534L39.0391 79.8546C38.9013 79.8804 38.7616 79.8951 38.6215 79.8988L38.5909 79.8996L38.5603 79.8987C38.2501 79.8891 37.9454 79.8192 37.663 79.6936M39.9071 57.8038C39.5313 57.8022 39.1558 57.8232 38.7825 57.8668C34.5722 58.3662 31.2491 61.6794 30.7369 65.8882C30.1233 70.9301 33.7132 75.5146 38.7549 76.1282C39.1372 76.1736 39.522 76.1965 39.9071 76.1965H41.2209V57.8038H39.9071ZM40.1459 58.8788H39.9026C39.57 58.8773 39.2376 58.896 38.9072 58.9346C35.1891 59.3756 32.2563 62.3012 31.804 66.018C31.2623 70.4698 34.4313 74.5178 38.8824 75.0607C39.2224 75.1012 39.5646 75.1215 39.9071 75.1215H40.1459V58.8788ZM95.0854 75.1215C95.4282 75.1215 95.7707 75.1009 96.111 75.0598C100.188 74.5547 103.245 71.0847 103.234 66.9763C103.22 62.491 99.5737 58.8657 95.0884 58.8787L94.8465 58.8788V75.1215H95.0854ZM96.2414 76.1268C95.8577 76.1733 95.4717 76.1965 95.0853 76.1965H93.7715V57.8038H95.0853C100.164 57.789 104.294 61.8942 104.309 66.9732C104.322 71.6259 100.859 75.5557 96.2414 76.1268ZM69.8849 101.158C69.8849 102.016 70.58 102.711 71.4375 102.711C72.2949 102.711 72.99 102.015 72.99 101.158C72.99 100.301 72.295 99.6055 71.4375 99.6055C70.58 99.6055 69.8849 100.301 69.8849 101.158ZM68.8099 101.158C68.8099 102.609 69.9863 103.786 71.4375 103.786C72.8885 103.786 74.065 102.609 74.065 101.158C74.065 99.7068 72.8887 98.5305 71.4375 98.5305C69.9863 98.5305 68.8099 99.7068 68.8099 101.158Z" fill="#223E7F"/>
</svg>
