<svg width="80" height="80" viewBox="0 0 80 80" fill="none" xmlns="http://www.w3.org/2000/svg">
<path fill-rule="evenodd" clip-rule="evenodd" d="M22.3759 35.5773C23.8908 27.1818 31.2847 20.832 40.1457 20.832C45.404 20.832 50.1439 23.0684 53.4426 26.6344C54.3802 27.6479 54.3187 29.2296 53.3051 30.1672C52.2916 31.1048 50.7099 31.0433 49.7723 30.0297C47.3848 27.4488 43.9596 25.832 40.1457 25.832C34.0187 25.832 28.8992 30.0058 27.4818 35.6164L28.2698 34.8608C29.2665 33.9052 30.849 33.9385 31.8046 34.9352C32.7602 35.9318 32.7268 37.5144 31.7302 38.4699L26.3221 43.6551C25.8311 44.1259 25.1695 44.3762 24.4899 44.3485C23.8102 44.3207 23.1713 44.0172 22.7203 43.508L18.1284 38.3228C17.213 37.2892 17.3089 35.7091 18.3426 34.7938C19.3762 33.8784 20.9562 33.9743 21.8716 35.0079L22.3759 35.5773Z" fill="#FF321B"/>
<path fill-rule="evenodd" clip-rule="evenodd" d="M55.4956 35.6504C56.1749 35.6773 56.814 35.9798 57.2655 36.488L61.8696 41.6703C62.7866 42.7025 62.6933 44.2827 61.6611 45.1997C60.6289 46.1167 59.0487 46.0233 58.1317 44.9912L57.6142 44.4086C56.0991 52.8166 48.671 59.167 39.7833 59.167C34.5456 59.167 29.8187 56.9625 26.5111 53.438C25.5662 52.4312 25.6164 50.8491 26.6232 49.9043C27.6299 48.9594 29.2121 49.0096 30.1569 50.0164C32.5522 52.5686 35.9738 54.167 39.7833 54.167C45.9402 54.167 51.074 49.9945 52.5016 44.3951L51.7324 45.1338C50.7365 46.0902 49.154 46.0583 48.1976 45.0624C47.2412 44.0666 47.2731 42.484 48.2689 41.5276L53.6649 36.3453C54.1552 35.8744 54.8162 35.6235 55.4956 35.6504Z" fill="#FF321B"/>
<path fill-rule="evenodd" clip-rule="evenodd" d="M39.8081 4.16797H40.1906C47.8853 4.16793 53.9154 4.16789 58.6203 4.80046C63.4361 5.44792 67.2362 6.79906 70.2189 9.78176C74.178 13.7409 75.2779 19.1614 75.6459 26.5435C75.7146 27.9225 74.6525 29.0961 73.2735 29.1649C71.8945 29.2336 70.7208 28.1714 70.6521 26.7924C70.2912 19.5516 69.2159 15.8498 66.6834 13.3173C64.7845 11.4184 62.2154 10.3288 57.9541 9.75587C53.6208 9.17328 47.9268 9.16797 39.9993 9.16797C32.0719 9.16797 26.3779 9.17328 22.0446 9.75587C17.7833 10.3288 15.2142 11.4184 13.3153 13.3173C11.4165 15.2161 10.3268 17.7852 9.75392 22.0466C9.17133 26.3798 9.16602 32.0739 9.16602 40.0013C9.16602 47.9287 9.17133 53.6228 9.75392 57.956C10.3268 62.2174 11.4165 64.7865 13.3153 66.6853C15.2142 68.5842 17.7833 69.6738 22.0446 70.2467C26.3779 70.8293 32.0719 70.8346 39.9993 70.8346C47.9268 70.8346 53.6208 70.8293 57.9541 70.2467C62.2154 69.6738 64.7845 68.5842 66.6834 66.6853C68.5822 64.7865 69.6719 62.2174 70.2448 57.956C70.8274 53.6228 70.8327 47.9287 70.8327 40.0013C70.8327 38.6206 71.952 37.5013 73.3327 37.5013C74.7134 37.5013 75.8327 38.6206 75.8327 40.0013V40.1925C75.8327 47.8872 75.8328 53.9173 75.2002 58.6223C74.5527 63.4381 73.2016 67.2382 70.2189 70.2208C67.2362 73.2035 63.4361 74.5547 58.6203 75.2021C53.9154 75.8347 47.8852 75.8347 40.1906 75.8346H39.8081C32.1135 75.8347 26.0833 75.8347 21.3784 75.2021C16.5626 74.5547 12.7625 73.2035 9.7798 70.2208C6.7971 67.2382 5.44597 63.4381 4.7985 58.6223C4.16594 53.9173 4.16597 47.8872 4.16602 40.1926V39.81C4.16597 32.1154 4.16594 26.0853 4.7985 21.3803C5.44597 16.5645 6.7971 12.7645 9.7798 9.78176C12.7625 6.79906 16.5626 5.44792 21.3784 4.80046C26.0833 4.16789 32.1134 4.16793 39.8081 4.16797Z" fill="#FF321B"/>
</svg>
