<svg width="64" height="64" viewBox="0 0 64 64" fill="none" xmlns="http://www.w3.org/2000/svg">
<rect width="64" height="64" rx="32" fill="#223E7F"/>
<path fill-rule="evenodd" clip-rule="evenodd" d="M27.5722 18.6629C28.9158 18.0246 30.4183 17.668 32.0014 17.668C37.7083 17.668 42.3347 22.2944 42.3347 28.0013V28.9401C42.3347 29.8693 42.6097 30.7778 43.1252 31.5509L44.6567 33.8481C46.4341 36.5143 45.0772 40.1384 41.9857 40.9815C35.4489 42.7643 28.5539 42.7643 22.017 40.9815C18.9255 40.1384 17.5686 36.5143 19.3461 33.8481L20.8775 31.5509C21.393 30.7778 21.668 29.8693 21.668 28.9401V28.0013C21.668 26.4183 22.0247 24.9157 22.663 23.5721C22.9 23.0733 23.4965 22.861 23.9953 23.098C24.4942 23.3349 24.7065 23.9315 24.4695 24.4303C23.9559 25.5114 23.668 26.7214 23.668 28.0013V28.9401C23.668 30.2642 23.2761 31.5586 22.5416 32.6603L21.0102 34.9575C19.9899 36.4879 20.7688 38.568 22.5432 39.052C28.7356 40.7408 35.2671 40.7408 41.4595 39.052C43.2339 38.568 44.0128 36.4879 42.9926 34.9575L41.4611 32.6603C40.7266 31.5586 40.3347 30.2642 40.3347 28.9401V28.0013C40.3347 23.3989 36.6037 19.668 32.0014 19.668C30.7214 19.668 29.5115 19.9558 28.4304 20.4694C27.9315 20.7064 27.335 20.4941 27.098 19.9953C26.861 19.4964 27.0733 18.8999 27.5722 18.6629Z" fill="#FCFCFC"/>
<path fill-rule="evenodd" clip-rule="evenodd" d="M32.0003 44.332C29.6308 44.332 27.6581 42.906 26.9367 40.9811C26.7429 40.4639 26.1665 40.2018 25.6493 40.3956C25.1322 40.5894 24.8701 41.1658 25.0639 41.683C26.0892 44.4188 28.8296 46.332 32.0003 46.332C32.3736 46.332 32.741 46.3056 33.1004 46.2543C33.6472 46.1763 34.0272 45.6699 33.9492 45.1232C33.8713 44.5764 33.3648 44.1964 32.8181 44.2743C32.552 44.3123 32.2789 44.332 32.0003 44.332ZM35.5039 44.4332C35.8622 44.8535 36.4933 44.9038 36.9136 44.5455C37.8134 43.7785 38.5183 42.7992 38.9367 41.683C39.1305 41.1658 38.8684 40.5895 38.3512 40.3956C37.8341 40.2018 37.2577 40.4639 37.0639 40.9811C36.7701 41.765 36.2698 42.4663 35.6162 43.0235C35.1959 43.3818 35.1456 44.0129 35.5039 44.4332Z" fill="#FCFCFC"/>
</svg>
