<svg width="64" height="65" viewBox="0 0 64 65" fill="none" xmlns="http://www.w3.org/2000/svg">
<rect y="0.5" width="64" height="64" rx="32" fill="#223E7F"/>
<path fill-rule="evenodd" clip-rule="evenodd" d="M29.3346 36.168C28.4142 36.168 27.668 36.9142 27.668 37.8346C27.668 38.7551 28.4142 39.5013 29.3346 39.5013C30.2551 39.5013 31.0013 38.7551 31.0013 37.8346C31.0013 36.9142 30.2551 36.168 29.3346 36.168ZM25.668 37.8346C25.668 35.8096 27.3096 34.168 29.3346 34.168C31.3597 34.168 33.0013 35.8096 33.0013 37.8346C33.0013 39.8597 31.3597 41.5013 29.3346 41.5013C27.3096 41.5013 25.668 39.8597 25.668 37.8346Z" fill="#FCFCFC"/>
<path fill-rule="evenodd" clip-rule="evenodd" d="M36.332 27.1654C36.332 28.0858 35.5858 28.832 34.6654 28.832C33.7449 28.832 32.9987 28.0858 32.9987 27.1654C32.9987 26.2449 33.7449 25.4987 34.6654 25.4987C35.5858 25.4987 36.332 26.2449 36.332 27.1654ZM34.6654 30.832C36.6904 30.832 38.332 29.1904 38.332 27.1654C38.332 25.1403 36.6904 23.4987 34.6654 23.4987C32.6403 23.4987 30.9987 25.1403 30.9987 27.1654C30.9987 29.1904 32.6403 30.832 34.6654 30.832Z" fill="#FCFCFC"/>
<path fill-rule="evenodd" clip-rule="evenodd" d="M33.668 37.832C33.668 37.2797 34.1157 36.832 34.668 36.832L41.3346 36.832C41.8869 36.832 42.3346 37.2797 42.3346 37.832C42.3346 38.3843 41.8869 38.832 41.3346 38.832L34.668 38.832C34.1157 38.832 33.668 38.3843 33.668 37.832Z" fill="#FCFCFC"/>
<path fill-rule="evenodd" clip-rule="evenodd" d="M30.332 27.168C30.332 26.6157 29.8843 26.168 29.332 26.168L22.6654 26.168C22.1131 26.168 21.6654 26.6157 21.6654 27.168C21.6654 27.7203 22.1131 28.168 22.6654 28.168L29.332 28.168C29.8843 28.168 30.332 27.7203 30.332 27.168Z" fill="#FCFCFC"/>
<path fill-rule="evenodd" clip-rule="evenodd" d="M21.668 37.832C21.668 37.2797 22.1157 36.832 22.668 36.832L24.0013 36.832C24.5536 36.832 25.0013 37.2797 25.0013 37.832C25.0013 38.3843 24.5536 38.832 24.0013 38.832L22.668 38.832C22.1157 38.832 21.668 38.3843 21.668 37.832Z" fill="#FCFCFC"/>
<path fill-rule="evenodd" clip-rule="evenodd" d="M42.332 27.168C42.332 26.6157 41.8843 26.168 41.332 26.168L39.9987 26.168C39.4464 26.168 38.9987 26.6157 38.9987 27.168C38.9987 27.7203 39.4464 28.168 39.9987 28.168L41.332 28.168C41.8843 28.168 42.332 27.7203 42.332 27.168Z" fill="#FCFCFC"/>
<path fill-rule="evenodd" clip-rule="evenodd" d="M31.9248 18.168H32.0778C35.1557 18.168 37.5677 18.1679 39.4497 18.421C41.376 18.68 42.896 19.2204 44.0891 20.4135C45.6728 21.9971 46.1127 24.1653 46.2599 27.1182C46.2874 27.6698 45.8625 28.1392 45.3109 28.1667C44.7593 28.1942 44.2899 27.7694 44.2624 27.2178C44.118 24.3214 43.6879 22.8407 42.6749 21.8277C41.9154 21.0682 40.8877 20.6323 39.1832 20.4031C37.4499 20.1701 35.1723 20.168 32.0013 20.168C28.8303 20.168 26.5527 20.1701 24.8194 20.4031C23.1149 20.6323 22.0872 21.0682 21.3277 21.8277C20.5682 22.5872 20.1323 23.6149 19.9031 25.3194C19.6701 27.0527 19.668 29.3303 19.668 32.5013C19.668 35.6723 19.6701 37.9499 19.9031 39.6832C20.1323 41.3877 20.5682 42.4154 21.3277 43.1749C22.0872 43.9344 23.1149 44.3703 24.8194 44.5995C26.5527 44.8325 28.8303 44.8346 32.0013 44.8346C35.1723 44.8346 37.4499 44.8325 39.1832 44.5995C40.8877 44.3703 41.9154 43.9344 42.6749 43.1749C43.4344 42.4154 43.8703 41.3877 44.0995 39.6832C44.3325 37.9499 44.3346 35.6723 44.3346 32.5013C44.3346 31.949 44.7823 31.5013 45.3346 31.5013C45.8869 31.5013 46.3346 31.949 46.3346 32.5013V32.5778C46.3347 35.6557 46.3347 38.0677 46.0816 39.9497C45.8227 41.876 45.2822 43.396 44.0891 44.5891C42.896 45.7822 41.376 46.3227 39.4497 46.5816C37.5677 46.8347 35.1557 46.8347 32.0778 46.8346H31.9248C28.8469 46.8347 26.4349 46.8347 24.5529 46.5816C22.6266 46.3227 21.1066 45.7822 19.9135 44.5891C18.7204 43.396 18.18 41.876 17.921 39.9497C17.6679 38.0677 17.668 35.6557 17.668 32.5778V32.4248C17.668 29.3469 17.6679 26.9349 17.921 25.0529C18.18 23.1266 18.7204 21.6066 19.9135 20.4135C21.1066 19.2204 22.6266 18.68 24.5529 18.421C26.4349 18.1679 28.8469 18.168 31.9248 18.168Z" fill="#FCFCFC"/>
</svg>
