<svg width="80" height="80" viewBox="0 0 80 80" fill="none" xmlns="http://www.w3.org/2000/svg">
<path fill-rule="evenodd" clip-rule="evenodd" d="M6.66602 4.16797C8.04673 4.16797 9.16602 5.28726 9.16602 6.66797V40.0013C9.16602 47.9287 9.17133 53.6228 9.75392 57.956C10.3268 62.2174 11.4165 64.7865 13.3153 66.6853C15.2142 68.5842 17.7833 69.6738 22.0446 70.2467C26.3779 70.8293 32.0719 70.8346 39.9993 70.8346H73.3327C74.7134 70.8346 75.8327 71.9539 75.8327 73.3346C75.8327 74.7153 74.7134 75.8346 73.3327 75.8346H39.8081C32.1135 75.8347 26.0833 75.8347 21.3784 75.2021C16.5626 74.5547 12.7625 73.2036 9.7798 70.2209C6.7971 67.2382 5.44597 63.4381 4.7985 58.6223C4.16594 53.9173 4.16597 47.8872 4.16602 40.1926L4.16602 6.66797C4.16602 5.28726 5.28531 4.16797 6.66602 4.16797Z" fill="#FF321B"/>
<path fill-rule="evenodd" clip-rule="evenodd" d="M64.8887 21.3744C65.9699 22.233 66.1504 23.8056 65.2918 24.8868L54.8472 38.0392C54.0948 38.9868 53.4532 39.7948 52.8834 40.4202C52.291 41.0705 51.6388 41.6814 50.8173 42.1206C48.7096 43.2474 46.1911 43.3021 44.0365 42.2681C43.1966 41.8651 42.5185 41.2831 41.8984 40.6592C41.3019 40.0591 40.6257 39.2798 39.8328 38.3659L39.779 38.3038C38.9175 37.3109 38.3525 36.6617 37.89 36.1965C37.4377 35.7414 37.2292 35.6158 37.1348 35.5705C36.4166 35.2259 35.5771 35.2441 34.8746 35.6197C34.7823 35.669 34.5795 35.8036 34.1474 36.2779C33.7056 36.7628 33.1693 37.4359 32.3518 38.4653L21.9578 51.5535C21.0992 52.6348 19.5266 52.8152 18.4454 51.9565C17.3641 51.0979 17.1837 49.5253 18.0423 48.4441L28.4874 35.2915C29.2398 34.344 29.8815 33.536 30.4513 32.9105C31.0437 32.2603 31.6958 31.6494 32.5174 31.2102C34.625 30.0835 37.1435 30.0287 39.2981 31.0627C40.138 31.4658 40.8161 32.0478 41.4362 32.6716C42.0327 33.2717 42.7089 34.0511 43.5018 34.965L43.5556 35.027C44.4171 36.02 44.9821 36.6691 45.4446 37.1344C45.8969 37.5895 46.1054 37.715 46.1997 37.7603C46.918 38.105 47.7575 38.0867 48.46 37.7111C48.5523 37.6618 48.7551 37.5273 49.1872 37.053C49.629 36.568 50.1653 35.8949 50.9828 34.8654L61.3762 21.7774C62.2348 20.6962 63.8074 20.5157 64.8887 21.3744Z" fill="#FF321B"/>
</svg>
