<svg width="64" height="64" viewBox="0 0 64 64" fill="none" xmlns="http://www.w3.org/2000/svg">
<rect width="64" height="64" rx="32" fill="#223E7F"/>
<path fill-rule="evenodd" clip-rule="evenodd" d="M36.7311 29.9857C37.1079 30.3894 37.0861 31.0222 36.6823 31.399L30.968 36.7324C30.5838 37.091 29.9876 37.091 29.6034 36.7324L27.3177 34.599C26.9139 34.2222 26.8921 33.5894 27.2689 33.1857C27.6458 32.7819 28.2786 32.7601 28.6823 33.1369L30.2857 34.6334L35.3177 29.9369C35.7214 29.5601 36.3542 29.5819 36.7311 29.9857Z" fill="#FCFCFC"/>
<path fill-rule="evenodd" clip-rule="evenodd" d="M27.6667 21.3304C27.6697 21.8826 27.2245 22.3328 26.6722 22.3359C25.2142 22.344 24.1808 22.3819 23.3965 22.526C22.6407 22.6648 22.2033 22.8877 21.8787 23.2123C21.5541 23.5369 21.3312 23.9743 21.1924 24.73C21.0483 25.5143 21.0104 26.5477 21.0023 28.0056C20.9992 28.5578 20.549 29.0031 19.9968 29C19.4445 28.9969 18.9993 28.5467 19.0023 27.9944C19.0104 26.5525 19.0449 25.3507 19.2253 24.3687C19.4109 23.358 19.7646 22.498 20.4645 21.7981C21.1644 21.0982 22.0245 20.7445 23.0351 20.5589C24.0172 20.3785 25.2191 20.344 26.6611 20.336C27.2134 20.3329 27.6636 20.7781 27.6667 21.3304ZM36.3333 21.3304C36.3364 20.7781 36.7866 20.3329 37.3389 20.336C38.7809 20.344 39.9828 20.3785 40.9649 20.5589C41.9755 20.7445 42.8356 21.0982 43.5355 21.7981C44.3381 22.6006 44.6833 23.6111 44.8446 24.8113C45.0001 25.9672 45 27.437 45 29.2605V32.0003C45 32.5526 44.5523 33.0003 44 33.0003C43.4477 33.0003 43 32.5526 43 32.0003V29.3336C43 27.4197 42.9979 26.0849 42.8625 25.0778C42.7309 24.0994 42.4903 23.5813 42.1213 23.2123C41.7967 22.8877 41.3593 22.6648 40.6035 22.526C39.8192 22.3819 38.7858 22.344 37.3278 22.3359C36.7755 22.3328 36.3303 21.8826 36.3333 21.3304ZM20 32.3336C20.5523 32.3336 21 32.7813 21 33.3336V37.3336C21 39.2475 21.0021 40.5823 21.1375 41.5895C21.2691 42.5678 21.5097 43.0859 21.8787 43.4549C22.2477 43.824 22.7658 44.0646 23.7442 44.1961C24.7513 44.3315 26.0861 44.3336 28 44.3336H36C37.9139 44.3336 39.2487 44.3315 40.2558 44.1961C41.2342 44.0646 41.7523 43.824 42.1213 43.4549C42.4903 43.0859 42.7309 42.5678 42.8625 41.5895C42.9979 40.5823 43 39.2475 43 37.3336C43 36.7813 43.4477 36.3336 44 36.3336C44.5523 36.3336 45 36.7813 45 37.3336V37.4068C45 39.2302 45.0001 40.7 44.8446 41.856C44.6833 43.0561 44.3381 44.0666 43.5355 44.8692C42.733 45.6717 41.7225 46.0169 40.5223 46.1783C39.3664 46.3337 37.8966 46.3336 36.0732 46.3336H27.9268C26.1034 46.3336 24.6336 46.3337 23.4777 46.1783C22.2775 46.0169 21.267 45.6717 20.4645 44.8692C19.6619 44.0666 19.3167 43.0561 19.1554 41.856C19 40.7 19 39.2302 19 37.4068L19 33.3336C19 32.7813 19.4477 32.3336 20 32.3336Z" fill="#FCFCFC"/>
<path fill-rule="evenodd" clip-rule="evenodd" d="M25.668 20.668C25.668 19.0111 27.0111 17.668 28.668 17.668H35.3346C36.9915 17.668 38.3346 19.0111 38.3346 20.668V22.0013C38.3346 23.6582 36.9915 25.0013 35.3346 25.0013H28.668C27.0111 25.0013 25.668 23.6582 25.668 22.0013V20.668ZM28.668 19.668C28.1157 19.668 27.668 20.1157 27.668 20.668V22.0013C27.668 22.5536 28.1157 23.0013 28.668 23.0013H35.3346C35.8869 23.0013 36.3346 22.5536 36.3346 22.0013V20.668C36.3346 20.1157 35.8869 19.668 35.3346 19.668H28.668Z" fill="#FCFCFC"/>
</svg>
