<svg width="64" height="64" viewBox="0 0 64 64" fill="none" xmlns="http://www.w3.org/2000/svg">
<rect width="64" height="64" rx="32" fill="#223E7F"/>
<path fill-rule="evenodd" clip-rule="evenodd" d="M40.1509 25.3928C41.5652 23.9784 43.8583 23.9784 45.2726 25.3928C46.6869 26.8071 46.6869 29.1002 45.2726 30.5145L38.9739 36.8133C38.9598 36.8273 38.9459 36.8412 38.9322 36.855C38.5872 37.2 38.3539 37.4334 38.0925 37.6373C37.785 37.8771 37.4523 38.0828 37.1002 38.2505C36.801 38.3931 36.4878 38.4975 36.025 38.6517L33.2468 39.5777C32.6334 39.7822 31.9572 39.6226 31.5 39.1654C31.0428 38.7082 30.8832 38.0319 31.0876 37.4186L31.2659 36.8839L31.9951 34.6964C32.0013 34.6775 32.0076 34.6588 32.0137 34.6404C32.1679 34.1776 32.2722 33.8644 32.4149 33.5652C32.5826 33.2131 32.7883 32.8804 33.0281 32.5729C33.232 32.3115 33.4654 32.0781 33.8104 31.7332C33.8242 31.7195 33.8381 31.7056 33.8521 31.6915L40.1509 25.3928ZM43.8584 26.807C43.2251 26.1737 42.1984 26.1737 41.5651 26.807L41.3227 27.0494C41.3359 27.094 41.351 27.1415 41.3683 27.1914C41.4937 27.5529 41.7317 28.0311 42.183 28.4824C42.6343 28.9337 43.1125 29.1717 43.474 29.2971C43.5239 29.3144 43.5714 29.3295 43.616 29.3427L43.8584 29.1003C44.4917 28.467 44.4917 27.4403 43.8584 26.807ZM42.0886 30.8701C41.6648 30.6475 41.2071 30.3349 40.7688 29.8966C40.3305 29.4583 40.0179 29.0006 39.7953 28.5768L35.2664 33.1057C34.8649 33.5072 34.7241 33.6505 34.6051 33.8029C34.4546 33.9959 34.3256 34.2047 34.2203 34.4256C34.1371 34.6002 34.0719 34.7902 33.8924 35.3288L33.3587 36.93L33.7354 37.3067L35.3366 36.773C35.8752 36.5934 36.0652 36.5283 36.2398 36.4451C36.4607 36.3398 36.6695 36.2108 36.8625 36.0603C37.0149 35.9413 37.1582 35.8005 37.5597 35.399L42.0886 30.8701Z" fill="#FCFCFC"/>
<path fill-rule="evenodd" clip-rule="evenodd" d="M25.668 33.332C25.668 32.7797 26.1157 32.332 26.668 32.332H30.0013C30.5536 32.332 31.0013 32.7797 31.0013 33.332C31.0013 33.8843 30.5536 34.332 30.0013 34.332H26.668C26.1157 34.332 25.668 33.8843 25.668 33.332Z" fill="#FCFCFC"/>
<path fill-rule="evenodd" clip-rule="evenodd" d="M25.668 28C25.668 27.4477 26.1157 27 26.668 27H35.3346C35.8869 27 36.3346 27.4477 36.3346 28C36.3346 28.5523 35.8869 29 35.3346 29H26.668C26.1157 29 25.668 28.5523 25.668 28Z" fill="#FCFCFC"/>
<path fill-rule="evenodd" clip-rule="evenodd" d="M25.668 38.668C25.668 38.1157 26.1157 37.668 26.668 37.668H28.668C29.2203 37.668 29.668 38.1157 29.668 38.668C29.668 39.2203 29.2203 39.668 28.668 39.668H26.668C26.1157 39.668 25.668 39.2203 25.668 38.668Z" fill="#FCFCFC"/>
<path fill-rule="evenodd" clip-rule="evenodd" d="M30.5914 17.668H33.4086C35.8589 17.6679 37.7997 17.6679 39.3187 17.8721C40.8819 18.0823 42.1472 18.5251 43.145 19.523C43.5355 19.9135 43.5355 20.5467 43.145 20.9372C42.7545 21.3277 42.1213 21.3277 41.7308 20.9372C41.1665 20.3729 40.3937 20.0347 39.0522 19.8543C37.682 19.6701 35.8758 19.668 33.3333 19.668H30.6667C28.1242 19.668 26.318 19.6701 24.9478 19.8543C23.6063 20.0347 22.8335 20.3729 22.2692 20.9372C21.7049 21.5015 21.3667 22.2743 21.1863 23.6158C21.0021 24.986 21 26.7922 21 29.3346V34.668C21 35.2203 20.5523 35.668 20 35.668C19.4477 35.668 19 35.2203 19 34.668L19 29.2594C19 26.8091 19 24.8682 19.2042 23.3493C19.4144 21.786 19.8572 20.5208 20.855 19.523C21.8528 18.5251 23.1181 18.0823 24.6813 17.8721C26.2003 17.6679 28.1411 17.6679 30.5914 17.668ZM44 33.668C44.5523 33.668 45 34.1157 45 34.668V34.7432C45 35.7926 45 36.7486 44.984 37.6181C44.9569 39.1359 44.8851 40.4439 44.6372 41.5648C44.384 42.717 43.9412 43.6835 43.145 44.4796C42.1472 45.4775 40.8819 45.9203 39.3187 46.1305C37.7997 46.3347 35.8589 46.3347 33.4085 46.3346H30.5915C28.1411 46.3347 26.2003 46.3347 24.6813 46.1305C23.1181 45.9203 21.8528 45.4775 20.855 44.4796C20.4645 44.0891 20.4645 43.456 20.855 43.0654C21.2455 42.6749 21.8787 42.6749 22.2692 43.0654C22.8335 43.6297 23.6063 43.9679 24.9478 44.1483C26.318 44.3325 28.1242 44.3346 30.6667 44.3346H33.3333C35.8758 44.3346 37.682 44.3325 39.0522 44.1483C40.3937 43.9679 41.1665 43.6297 41.7308 43.0654C41.7537 43.0426 41.7761 43.0194 41.7983 42.9958C42.2116 42.5555 42.4969 41.9874 42.684 41.1354C42.8692 40.2848 42.9542 39.158 42.9838 37.6014C42.9996 36.7472 43 35.7777 43 34.668C43 34.1157 43.4477 33.668 44 33.668Z" fill="#FCFCFC"/>
</svg>
