<svg width="80" height="80" viewBox="0 0 80 80" fill="none" xmlns="http://www.w3.org/2000/svg">
<path fill-rule="evenodd" clip-rule="evenodd" d="M40 32.5C35.8579 32.5 32.5 35.8579 32.5 40C32.5 44.1421 35.8579 47.5 40 47.5C44.1421 47.5 47.5 44.1421 47.5 40C47.5 35.8579 44.1421 32.5 40 32.5ZM27.5 40C27.5 33.0964 33.0964 27.5 40 27.5C46.9036 27.5 52.5 33.0964 52.5 40C52.5 46.9036 46.9036 52.5 40 52.5C33.0964 52.5 27.5 46.9036 27.5 40Z" fill="#FF321B"/>
<path fill-rule="evenodd" clip-rule="evenodd" d="M43.4772 9.2256C42.6523 9.16932 41.587 9.16797 39.9997 9.16797C38.4123 9.16797 37.347 9.16933 36.5221 9.22561C35.7197 9.28036 35.329 9.37862 35.0718 9.48514C34.0509 9.90803 33.2397 10.7192 32.8168 11.7401C32.6834 12.0622 32.5729 12.5642 32.5284 13.7545C32.4296 16.3958 31.0663 18.9389 28.646 20.3362C26.2258 21.7336 23.3418 21.6426 21.005 20.4076C19.9519 19.851 19.4618 19.6957 19.1162 19.6502C18.0206 19.506 16.9125 19.8029 16.0358 20.4756C15.815 20.645 15.5345 20.9343 15.0859 21.6018C14.6247 22.2881 14.0909 23.21 13.2972 24.5846C12.5937 25.8032 12.0936 26.6709 11.7304 27.3815C11.102 28.6109 9.59597 29.0982 8.36654 28.4698C7.1371 27.8415 6.64983 26.3354 7.2782 25.106C7.70635 24.2683 8.27073 23.2908 8.93692 22.1369L9.00922 22.0117C9.74995 20.7287 10.3683 19.6576 10.936 18.8129C11.527 17.9335 12.1608 17.1466 12.992 16.5088C14.9208 15.0288 17.3585 14.3756 19.7688 14.693C21.0236 14.8582 22.1564 15.3607 23.3414 15.987C24.2941 16.4906 25.344 16.4692 26.146 16.0061C26.9481 15.5431 27.4916 14.6446 27.5318 13.5677C27.5819 12.2282 27.7131 10.996 28.1974 9.82671C29.1278 7.58062 30.9123 5.7961 33.1584 4.86574C34.1264 4.4648 35.1248 4.30932 36.1818 4.23721C37.1972 4.16793 38.434 4.16795 39.9155 4.16797H40.0838C41.5654 4.16794 42.8022 4.16792 43.8176 4.2372C44.8746 4.30932 45.873 4.4648 46.8409 4.86574C49.087 5.7961 50.8715 7.58062 51.8019 9.8267C52.2863 10.9961 52.4174 12.2284 52.4675 13.568C52.5078 14.6447 53.0512 15.5431 53.8531 16.0062C54.6551 16.4693 55.7049 16.4907 56.6577 15.9871C57.8427 15.3608 58.9754 14.8583 60.2302 14.6931C62.6405 14.3758 65.0782 15.029 67.007 16.509C67.8382 17.1468 68.472 17.9337 69.063 18.813C69.6307 19.6578 70.2492 20.7291 70.99 22.0123L71.0739 22.1576C71.8147 23.4407 72.4332 24.5118 72.8809 25.4258C73.3469 26.3773 73.7115 27.3196 73.8482 28.3584C74.1656 30.7687 73.5124 33.2064 72.0324 35.1352C71.262 36.1392 70.2604 36.869 69.1256 37.582C68.2131 38.1554 67.7067 39.0753 67.7068 40.0014C67.7068 40.9275 68.2132 41.8473 69.1255 42.4205C70.2946 43.1551 70.6469 44.6983 69.9124 45.8674C69.1778 47.0365 67.6346 47.3887 66.4655 46.6542C64.2276 45.2481 62.7069 42.7961 62.7068 40.0017C62.7066 37.207 64.2274 34.7546 66.4654 33.3484C67.474 32.7147 67.8534 32.3679 68.0656 32.0914C68.7383 31.2147 69.0352 30.1066 68.891 29.011C68.8547 28.735 68.7444 28.3475 68.3906 27.6252C68.0269 26.8827 67.4954 25.9595 66.7018 24.5848C65.9081 23.2101 65.3743 22.2882 64.9131 21.602C64.4645 20.9344 64.184 20.6452 63.9632 20.4757C63.0865 19.803 61.9784 19.5061 60.8828 19.6504C60.5372 19.6959 60.0471 19.8511 58.9941 20.4077C56.6572 21.6428 53.7731 21.7336 51.3529 20.3362C48.9329 18.9388 47.5698 16.3959 47.471 13.7548C47.4265 12.5643 47.3159 12.0622 47.1825 11.7401C46.7596 10.7192 45.9485 9.90803 44.9275 9.48514C44.6703 9.37861 44.2796 9.28035 43.4772 9.2256ZM10.0869 34.1352C10.8215 32.9661 12.3647 32.6138 13.5338 33.3484C15.7717 34.7545 17.2924 37.2066 17.2924 40.0011C17.2924 42.7956 15.7717 45.2477 13.5338 46.6538C12.5251 47.2876 12.1455 47.6344 11.9333 47.911C11.2606 48.7877 10.9637 49.8957 11.1079 50.9913C11.1443 51.2673 11.2545 51.6548 11.6083 52.3771C11.972 53.1196 12.5035 54.0429 13.2972 55.4176C14.0909 56.7923 14.6247 57.7142 15.0859 58.4004C15.5345 59.0679 15.815 59.3572 16.0358 59.5266C16.9125 60.1994 18.0205 60.4963 19.1162 60.352C19.4617 60.3065 19.9518 60.1513 21.0047 59.5948C23.3417 58.3596 26.226 58.2688 28.6463 59.6663C31.0664 61.0637 32.4296 63.6068 32.5284 66.248C32.5729 67.4384 32.6834 67.9404 32.8168 68.2625C33.2397 69.2834 34.0509 70.0946 35.0718 70.5175C35.329 70.624 35.7197 70.7223 36.5222 70.777C37.347 70.8333 38.4123 70.8346 39.9997 70.8346C41.587 70.8346 42.6523 70.8333 43.4772 70.777C44.2796 70.7223 44.6703 70.624 44.9275 70.5175C45.9485 70.0946 46.7596 69.2834 47.1825 68.2625C47.3159 67.9404 47.4265 67.4384 47.471 66.2481C47.5698 63.6068 48.9331 61.0637 51.3533 59.6664C53.7735 58.2691 56.6576 58.36 58.9944 59.595C60.0475 60.1517 60.5376 60.3069 60.8832 60.3524C61.9788 60.4967 63.0868 60.1998 63.9635 59.527C64.1844 59.3576 64.4648 59.0683 64.9135 58.4008C65.3746 57.7146 65.9085 56.7927 66.7021 55.418C67.4057 54.1993 67.9058 53.3316 68.269 52.621C68.8974 51.3916 70.4034 50.9043 71.6329 51.5327C72.8623 52.1611 73.3496 53.6671 72.7212 54.8966C72.293 55.7343 71.7286 56.7119 71.0623 57.8659L70.9901 57.9909C70.2494 59.274 69.631 60.345 69.0634 61.1897C68.4724 62.0691 67.8385 62.856 67.0073 63.4938C65.0786 64.9738 62.6409 65.627 60.2305 65.3096C58.9757 65.1444 57.843 64.6419 56.658 64.0156C55.7052 63.512 54.6554 63.5334 53.8533 63.9965C53.0513 64.4596 52.5078 65.3581 52.4675 66.435C52.4174 67.7744 52.2862 69.0066 51.8019 70.1759C50.8715 72.422 49.087 74.2065 46.8409 75.1369C45.873 75.5378 44.8746 75.6933 43.8176 75.7654C42.8022 75.8347 41.5654 75.8347 40.0839 75.8346H39.9155C38.434 75.8347 37.1972 75.8347 36.1818 75.7654C35.1248 75.6933 34.1264 75.5378 33.1584 75.1369C30.9123 74.2065 29.1278 72.422 28.1975 70.1759C27.7131 69.0066 27.5819 67.7743 27.5318 66.4349C27.4916 65.358 26.9481 64.4594 26.1461 63.9963C25.344 63.5332 24.294 63.5117 23.3411 64.0153C22.1562 64.6416 21.0235 65.1441 19.7688 65.3092C17.3584 65.6266 14.9208 64.9734 12.992 63.4934C12.1608 62.8556 11.5269 62.0687 10.936 61.1893C10.3683 60.3446 9.74988 59.2735 9.00911 57.9904L8.92498 57.8447C8.18419 56.5616 7.56577 55.4906 7.11808 54.5766C6.65204 53.6251 6.28748 52.6827 6.15072 51.644C5.83339 49.2336 6.48657 46.7959 7.96656 44.8672C8.73705 43.8631 9.73872 43.1333 10.8737 42.4201C11.7861 41.8469 12.2924 40.9271 12.2924 40.0011C12.2924 39.0751 11.7861 38.1553 10.8737 37.582C9.70462 36.8475 9.35236 35.3043 10.0869 34.1352Z" fill="#FF321B"/>
</svg>
