<svg width="135" height="134" viewBox="0 0 135 134" fill="none" xmlns="http://www.w3.org/2000/svg">
<rect x="0.5" width="134" height="134" rx="67" fill="#D6E7FF"/>
<path fill-rule="evenodd" clip-rule="evenodd" d="M100.31 26.8672H32.899C31.4318 26.8672 30.0248 27.45 28.9874 28.4874C27.95 29.5248 27.3672 30.9318 27.3672 32.399V46.8443C27.3672 48.3114 27.95 49.7184 28.9874 50.7558C30.0248 51.7932 31.4318 52.376 32.899 52.376H100.31C101.778 52.376 103.185 51.7932 104.222 50.7558C105.259 49.7184 105.842 48.3114 105.842 46.8443V32.399C105.842 30.9318 105.259 29.5248 104.222 28.4874C103.185 27.45 101.778 26.8672 100.31 26.8672ZM102.001 46.8443C102.001 47.7762 101.242 48.5352 100.31 48.5352H32.899C31.967 48.5352 31.2081 47.7762 31.2081 46.8443V32.399C31.2081 31.467 31.967 30.7081 32.899 30.7081H100.31C101.242 30.7081 102.001 31.467 102.001 32.399V46.8443ZM61.7896 64.2011H37.7141C37.2092 64.2011 36.725 64.4017 36.368 64.7586C36.011 65.1156 35.8105 65.5998 35.8105 66.1047C35.8105 66.6096 36.011 67.0937 36.368 67.4507C36.725 67.8077 37.2092 68.0083 37.7141 68.0083H61.7896C62.0396 68.0083 62.2871 67.959 62.5181 67.8634C62.749 67.7677 62.9589 67.6275 63.1356 67.4507C63.3124 67.274 63.4526 67.0641 63.5483 66.8332C63.6439 66.6022 63.6932 66.3547 63.6932 66.1047C63.6932 65.8547 63.6439 65.6072 63.5483 65.3762C63.4526 65.1453 63.3124 64.9354 63.1356 64.7586C62.9589 64.5819 62.749 64.4417 62.5181 64.346C62.2871 64.2503 62.0396 64.2011 61.7896 64.2011ZM100.31 27.5839H32.899C31.6219 27.5839 30.3972 28.0912 29.4942 28.9942C28.5912 29.8972 28.0839 31.1219 28.0839 32.399V46.8443C28.0839 48.1213 28.5912 49.3461 29.4942 50.2491C30.3214 51.0763 31.4187 51.5715 32.5788 51.6487C31.4189 51.5713 30.322 51.0762 29.4949 50.2491C28.5919 49.3461 28.0846 48.1214 28.0846 46.8443V32.399C28.0846 31.122 28.5919 29.8972 29.4949 28.9942C30.3979 28.0912 31.6226 27.5839 32.8997 27.5839H100.311L100.311 27.5839H100.31ZM102.718 46.8443C102.718 48.172 101.638 49.2518 100.31 49.2518H32.899C32.8575 49.2518 32.8162 49.2508 32.7752 49.2487C32.8164 49.2508 32.8579 49.2519 32.8997 49.2519H100.311C101.639 49.2519 102.719 48.1721 102.719 46.8443V32.399C102.719 31.5833 102.311 30.8614 101.689 30.4258C102.311 30.8615 102.718 31.5835 102.718 32.399V46.8443ZM61.7896 64.9178H37.7141C37.3993 64.9178 37.0974 65.0428 36.8748 65.2654C36.6522 65.488 36.5271 65.7899 36.5271 66.1047C36.5271 66.4195 36.6522 66.7214 36.8748 66.944C37.0695 67.1387 37.325 67.2588 37.5968 67.2858C37.3253 67.2587 37.0701 67.1386 36.8755 66.944C36.6529 66.7214 36.5278 66.4195 36.5278 66.1047C36.5278 65.7899 36.6529 65.488 36.8755 65.2655C37.0981 65.0429 37.4 64.9178 37.7148 64.9178H61.7903C61.7992 64.9178 61.8081 64.9179 61.817 64.9181C61.8078 64.9179 61.7987 64.9178 61.7896 64.9178ZM91.8828 43.9472C94.2724 43.9472 96.2096 42.01 96.2096 39.6204C96.2096 37.2308 94.2724 35.2936 91.8828 35.2936C89.4932 35.2936 87.556 37.2308 87.556 39.6204C87.556 42.01 89.4932 43.9472 91.8828 43.9472ZM91.6685 43.2243C89.7745 43.1134 88.2727 41.5423 88.2727 39.6204C88.2727 37.6266 89.889 36.0103 91.8828 36.0103C91.9139 36.0103 91.945 36.0107 91.976 36.0115C91.9452 36.0107 91.9144 36.0103 91.8835 36.0103C89.8897 36.0103 88.2734 37.6266 88.2734 39.6205C88.2734 41.5421 89.7748 43.1131 91.6685 43.2243ZM61.7902 37.718H37.7147C37.4647 37.718 37.2172 37.7673 36.9862 37.8629C36.7553 37.9586 36.5454 38.0988 36.3687 38.2756C36.1919 38.4523 36.0517 38.6622 35.956 38.8931C35.8604 39.1241 35.8111 39.3716 35.8111 39.6216C35.8111 39.8716 35.8604 40.1191 35.956 40.3501C36.0517 40.581 36.1919 40.7909 36.3687 40.9676C36.5454 41.1444 36.7553 41.2846 36.9862 41.3803C37.2172 41.476 37.4647 41.5252 37.7147 41.5252H61.7902C62.0402 41.5252 62.2877 41.476 62.5187 41.3803C62.7496 41.2846 62.9595 41.1444 63.1363 40.9676C63.313 40.7909 63.4532 40.581 63.5489 40.3501C63.6446 40.1191 63.6938 39.8716 63.6938 39.6216C63.6938 39.3716 63.6446 39.1241 63.5489 38.8931C63.4532 38.6622 63.313 38.4523 63.1363 38.2756C62.9595 38.0988 62.7496 37.9586 62.5187 37.8629C62.2877 37.7673 62.0402 37.718 61.7902 37.718ZM61.7902 38.4347H37.7147C37.6987 38.4347 37.6827 38.435 37.6667 38.4356C37.6824 38.435 37.698 38.4347 37.7137 38.4347H61.7892C61.945 38.4347 62.0994 38.4654 62.2434 38.5251C62.3874 38.5847 62.5182 38.6721 62.6285 38.7824C62.7387 38.8926 62.8261 39.0234 62.8858 39.1674C62.9454 39.3114 62.9761 39.4658 62.9761 39.6216C62.9761 39.7775 62.9454 39.9319 62.8858 40.0759C62.8261 40.2199 62.7387 40.3507 62.6285 40.4609C62.5182 40.5711 62.3874 40.6586 62.2434 40.7182C62.1436 40.7596 62.0388 40.7871 61.932 40.8C62.0391 40.7871 62.1443 40.7597 62.2444 40.7182C62.3884 40.6585 62.5193 40.5711 62.6295 40.4609C62.7397 40.3507 62.8272 40.2198 62.8868 40.0758C62.9464 39.9318 62.9771 39.7775 62.9771 39.6216C62.9771 39.4657 62.9464 39.3114 62.8868 39.1674C62.8272 39.0234 62.7397 38.8925 62.6295 38.7823C62.5193 38.6721 62.3884 38.5847 62.2444 38.525C62.1004 38.4654 61.9461 38.4347 61.7902 38.4347ZM88.2734 66.1035C88.2734 67.4805 89.0443 68.6775 90.1781 69.2863C89.044 68.6776 88.2727 67.4807 88.2727 66.1035C88.2727 64.1097 89.889 62.4934 91.8828 62.4934L91.8835 62.4934C89.8897 62.4934 88.2734 64.1097 88.2734 66.1035ZM91.8828 70.4303C94.2724 70.4303 96.2096 68.4931 96.2096 66.1035C96.2096 63.7139 94.2724 61.7767 91.8828 61.7767C89.4932 61.7767 87.556 63.7139 87.556 66.1035C87.556 68.4931 89.4932 70.4303 91.8828 70.4303ZM100.311 54.067H32.8997C31.6226 54.067 30.3979 54.5743 29.4949 55.4773C28.5919 56.3803 28.0846 57.605 28.0846 58.8821V73.3274C28.0846 74.6044 28.5919 75.8292 29.4949 76.7322C30.285 77.5223 31.3215 78.0095 32.4237 78.1189C31.3212 78.0096 30.2845 77.5224 29.4942 76.7321C28.5912 75.8291 28.0839 74.6044 28.0839 73.3273V58.882C28.0839 57.605 28.5912 56.3802 29.4942 55.4772C30.3972 54.5742 31.6219 54.0669 32.899 54.0669H100.31L100.311 54.067ZM102.719 73.3274C102.719 74.6552 101.639 75.7349 100.311 75.7349H32.8997C32.8789 75.7349 32.8582 75.7347 32.8376 75.7342C32.858 75.7347 32.8784 75.7349 32.899 75.7349H100.31C101.638 75.7349 102.718 74.6551 102.718 73.3273V58.882C102.718 57.9298 102.163 57.1049 101.359 56.7146C102.163 57.1047 102.719 57.9296 102.719 58.8821V73.3274ZM61.7903 91.4009L61.7896 91.4008H37.7141C37.3993 91.4008 37.0974 91.5259 36.8748 91.7485C36.6522 91.9711 36.5271 92.273 36.5271 92.5878C36.5271 92.9025 36.6522 93.2045 36.8748 93.427C36.9904 93.5427 37.1275 93.6319 37.2766 93.691C37.1278 93.6319 36.991 93.5426 36.8755 93.4271C36.6529 93.2045 36.5278 92.9026 36.5278 92.5878C36.5278 92.273 36.6529 91.9711 36.8755 91.7485C37.0981 91.5259 37.4 91.4009 37.7148 91.4009H61.7903ZM100.31 53.3503H32.899C31.4318 53.3503 30.0248 53.9331 28.9874 54.9705C27.95 56.0079 27.3672 57.4149 27.3672 58.882V73.3273C27.3672 74.7945 27.95 76.2015 28.9874 77.2389C30.0248 78.2763 31.4318 78.8591 32.899 78.8591H100.31C101.778 78.8591 103.185 78.2763 104.222 77.2389C105.259 76.2015 105.842 74.7945 105.842 73.3273V58.882C105.842 57.4149 105.259 56.0079 104.222 54.9705C103.185 53.9331 101.778 53.3503 100.31 53.3503ZM102.001 73.3273C102.001 74.2593 101.242 75.0182 100.31 75.0182H32.899C31.967 75.0182 31.2081 74.2593 31.2081 73.3273V58.882C31.2081 57.9501 31.967 57.1911 32.899 57.1911H100.31C101.242 57.1911 102.001 57.9501 102.001 58.882V73.3273ZM61.7896 90.6842H37.7141C37.2092 90.6842 36.725 90.8847 36.368 91.2417C36.011 91.5987 35.8105 92.0829 35.8105 92.5878C35.8105 93.0926 36.011 93.5768 36.368 93.9338C36.725 94.2908 37.2092 94.4913 37.7141 94.4913H61.7896C62.2944 94.4913 62.7786 94.2908 63.1356 93.9338C63.4926 93.5768 63.6932 93.0926 63.6932 92.5878C63.6932 92.0829 63.4926 91.5987 63.1356 91.2417C62.7786 90.8847 62.2944 90.6842 61.7896 90.6842ZM91.2221 89.0369C89.5442 89.3476 88.2734 90.8187 88.2734 92.5866C88.2734 94.3169 89.4906 95.7629 91.1155 96.1149C89.4903 95.7632 88.2727 94.3171 88.2727 92.5866C88.2727 90.8184 89.5438 89.3473 91.2221 89.0369ZM91.8828 96.9134C94.2724 96.9134 96.2096 94.9762 96.2096 92.5866C96.2096 90.1969 94.2724 88.2598 91.8828 88.2598C89.4932 88.2598 87.556 90.1969 87.556 92.5866C87.556 94.9762 89.4932 96.9134 91.8828 96.9134ZM100.311 80.55H32.8997C31.6226 80.55 30.3979 81.0574 29.4949 81.9604C28.5919 82.8634 28.0846 84.0881 28.0846 85.3652V99.8105C28.0846 101.088 28.5919 102.312 29.4949 103.215C30.285 104.005 31.3215 104.493 32.4237 104.602C31.3212 104.493 30.2845 104.006 29.4942 103.215C28.5912 102.312 28.0839 101.087 28.0839 99.8104V85.3651C28.0839 84.0881 28.5912 82.8633 29.4942 81.9603C30.3972 81.0573 31.6219 80.55 32.899 80.55H100.31C100.311 80.55 100.311 80.55 100.311 80.55ZM91.8577 88.9765L91.8835 88.9765L91.8828 88.9764L91.8577 88.9765ZM102.719 99.8105C102.719 101.138 101.639 102.218 100.311 102.218H32.8997C32.8893 102.218 32.8789 102.218 32.8686 102.218C32.8787 102.218 32.8888 102.218 32.899 102.218H100.31C101.638 102.218 102.718 101.138 102.718 99.8104V85.3651C102.718 84.1533 101.819 83.1479 100.652 82.9816C101.819 83.1476 102.719 84.1531 102.719 85.3652V99.8105ZM100.31 79.8333H32.899C31.4318 79.8333 30.0248 80.4161 28.9874 81.4536C27.95 82.491 27.3672 83.898 27.3672 85.3651V99.8104C27.3672 101.278 27.95 102.685 28.9874 103.722C30.0248 104.759 31.4318 105.342 32.899 105.342H100.31C101.778 105.342 103.185 104.759 104.222 103.722C105.259 102.685 105.842 101.278 105.842 99.8104V85.3651C105.842 83.898 105.259 82.491 104.222 81.4536C103.185 80.4161 101.778 79.8333 100.31 79.8333ZM102.001 99.8104C102.001 100.742 101.242 101.501 100.31 101.501H32.899C31.967 101.501 31.2081 100.742 31.2081 99.8104V85.3651C31.2081 84.4331 31.967 83.6742 32.899 83.6742H100.31C101.242 83.6742 102.001 84.4331 102.001 85.3651V99.8104Z" fill="#223E7F"/>
</svg>
