<svg width="135" height="134" viewBox="0 0 135 134" fill="none" xmlns="http://www.w3.org/2000/svg">
<rect x="0.5" width="134" height="134" rx="67" fill="#D6E7FF"/>
<path fill-rule="evenodd" clip-rule="evenodd" d="M89.4055 49.2453C93.2065 45.4443 99.3691 45.4443 103.17 49.2453C106.971 53.0463 106.971 59.2089 103.17 63.0099L86.2423 79.9378C86.2044 79.9757 86.1671 80.013 86.1302 80.0499C85.2032 80.9771 84.576 81.6045 83.8736 82.1524C83.0472 82.797 82.153 83.3496 81.2069 83.8005C80.4027 84.1838 79.5611 84.4642 78.3172 84.8786L70.8508 87.3674C69.2024 87.9169 67.3849 87.4878 66.1563 86.2592C64.9276 85.0305 64.4986 83.2131 65.048 81.5646L65.5271 80.1276L67.4867 74.2486C67.5036 74.1979 67.5203 74.1478 67.5368 74.0983C67.9513 72.8544 68.2317 72.0128 68.6149 71.2086C69.0658 70.2625 69.6185 69.3683 70.2631 68.5419C70.811 67.8394 71.4383 67.2122 72.3656 66.2852C72.4024 66.2483 72.4398 66.211 72.4776 66.1732L89.4055 49.2453ZM99.3695 53.046C97.6675 51.344 94.9081 51.344 93.2062 53.046L92.5548 53.6974C92.5901 53.8174 92.6307 53.945 92.6772 54.0791C93.0143 55.0506 93.6539 56.3357 94.8669 57.5486C96.0798 58.7615 97.3648 59.4011 98.3364 59.7382C98.4705 59.7847 98.5981 59.8253 98.7181 59.8606L99.3695 59.2092C101.071 57.5073 101.071 54.7479 99.3695 53.046ZM94.6131 63.9656C93.474 63.3673 92.2441 62.5272 91.0662 61.3493C89.8882 60.1714 89.0482 58.9414 88.4498 57.8023L76.2783 69.9739C75.1994 71.0527 74.8209 71.4378 74.5013 71.8476C74.0968 72.3662 73.75 72.9273 73.4671 73.521C73.2435 73.9901 73.0684 74.5009 72.5859 75.9484L71.1515 80.2516L72.1639 81.264L76.4671 79.8296C77.9145 79.3471 78.4253 79.1719 78.8944 78.9483C79.4881 78.6654 80.0492 78.3186 80.5678 77.9141C80.9776 77.5945 81.3627 77.216 82.4416 76.1371L94.6131 63.9656Z" fill="#223E7F"/>
<path fill-rule="evenodd" clip-rule="evenodd" d="M50.4805 70.582C50.4805 69.0978 51.6837 67.8945 53.168 67.8945H62.1263C63.6106 67.8945 64.8138 69.0978 64.8138 70.582C64.8138 72.0663 63.6106 73.2695 62.1263 73.2695H53.168C51.6837 73.2695 50.4805 72.0663 50.4805 70.582Z" fill="#223E7F"/>
<path fill-rule="evenodd" clip-rule="evenodd" d="M50.4805 56.25C50.4805 54.7657 51.6837 53.5625 53.168 53.5625H76.4596C77.9439 53.5625 79.1471 54.7657 79.1471 56.25C79.1471 57.7343 77.9439 58.9375 76.4596 58.9375H53.168C51.6837 58.9375 50.4805 57.7343 50.4805 56.25Z" fill="#223E7F"/>
<path fill-rule="evenodd" clip-rule="evenodd" d="M50.4805 84.918C50.4805 83.4337 51.6837 82.2305 53.168 82.2305H58.543C60.0272 82.2305 61.2305 83.4337 61.2305 84.918C61.2305 86.4022 60.0272 87.6055 58.543 87.6055H53.168C51.6837 87.6055 50.4805 86.4022 50.4805 84.918Z" fill="#223E7F"/>
<path fill-rule="evenodd" clip-rule="evenodd" d="M63.7145 28.4805H71.2855C77.8708 28.4804 83.0868 28.4804 87.169 29.0292C91.3702 29.594 94.7706 30.7841 97.4522 33.4658C98.5017 34.5153 98.5017 36.2169 97.4522 37.2665C96.4027 38.316 94.701 38.316 93.6515 37.2665C92.135 35.75 90.0579 34.841 86.4528 34.3563C82.7703 33.8612 77.9161 33.8555 71.0833 33.8555H63.9167C57.0839 33.8555 52.2297 33.8612 48.5472 34.3563C44.9421 34.841 42.865 35.75 41.3485 37.2665C39.832 38.783 38.923 40.86 38.4383 44.4652C37.9432 48.1476 37.9375 53.0019 37.9375 59.8346V74.168C37.9375 75.6522 36.7343 76.8555 35.25 76.8555C33.7657 76.8555 32.5625 75.6522 32.5625 74.168L32.5625 59.6325C32.5624 53.0472 32.5624 47.8312 33.1112 43.749C33.6761 39.5478 34.8662 36.1474 37.5478 33.4658C40.2294 30.7841 43.6298 29.594 47.831 29.0292C51.9132 28.4804 57.1292 28.4804 63.7145 28.4805ZM99.75 71.4805C101.234 71.4805 102.438 72.6837 102.438 74.168V74.3701C102.438 77.1905 102.438 79.7598 102.394 82.0964C102.322 86.1755 102.129 89.6908 101.463 92.7032C100.782 95.7998 99.5919 98.3971 97.4522 100.537C94.7706 103.218 91.3702 104.409 87.169 104.973C83.0868 105.522 77.8708 105.522 71.2855 105.522H63.7145C57.1292 105.522 51.9132 105.522 47.831 104.973C43.6298 104.409 40.2294 103.218 37.5478 100.537C36.4983 99.4873 36.4983 97.7857 37.5478 96.7361C38.5973 95.6866 40.299 95.6866 41.3485 96.7361C42.865 98.2526 44.9421 99.1616 48.5472 99.6463C52.2297 100.141 57.0839 100.147 63.9167 100.147H71.0833C77.9161 100.147 82.7703 100.141 86.4528 99.6463C90.0579 99.1616 92.135 98.2526 93.6515 96.7361C93.7129 96.6747 93.7734 96.6124 93.8328 96.549C94.9435 95.3657 95.7105 93.8389 96.2132 91.5491C96.7109 89.2632 96.9393 86.2349 97.019 82.0517C97.0614 79.756 97.0625 77.1505 97.0625 74.168C97.0625 72.6837 98.2657 71.4805 99.75 71.4805Z" fill="#223E7F"/>
</svg>
