<svg width="80" height="80" viewBox="0 0 80 80" fill="none" xmlns="http://www.w3.org/2000/svg">
<path d="M8.72035 28.7131L7.8668 27.8596V27.8929L2.48702 22.5131C2.14694 22.173 1.9668 21.7333 1.9668 21.2667V11.2853C1.99693 10.8977 2.10788 10.5525 2.28863 10.2684C2.46439 9.99225 2.74894 9.75744 3.0591 9.62821C3.3821 9.49363 3.74152 9.44833 4.05437 9.52053L4.07244 9.5247L4.09077 9.52752C4.42039 9.57823 4.71234 9.72766 4.92848 9.96782L4.93625 9.97644L4.94441 9.9847L13.0111 18.1514L13.1579 18.3H13.3668H15.2668H15.4739L15.6203 18.1536L18.0537 15.7202L18.2001 15.5738V15.3667V13.4667V13.2596L18.0537 13.1131L9.96349 5.02292C9.73227 4.76283 9.57402 4.45032 9.49157 4.10564C9.43973 3.74952 9.4726 3.38608 9.595 3.09231C9.72424 2.78215 9.95904 2.49759 10.2352 2.32183L10.2483 2.3135L10.2609 2.30437C10.5394 2.10178 10.8692 2 11.2001 2H21.2335C21.6623 2 22.107 2.17711 22.454 2.49436L28.6799 8.72022C29.02 9.0603 29.2001 9.5 29.2001 9.96667V19.0333V19.2404L29.3466 19.3869L38.9132 28.9536L38.9231 28.9634L38.9334 28.9726C39.4179 29.4061 39.5722 30.0095 39.4163 30.6071L39.4151 30.6121C39.2598 31.2329 38.7331 31.7597 38.1122 31.9149C37.4951 32.0692 36.9055 31.8983 36.4203 31.4131L26.2204 21.2131C25.8803 20.873 25.7001 20.4333 25.7001 19.9667V10.9V10.6929L25.5537 10.5464L20.6203 5.61311L20.4739 5.46667H20.2668H16.6335H15.4264L16.2799 6.32022L21.1799 11.2202C21.52 11.5603 21.7001 12 21.7001 12.4667V16.2C21.7001 16.6667 21.52 17.1064 21.1799 17.4464L21.1783 17.448L17.4466 21.2131C17.4463 21.2134 17.4461 21.2136 17.4458 21.2139C17.1058 21.5535 16.6664 21.7333 16.2001 21.7333H12.4335C11.9668 21.7333 11.5271 21.5532 11.187 21.2131L6.28702 16.3131L5.43346 15.4596V16.6667V20.3V20.5071L5.57991 20.6536L10.5132 25.5869L10.6597 25.7333H10.8668H19.9335C20.4001 25.7333 20.8398 25.9135 21.1799 26.2536L31.4132 36.4869L31.4183 36.4919L31.4235 36.4968C31.8952 36.9424 32.0687 37.5563 31.9163 38.1404L31.9151 38.1454C31.7598 38.7663 31.2331 39.293 30.6122 39.4483L30.5936 39.4529L30.5753 39.459C30.4629 39.4965 30.3412 39.5 30.1668 39.5C29.7305 39.5 29.3178 39.3106 28.9204 38.9131L19.387 29.3798L19.2406 29.2333H19.0335H9.9668C9.50012 29.2333 9.06043 29.0532 8.72035 28.7131Z" fill="#FF321B" stroke="#FF321B"/>
<path d="M77.8003 57.1333L71.5336 50.8667C71.1336 50.4333 70.5336 50.2 69.9336 50.2H60.8669L51.3336 40.6667C51.1336 40.4667 50.8669 40.2667 50.6003 40.1667C50.3336 40.0333 50.0336 40 49.7336 40H48.3336L48.4669 40.4C48.1003 40.6333 47.8003 41 47.6336 41.4C47.4669 41.8333 47.4336 42.2667 47.5003 42.7C47.6003 43.1333 47.8003 43.5333 48.1336 43.8667L58.3336 54.0667C58.7669 54.5 59.3336 54.7333 59.9336 54.7333H69.0003L73.9336 59.6667V63.3L69.0336 58.4C68.6336 57.9667 68.0336 57.7333 67.4336 57.7333H63.7003C63.1003 57.7333 62.5336 57.9667 62.1003 58.4L58.3669 62.1333C57.9336 62.5667 57.7003 63.1333 57.7003 63.7333V67.5C57.7003 68.1 57.9336 68.7 58.3669 69.1L63.2669 74H59.6336L54.7003 69.0667V60C54.7003 59.4 54.4669 58.8333 54.0336 58.4L43.8336 48.2C43.2336 47.6 42.4336 47.3333 41.6669 47.5667C40.8669 47.7667 40.2003 48.4333 40.0003 49.2333C39.8003 50 40.0003 50.8 40.6336 51.3667L50.2003 60.9333V70C50.2003 70.6 50.4336 71.1667 50.8669 71.6L57.1336 77.8667C57.5669 78.3 58.1336 78.5333 58.7336 78.5333H68.7336C69.1669 78.5333 69.6003 78.4 69.9669 78.1667C70.3336 77.9333 70.6336 77.5667 70.8003 77.1667C70.9669 76.7667 71.0003 76.3 70.9336 75.9C70.8669 75.4667 70.6336 75.0667 70.3336 74.7333L62.2336 66.6333V64.7333L64.6669 62.3H66.5669L74.6669 70.4C75.0003 70.7 75.3669 70.9333 75.8003 71C76.2336 71.1 76.6669 71.0333 77.1003 70.8667C77.5003 70.7 77.8669 70.4 78.1003 70.0333C78.3336 69.6667 78.5003 69.2333 78.5003 68.7667V58.7667C78.5003 58.1667 78.2669 57.6 77.8336 57.1667L77.8003 57.1333Z" fill="#FF321B"/>
<path d="M36.8733 51.2232L65.8733 22.2232H69.94C70.7733 22.2232 71.5733 21.7565 71.94 20.9898L78.2067 8.48984C78.4067 8.05651 78.4733 7.58984 78.4067 7.12318C78.34 6.65651 78.1067 6.22318 77.7733 5.88984L74.04 2.12318C73.7067 1.78984 73.2733 1.55651 72.8067 1.48984C72.34 1.42318 71.8733 1.48984 71.44 1.68984L58.94 7.92318C58.5733 8.12318 58.24 8.38984 58.0067 8.75651C57.8067 9.12318 57.6733 9.52318 57.6733 9.92318V13.9898L28.6733 42.9565L27.7733 42.0565C27.5733 41.8232 27.3067 41.6565 27.04 41.5565C26.4733 41.3232 25.84 41.3232 25.3067 41.5565C25.04 41.6898 24.7733 41.8565 24.5733 42.0565L20.84 45.8232C20.4733 46.1898 19.3733 47.5565 21.0067 49.1565L29.24 57.3898L14.3733 72.2565C12.3067 74.3565 9.17333 74.4898 7.24 72.5898C5.34 70.6898 5.47333 67.5565 7.57333 65.4565L19.64 53.3898C20.3067 52.8232 20.6067 51.9898 20.4067 51.1898C20.2067 50.3565 19.5067 49.6565 18.6733 49.4565C17.8733 49.2565 17.04 49.5565 16.54 50.1565L4.40666 62.2898C0.606665 66.0898 0.473332 72.1565 4.10666 75.7898C5.80666 77.4898 8.10666 78.4232 10.54 78.4232C10.64 78.4232 10.74 78.4232 10.84 78.4232C13.3733 78.3565 15.7733 77.2898 17.6067 75.4898L37.8067 55.2898C38.2067 54.8898 38.4733 54.2898 38.4733 53.6898C38.4733 53.0898 38.24 52.5232 37.8067 52.0898L36.9067 51.1898L36.8733 51.2232ZM31.8733 46.2565L61.5067 16.5898C61.7067 16.3898 61.8733 16.1232 61.9733 15.8565C62.1067 15.5898 62.14 15.2898 62.14 14.9898V11.3898L71.94 6.48984L73.4067 7.95651L68.5067 17.7565H64.9067C64.3067 17.7232 63.74 17.9898 63.3067 18.4232L33.6733 48.0898L31.8733 46.2898V46.2565ZM33.0067 53.7565L32.44 54.3232L25.6067 47.5232L26.1733 46.9565L32.9733 53.7565H33.0067Z" fill="#FF321B"/>
</svg>
