<svg width="41" height="40" viewBox="0 0 41 40" fill="none" xmlns="http://www.w3.org/2000/svg">
<path fill-rule="evenodd" clip-rule="evenodd" d="M20.3305 1.5625C19.8987 1.5625 19.5492 1.91194 19.5492 2.34375V6.02344H17.9867V2.34375C17.9867 1.049 19.0357 0 20.3305 0C20.9775 0 21.5644 0.26346 21.9876 0.686635C22.4108 1.10981 22.6742 1.69676 22.6742 2.34375V6.02344H21.1117V2.34375C21.1117 2.12824 21.0252 1.93394 20.8827 1.79149C20.7403 1.64904 20.546 1.5625 20.3305 1.5625ZM34.4495 9.14201C35.5702 8.49561 37.0037 8.87812 37.651 10.0003C37.8631 10.3677 37.9656 10.7715 37.9656 11.1711C37.9656 11.979 37.5457 12.7678 36.7924 13.2019L33.6086 15.0399L32.8274 13.6867L36.0122 11.8481C36.2621 11.7041 36.4031 11.4429 36.4031 11.1711C36.4031 11.0396 36.3698 10.9061 36.2978 10.7815L36.2975 10.781C36.0822 10.4078 35.6048 10.2794 35.2302 10.4955L32.0437 12.3352C31.925 12.4037 31.7903 12.4398 31.6531 12.4398H31.6523V11.6572L31.2625 10.982L34.4495 9.14201ZM5.04063 10.3906C4.76803 10.3906 4.50726 10.5315 4.3636 10.7807L4.36316 10.7815C4.14715 11.1553 4.27519 11.6327 4.64894 11.8483L7.83356 13.6867L7.05238 15.0399L3.86825 13.2017C2.74686 12.5549 2.36235 11.1217 3.00997 10.0003C3.44447 9.24657 4.23362 8.82812 5.04063 8.82812C5.43887 8.82812 5.8431 8.92919 6.21194 9.14229L9.39844 10.982L8.61719 12.3352L5.43025 10.4952C5.3069 10.4239 5.17363 10.3906 5.04063 10.3906ZM19.5492 10.0766V14.7586H17.9867V10.0766H19.5492ZM22.6742 10.0766V14.7586H21.1117V10.0766H22.6742ZM12.9094 13.0094L16.9633 15.35L16.182 16.7031L12.1281 14.3625L12.9094 13.0094ZM23.6976 15.35L27.7516 13.0094L28.5328 14.3625L24.4789 16.7031L23.6976 15.35ZM11.3445 15.714L15.4 18.0554L14.6188 19.4086L10.5633 17.0672L11.3445 15.714ZM25.2609 18.0554L29.3164 15.714L30.0977 17.0672L26.0422 19.4086L25.2609 18.0554ZM10.5633 22.9328L14.6188 20.5914L15.4 21.9446L11.3445 24.286L10.5633 22.9328ZM26.0422 20.5914L30.0977 22.9328L29.3164 24.286L25.2609 21.9446L26.0422 20.5914ZM12.1281 25.6375L16.182 23.2969L16.9633 24.65L12.9094 26.9906L12.1281 25.6375ZM24.4789 23.2969L28.5328 25.6375L27.7516 26.9906L23.6976 24.65L24.4789 23.2969ZM3.86849 26.7981L7.05238 24.9601L7.83356 26.3133L4.64918 28.1516L4.6487 28.1519C4.39879 28.2959 4.25781 28.5571 4.25781 28.8289C4.25781 28.9604 4.29116 29.0939 4.36318 29.2185L4.36346 29.219C4.57865 29.5921 5.05586 29.7205 5.43047 29.5047C5.43055 29.5046 5.43063 29.5046 5.43071 29.5045C5.4307 29.5045 5.43072 29.5045 5.43071 29.5045L8.61719 27.6648L9.39844 29.018L6.21144 30.858C5.09094 31.5043 3.65766 31.122 3.01026 30.0002C2.7979 29.6327 2.69531 29.2287 2.69531 28.8289C2.69531 28.0212 3.11509 27.2326 3.868 26.7984L3.86849 26.7981ZM32.8274 26.3133L33.6086 24.9601L36.7927 26.7983C37.9143 27.4452 38.2987 28.8787 37.6507 30.0003C37.2161 30.7536 36.4271 31.1719 35.6203 31.1719C35.2221 31.1719 34.8178 31.0708 34.449 30.8577L31.2625 29.018L32.0437 27.6648L35.2307 29.5048C35.354 29.5761 35.4873 29.6094 35.6203 29.6094C35.8929 29.6094 36.1537 29.4685 36.2973 29.2193L36.2978 29.2185C36.5138 28.8447 36.3857 28.3673 36.012 28.1517L32.8274 26.3133ZM19.5492 25.2414V29.9234H17.9867V25.2414H19.5492ZM22.6742 25.2414V29.9234H21.1117V25.2414H22.6742ZM19.5492 33.9766V37.6571C19.5491 37.7594 19.5692 37.8607 19.6084 37.9552C19.6475 38.0497 19.705 38.1355 19.7774 38.2077L19.7782 38.2085C19.9207 38.351 20.115 38.4375 20.3305 38.4375C20.7623 38.4375 21.1117 38.0881 21.1117 37.6562V33.9766H22.6742V37.6562C22.6742 38.951 21.6252 40 20.3305 40C19.6835 40 19.0965 39.7365 18.6734 39.3134C18.4555 39.096 18.2827 38.8377 18.1649 38.5534C18.0469 38.2687 17.9864 37.9636 17.9867 37.6554V33.9766H19.5492Z" fill="#FF321B"/>
<path fill-rule="evenodd" clip-rule="evenodd" d="M20.332 15.3125C17.7432 15.3125 15.6445 17.4112 15.6445 20C15.6445 22.5888 17.7432 24.6875 20.332 24.6875C22.9209 24.6875 25.0195 22.5888 25.0195 20C25.0195 17.4112 22.9209 15.3125 20.332 15.3125ZM14.082 20C14.082 16.5482 16.8803 13.75 20.332 13.75C23.7838 13.75 26.582 16.5482 26.582 20C26.582 23.4518 23.7838 26.25 20.332 26.25C16.8803 26.25 14.082 23.4518 14.082 20Z" fill="#FF321B"/>
<path fill-rule="evenodd" clip-rule="evenodd" d="M20.332 18.4375C19.4691 18.4375 18.7695 19.1371 18.7695 20C18.7695 20.8629 19.4691 21.5625 20.332 21.5625C21.195 21.5625 21.8945 20.8629 21.8945 20C21.8945 19.1371 21.195 18.4375 20.332 18.4375ZM17.207 20C17.207 18.2741 18.6061 16.875 20.332 16.875C22.0579 16.875 23.457 18.2741 23.457 20C23.457 21.7259 22.0579 23.125 20.332 23.125C18.6061 23.125 17.207 21.7259 17.207 20Z" fill="#FF321B"/>
<path fill-rule="evenodd" clip-rule="evenodd" d="M16.1806 5.74473C17.499 5.36145 18.8922 5.15625 20.332 5.15625C28.53 5.15625 35.1758 11.802 35.1758 20C35.1758 28.198 28.53 34.8438 20.332 34.8438C12.1341 34.8438 5.48828 28.198 5.48828 20C5.48828 15.6551 7.35607 11.7453 10.3301 9.03185C10.6488 8.74104 11.143 8.76368 11.4338 9.08242C11.7246 9.40116 11.7019 9.8953 11.3832 10.1861C8.72003 12.616 7.05078 16.1125 7.05078 20C7.05078 27.335 12.997 33.2812 20.332 33.2812C27.667 33.2812 33.6133 27.335 33.6133 20C33.6133 12.665 27.667 6.71875 20.332 6.71875C19.0413 6.71875 17.7949 6.90261 16.6169 7.24511C16.2025 7.36557 15.769 7.12734 15.6486 6.71302C15.5281 6.29871 15.7663 5.86519 16.1806 5.74473ZM20.332 10.7366C15.2157 10.7366 11.0687 14.8836 11.0687 20C11.0687 25.1163 15.2156 29.2634 20.332 29.2634C25.4484 29.2634 29.5954 25.1164 29.5954 20C29.5954 14.8836 25.4484 10.7366 20.332 10.7366ZM9.50617 20C9.50617 14.0206 14.3527 9.17414 20.332 9.17414C26.3113 9.17414 31.1579 14.0206 31.1579 20C31.1579 25.9794 26.3113 30.8259 20.332 30.8259C14.3527 30.8259 9.50617 25.9793 9.50617 20Z" fill="#FF321B"/>
</svg>
