<svg width="40" height="40" viewBox="0 0 40 40" fill="none" xmlns="http://www.w3.org/2000/svg">
<g clip-path="url(#clip0_1049_830)">
<path d="M7.19342 30.5506C6.68313 30.5506 6.17284 30.6658 5.71193 30.8798C3.34156 27.7687 2.04115 23.9169 2.04115 19.9992C2.04115 10.0897 10.0905 2.04032 20.0165 2.04032C21.2181 2.04032 22.4033 2.15554 23.5885 2.40246C24.1317 2.50122 24.6749 2.15554 24.7901 1.59587C24.8395 1.3325 24.7901 1.05266 24.642 0.83867C24.4938 0.608218 24.2634 0.460069 24 0.410687C22.6996 0.147312 21.3663 0.015625 20.0165 0.015625C14.6667 0.015625 9.64609 2.0897 5.87654 5.87571C2.07407 9.62879 0 14.6658 0 19.9992C0 24.4271 1.48148 28.7728 4.19753 32.2625C3.39095 33.6288 3.60494 35.3737 4.72428 36.5095C5.38272 37.1679 6.25514 37.53 7.19342 37.53C8.13169 37.53 9.00412 37.1679 9.66255 36.5095C11.0288 35.1432 11.0288 32.9374 9.66255 31.5712C9.00412 30.9127 8.13169 30.5506 7.19342 30.5506ZM8.21399 35.0609C7.67078 35.6041 6.71605 35.6041 6.15638 35.0609C5.87654 34.7811 5.72839 34.4189 5.72839 34.0403C5.72839 33.6617 5.87654 33.2831 6.15638 33.0197C6.43621 32.7399 6.79835 32.5918 7.17695 32.5918C7.55556 32.5918 7.93416 32.7399 8.19753 33.0197C8.47737 33.2996 8.62551 33.6617 8.62551 34.0403C8.62551 34.4189 8.47737 34.7975 8.19753 35.0609H8.21399Z" fill="#FF321B"/>
<path d="M35.8039 7.75207C36.1167 7.20886 36.2977 6.59981 36.2977 5.9743C36.2977 5.03602 35.9356 4.1636 35.2772 3.50516C33.9109 2.1389 31.7052 2.1389 30.3389 3.50516C28.9726 4.87142 28.9726 7.07718 30.3389 8.44343C30.9973 9.10187 31.8698 9.46401 32.808 9.46401C33.3183 9.46401 33.8286 9.34878 34.2895 9.13479C36.6599 12.2459 37.9603 16.0978 37.9603 20.0154C37.9603 29.9249 29.8945 37.9743 19.985 37.9743C18.7998 37.9743 17.6146 37.8591 16.4459 37.6286C16.1825 37.5792 15.9027 37.6286 15.6887 37.7768C15.4582 37.9249 15.3101 38.1554 15.2607 38.4187C15.2113 38.6821 15.2607 38.962 15.4089 39.1924C15.557 39.4229 15.7875 39.571 16.0508 39.6204C17.3348 39.8838 18.6681 40.0154 20.0014 40.0154C25.3512 40.0154 30.3718 37.9414 34.1414 34.1554C37.9109 30.3858 40.0014 25.3488 40.0014 20.0154C40.0014 15.5875 38.52 11.2418 35.8039 7.75207ZM34.2566 5.9743C34.2566 6.36936 34.1084 6.7315 33.8286 6.99487C33.2854 7.53808 32.3307 7.53808 31.771 6.99487C31.4912 6.71504 31.343 6.3529 31.343 5.9743C31.343 5.5957 31.4912 5.21709 31.771 4.95372C32.0508 4.67388 32.413 4.52574 32.7916 4.52574C33.1702 4.52574 33.5488 4.67388 33.8121 4.95372C34.092 5.23356 34.2401 5.5957 34.2401 5.9743H34.2566Z" fill="#FF321B"/>
<path d="M20.0001 26.6174C23.6544 26.6174 26.6174 23.638 26.6174 20.0001C26.6174 16.3622 23.6544 13.3828 20.0001 13.3828C16.3458 13.3828 13.3828 16.3458 13.3828 20.0001C13.3828 23.6544 16.3458 26.6174 20.0001 26.6174ZM20.0001 15.4075C22.5351 15.4075 24.5927 17.4651 24.5927 20.0001C24.5927 22.5351 22.5351 24.5927 20.0001 24.5927C17.4651 24.5927 15.4075 22.5351 15.4075 20.0001C15.4075 17.4651 17.4651 15.4075 20.0001 15.4075Z" fill="#FF321B"/>
<path d="M16.5751 33.2673C16.5751 33.827 17.036 34.2879 17.5957 34.2879H22.4188C22.9784 34.2879 23.4393 33.827 23.4393 33.2673V31.9669C24.3447 31.7035 25.2171 31.3414 26.0402 30.8805L26.962 31.8023C27.3406 32.1809 28.0155 32.1809 28.4105 31.8023L31.8179 28.3949C32.213 27.9998 32.213 27.3579 31.8179 26.9463L30.8961 26.0245C31.357 25.2015 31.7192 24.3291 31.9825 23.4237H33.283C33.8426 23.4237 34.3035 22.9628 34.3035 22.4031V17.5801C34.3035 17.0204 33.8426 16.5595 33.283 16.5595H31.9825C31.7192 15.6542 31.357 14.7817 30.8961 13.9587L31.8179 13.0369C32.0155 12.8393 32.1142 12.5924 32.1142 12.3126C32.1142 12.0328 32.0155 11.7858 31.8179 11.5883L28.4105 8.18091C28.0155 7.78585 27.3735 7.78585 26.962 8.18091L26.0402 9.10272C25.2171 8.64182 24.3447 8.27967 23.4393 8.0163V6.71589C23.4393 6.15622 22.9784 5.69531 22.4188 5.69531H17.5957C17.036 5.69531 16.5751 6.15622 16.5751 6.71589V8.0163C15.6698 8.27967 14.7974 8.64182 13.9743 9.10272L13.0525 8.18091C12.6739 7.80231 11.999 7.80231 11.6039 8.18091L8.19653 11.5883C7.999 11.7858 7.90024 12.0328 7.90024 12.3126C7.90024 12.5924 7.999 12.8393 8.19653 13.0369L9.11835 13.9587C8.65744 14.7817 8.2953 15.6542 8.03193 16.5595H6.73151C6.17184 16.5595 5.71094 17.0204 5.71094 17.5801V22.4031C5.71094 22.683 5.8097 22.9299 6.00723 23.1274C6.20476 23.3249 6.45168 23.4237 6.73151 23.4237H8.03193C8.2953 24.3291 8.65744 25.2015 9.11835 26.0245L8.19653 26.9463C7.80147 27.3414 7.80147 27.9834 8.19653 28.3949L11.6039 31.8023C11.9825 32.1809 12.6574 32.1809 13.0525 31.8023L13.9743 30.8805C14.7974 31.3414 15.6698 31.7035 16.5751 31.9669V33.2673ZM11.1101 26.9134C11.4393 26.5677 11.5052 26.041 11.2418 25.6459C10.5504 24.5924 10.0731 23.4237 9.8097 22.2056C9.71094 21.7447 9.29942 21.399 8.82205 21.399H7.73563V18.6171H8.82205C9.29942 18.6171 9.71094 18.2714 9.8097 17.8105C10.0731 16.576 10.5504 15.4237 11.2418 14.3702C11.5052 13.9751 11.4393 13.4319 11.1101 13.1027L10.3529 12.3455L12.3282 10.3702L13.0854 11.1274C13.4311 11.4566 13.9579 11.5225 14.3529 11.2591C15.4064 10.5842 16.5587 10.0904 17.7932 9.827C18.2541 9.72823 18.5998 9.31671 18.5998 8.83935V7.76939H21.3817V8.83935C21.3817 9.31671 21.7274 9.72823 22.1883 9.827C23.4229 10.0904 24.5751 10.5677 25.6286 11.2591C26.0237 11.5225 26.5669 11.4566 26.8961 11.1274L27.6533 10.3702L29.6286 12.3455L28.8714 13.1027C28.5422 13.4484 28.4764 13.9751 28.7397 14.3702C29.4311 15.4237 29.9085 16.5924 30.1718 17.8105C30.2706 18.2714 30.6821 18.6171 31.1595 18.6171H32.2459V21.399H31.1595C30.6821 21.399 30.2706 21.7447 30.1718 22.2056C29.9085 23.4402 29.4311 24.5924 28.7397 25.6459C28.4764 26.041 28.5422 26.5842 28.8714 26.9134L29.6286 27.6706L27.6533 29.6459L26.8961 28.8723C26.5504 28.5431 26.0237 28.4772 25.6286 28.7406C24.5751 29.4319 23.4064 29.9093 22.1883 30.1727C21.7274 30.2714 21.3817 30.683 21.3817 31.1603V32.2468H18.5998V31.1603C18.5998 30.683 18.2541 30.2714 17.7932 30.1727C16.5587 29.9093 15.4064 29.4319 14.3529 28.7406C13.9579 28.4772 13.4146 28.5431 13.0854 28.8723L12.3282 29.6459L10.3529 27.6706L11.1101 26.9134Z" fill="#FF321B"/>
<path d="M26.1565 2.78235C26.1565 2.78235 26.2059 2.89757 26.2553 2.96341C26.2882 3.0128 26.3376 3.07864 26.387 3.11156C26.4364 3.14448 26.4857 3.21033 26.5351 3.22679C26.5845 3.25971 26.6503 3.29263 26.7162 3.32555C26.782 3.35848 26.8479 3.37494 26.9137 3.3914C26.9796 3.40786 27.0454 3.40786 27.1113 3.40786C27.3746 3.40786 27.638 3.29263 27.8355 3.11156C27.8849 3.06218 27.9343 3.0128 27.9672 2.96341C28.0001 2.91403 28.0331 2.84819 28.066 2.78235C28.0989 2.7165 28.1154 2.65066 28.1154 2.60128C28.1154 2.53543 28.1318 2.46959 28.1318 2.40374C28.1318 2.3379 28.1318 2.27206 28.1154 2.20621C28.1154 2.14037 28.0825 2.07453 28.0495 2.00868C28.0166 1.94284 27.9837 1.89346 27.9508 1.82761C27.9178 1.77823 27.8685 1.71239 27.8191 1.663C27.5722 1.41609 27.2265 1.31732 26.8973 1.38317C26.8314 1.38317 26.7656 1.41609 26.6997 1.44901C26.6339 1.48193 26.5845 1.49839 26.5187 1.54778C26.4693 1.5807 26.4199 1.63008 26.3705 1.67946C26.3211 1.72885 26.2882 1.77823 26.2388 1.82761C26.2059 1.877 26.173 1.94284 26.1401 2.00868C26.1071 2.07453 26.0907 2.14037 26.0907 2.18975C26.0907 2.2556 26.0742 2.32144 26.0742 2.38728C26.0742 2.45313 26.0742 2.51897 26.0907 2.58481C26.0907 2.65066 26.1236 2.7165 26.1565 2.78235Z" fill="#FF321B"/>
<path d="M13.8768 37.2361C13.8768 37.2361 13.811 37.1045 13.7781 37.0551C13.7451 37.0057 13.6957 36.9398 13.6464 36.8905C13.597 36.8411 13.5476 36.8082 13.4818 36.7588C13.4324 36.7259 13.3665 36.6929 13.3171 36.66C13.2513 36.6436 13.1855 36.6106 13.1361 36.6106C13.0044 36.5777 12.8562 36.5777 12.741 36.6106C12.6752 36.6106 12.6093 36.6436 12.5435 36.6765C12.4776 36.7094 12.4283 36.7423 12.3624 36.7752C12.313 36.8082 12.2636 36.8575 12.2143 36.9069C12.1649 36.9563 12.1155 37.0057 12.0826 37.0551C12.0497 37.1045 12.0167 37.1703 11.9838 37.2361C11.9509 37.302 11.9344 37.3678 11.9344 37.4172C11.9344 37.4831 11.918 37.5489 11.918 37.6147C11.918 37.6806 11.918 37.7464 11.9344 37.8123C11.9344 37.8781 11.9674 37.944 12.0003 38.0098C12.0332 38.0756 12.0661 38.125 12.099 38.1909C12.132 38.2403 12.1813 38.3061 12.2307 38.3555C12.2801 38.4049 12.3295 38.4378 12.3789 38.4872C12.4283 38.5201 12.4941 38.553 12.5599 38.5859C12.6258 38.6189 12.6916 38.6353 12.7575 38.6518C12.8233 38.6518 12.8892 38.6682 12.955 38.6682C13.2184 38.6682 13.4818 38.553 13.6793 38.3719C13.7287 38.3226 13.7781 38.2732 13.811 38.2238C13.8439 38.1744 13.8768 38.1086 13.9097 38.0427C13.9427 37.9769 13.9591 37.911 13.9756 37.8617C13.9756 37.7958 13.992 37.73 13.992 37.6641C13.992 37.5983 13.992 37.5324 13.9756 37.4666C13.9756 37.4008 13.9427 37.3349 13.9097 37.2691L13.8768 37.2361Z" fill="#FF321B"/>
</g>
<defs>
<clipPath id="clip0_1049_830">
<rect width="40" height="40" fill="white"/>
</clipPath>
</defs>
</svg>
