<svg width="41" height="40" viewBox="0 0 41 40" fill="none" xmlns="http://www.w3.org/2000/svg">
<g clip-path="url(#clip0_1049_1552)">
<path d="M37.5604 16.5862C36.9149 13.3676 35.35 10.2986 32.8597 7.80828C30.3693 5.31862 27.3004 3.75379 24.0818 3.10828C23.908 1.36828 22.4528 0 20.668 0C18.8831 0 17.428 1.36828 17.2542 3.10828C14.0356 3.75379 10.9666 5.31862 8.47624 7.80828C5.9859 10.2986 4.42107 13.3676 3.77555 16.5862C2.03624 16.76 0.667969 18.2152 0.667969 20C0.667969 21.7848 2.03624 23.24 3.77555 23.4138C4.42107 26.6324 5.9859 29.7014 8.47624 32.1917C10.9666 34.6814 14.0356 36.2462 17.2542 36.8917C17.428 38.6317 18.8831 40 20.668 40C22.4528 40 23.908 38.6317 24.0818 36.8917C27.3004 36.2462 30.3693 34.6814 32.8597 32.1917C35.35 29.7014 36.9149 26.6324 37.5604 23.4138C39.2997 23.24 40.668 21.7848 40.668 20C40.668 18.2152 39.2997 16.76 37.5604 16.5862ZM3.42659 21.951C2.62383 21.6662 2.04728 20.8993 2.04728 20C2.04728 19.1007 2.62383 18.3338 3.42659 18.049V21.951ZM20.668 1.37931C21.5673 1.37931 22.3342 1.95586 22.619 2.75862H18.7169C19.0018 1.95586 19.7687 1.37931 20.668 1.37931ZM31.3859 8.3069L26.5011 13.191C24.8287 11.7566 22.7487 11.0386 20.668 11.0386C18.5873 11.0386 16.5073 11.7566 14.8349 13.191L9.95004 8.3069C15.9969 2.75862 25.339 2.75862 31.3859 8.3069ZM26.0321 25.3641C23.0742 28.3221 18.2611 28.3221 15.3031 25.3641C12.3452 22.4062 12.3452 17.5931 15.3031 14.6352C18.2611 11.6772 23.0742 11.6772 26.0321 14.6352C28.99 17.5931 28.99 22.4062 26.0321 25.3641ZM8.97486 9.28207L13.859 14.1669C10.9893 17.5124 10.9893 22.4876 13.859 25.8331L8.97486 30.7179C3.42728 24.671 3.42728 15.329 8.97486 9.28207ZM20.668 38.6207C19.7687 38.6207 19.0018 38.0441 18.7169 37.2414H22.619C22.3342 38.0441 21.5673 38.6207 20.668 38.6207ZM9.95004 31.6931L14.8349 26.809C18.1797 29.6779 23.1562 29.6779 26.5011 26.809L31.3859 31.6931C25.339 37.2414 15.9969 37.2414 9.95004 31.6931ZM32.3611 30.7179L27.4769 25.8331C30.3466 22.4876 30.3466 17.5124 27.4769 14.1669L32.3611 9.28207C37.9087 15.329 37.9087 24.671 32.3611 30.7179ZM37.9093 21.951V18.049C38.7121 18.3338 39.2887 19.1007 39.2887 20C39.2887 20.8993 38.7121 21.6662 37.9093 21.951Z" fill="#FF321B"/>
<path fill-rule="evenodd" clip-rule="evenodd" d="M32.861 7.80958C35.3513 10.2999 36.9162 13.3689 37.5617 16.5875C39.301 16.7613 40.6693 18.2165 40.6693 20.0013C40.6693 21.7861 39.301 23.2413 37.5617 23.4151C36.9162 26.6337 35.3513 29.7027 32.861 32.193C30.3707 34.6827 27.3017 36.2475 24.0831 36.893C23.9093 38.633 22.4541 40.0013 20.6693 40.0013C18.8844 40.0013 17.4293 38.633 17.2555 36.893C14.0369 36.2475 10.9679 34.6827 8.47755 32.193C5.9872 29.7027 4.42237 26.6337 3.77686 23.4151C2.03755 23.2413 0.669271 21.7861 0.669271 20.0013C0.669271 18.2165 2.03755 16.7613 3.77686 16.5875C4.42237 13.3689 5.9872 10.2999 8.47755 7.80958C10.9679 5.31992 14.0369 3.7551 17.2555 3.10958C17.4293 1.36958 18.8844 0.00130209 20.6693 0.00130209C22.4541 0.00130209 23.9093 1.36958 24.0831 3.10958C27.3017 3.7551 30.3707 5.31992 32.861 7.80958ZM24.3822 2.83124C27.5777 3.51707 30.6185 5.09634 33.0967 7.57384C35.5749 10.0521 37.1542 13.0929 37.84 16.2884C39.6273 16.585 41.0026 18.1255 41.0026 20.0013C41.0026 21.8771 39.6273 23.4176 37.84 23.7142C37.1542 26.9097 35.5749 29.9505 33.0967 32.4287C30.6185 34.9062 27.5777 36.4855 24.3822 37.1714C24.0856 38.9592 22.5451 40.3346 20.6693 40.3346C18.7934 40.3346 17.2529 38.9592 16.9563 37.1714C13.7609 36.4855 10.7201 34.9063 8.24188 32.4288C5.76367 29.9506 4.18434 26.9097 3.49852 23.7142C1.71128 23.4176 0.335938 21.8771 0.335938 20.0013C0.335938 18.1255 1.71128 16.585 3.49852 16.2884C4.18434 13.0929 5.76363 10.0521 8.24184 7.57388C10.72 5.09637 13.7609 3.51707 16.9563 2.83124C17.2529 1.04339 18.7934 -0.332031 20.6693 -0.332031C22.5451 -0.332031 24.0856 1.04339 24.3822 2.83124ZM3.42789 21.9523V18.0503C3.31169 18.0915 3.20022 18.1428 3.09456 18.2032C2.47029 18.5599 2.04858 19.2322 2.04858 20.0013C2.04858 20.7704 2.47029 21.4427 3.09456 21.7994C3.20022 21.8598 3.31169 21.9111 3.42789 21.9523ZM3.09456 21.4027V18.5999C2.66254 18.9163 2.38191 19.4271 2.38191 20.0013C2.38191 20.5755 2.66254 21.0863 3.09456 21.4027ZM22.0707 2.42659C21.7543 1.99457 21.2435 1.71395 20.6693 1.71395C20.0951 1.71395 19.5843 1.99457 19.2679 2.42659H22.0707ZM22.4674 2.42659C22.1107 1.80233 21.4384 1.38061 20.6693 1.38061C19.9001 1.38061 19.2279 1.80233 18.8712 2.42659C18.8108 2.53225 18.7595 2.64372 18.7182 2.75992H22.6203C22.5791 2.64372 22.5277 2.53225 22.4674 2.42659ZM31.3872 8.3082C31.305 8.23281 31.2223 8.15844 31.1389 8.0851C25.1704 2.83429 16.1681 2.83429 10.1996 8.0851C10.1163 8.15844 10.0335 8.23281 9.95134 8.3082L14.8362 13.1923C16.5086 11.7579 18.5886 11.0399 20.6693 11.0399C22.75 11.0399 24.83 11.7579 26.5024 13.1923L31.3872 8.3082ZM30.9027 8.32128C25.0653 3.20001 16.2733 3.20001 10.4359 8.32128L14.8571 12.7419C16.5495 11.3852 18.6097 10.7066 20.6693 10.7066C22.7289 10.7066 24.789 11.3852 26.4814 12.7419L30.9027 8.32128ZM15.5401 25.1297C18.3679 27.9575 22.9699 27.9575 25.7977 25.1297C28.6255 22.302 28.6255 17.6999 25.7977 14.8722C22.9699 12.0444 18.3679 12.0444 15.5401 14.8722C12.7124 17.6999 12.7124 22.302 15.5401 25.1297ZM8.97617 9.28337C8.90078 9.36554 8.82642 9.44832 8.75308 9.53169C3.50294 15.5002 3.50294 24.5024 8.75308 30.4709C8.82642 30.5543 8.90078 30.6371 8.97617 30.7192L13.8603 25.8344C10.9907 22.4889 10.9907 17.5137 13.8603 14.1682L8.97617 9.28337ZM8.98926 9.76791C3.86866 15.6053 3.86866 24.3973 8.98926 30.2347L13.4099 25.8134C10.6963 22.4287 10.6963 17.5739 13.4099 14.1892L8.98926 9.76791ZM19.2679 37.576C19.5843 38.008 20.0951 38.2887 20.6693 38.2887C21.2435 38.2887 21.7543 38.008 22.0707 37.576H19.2679ZM18.8712 37.576C18.8108 37.4704 18.7595 37.3589 18.7182 37.2427H22.6203C22.5791 37.3589 22.5277 37.4704 22.4674 37.576C22.1107 38.2003 21.4384 38.622 20.6693 38.622C19.9001 38.622 19.2279 38.2003 18.8712 37.576ZM9.95134 31.6944C10.0335 31.7698 10.1163 31.8442 10.1996 31.9175C16.1681 37.1683 25.1704 37.1683 31.1389 31.9175C31.2223 31.8442 31.305 31.7698 31.3872 31.6944L26.5024 26.8103C23.1575 29.6792 18.181 29.6792 14.8362 26.8103L9.95134 31.6944ZM14.8572 27.2607C18.2413 29.9735 23.0973 29.9735 26.4814 27.2607L30.9027 31.6813C25.0653 36.8026 16.2733 36.8026 10.4359 31.6813L14.8572 27.2607ZM32.3624 30.7192C32.4378 30.6371 32.5121 30.5543 32.5855 30.4709C37.8356 24.5024 37.8356 15.5002 32.5855 9.53169C32.5121 9.44832 32.4378 9.36554 32.3624 9.28337L27.4782 14.1682C30.3479 17.5137 30.3479 22.4889 27.4782 25.8344L32.3624 30.7192ZM27.9286 25.8134C30.6422 22.4287 30.6422 17.5739 27.9286 14.1892L32.3493 9.76791C37.4699 15.6053 37.4699 24.3973 32.3493 30.2347L27.9286 25.8134ZM37.9107 21.9523C38.0269 21.9111 38.1383 21.8598 38.244 21.7994C38.8682 21.4427 39.29 20.7704 39.29 20.0013C39.29 19.2322 38.8682 18.5599 38.244 18.2032C38.1383 18.1428 38.0269 18.0915 37.9107 18.0503V21.9523ZM38.244 21.4027C38.676 21.0863 38.9566 20.5755 38.9566 20.0013C38.9566 19.4271 38.676 18.9163 38.244 18.5999V21.4027ZM15.3044 25.3654C18.2624 28.3234 23.0755 28.3234 26.0334 25.3654C28.9913 22.4075 28.9913 17.5944 26.0334 14.6365C23.0755 11.6785 18.2624 11.6785 15.3044 14.6365C12.3465 17.5944 12.3465 22.4075 15.3044 25.3654Z" fill="#FF321B"/>
</g>
<defs>
<clipPath id="clip0_1049_1552">
<rect width="40" height="40" fill="white" transform="translate(0.667969)"/>
</clipPath>
</defs>
</svg>
